<?xml version="1.0" encoding="UTF-8"?>
<!-- Created with Inkscape (http://www.inkscape.org/) -->
<svg width="85.732mm" height="28.262mm" version="1.1" viewBox="0 0 85.732 28.262" xmlns="http://www.w3.org/2000/svg">
 <g transform="translate(-51.248 -29.639)">
  <g stroke="#fff" stroke-width=".3">
   <path d="m68.139 30.233c-1.7106 0-3.1802 0.56913-4.4085 1.7074-1.4148 1.3119-2.1224 3.0068-2.1224 5.0839 0 2.0322 0.6111 3.6879 1.833 4.9677s2.7363 1.9198 4.5434 1.9198c1.7813 0 3.2992-0.65594 4.5532-1.9678 1.254-1.3119 1.881-2.9614 1.881-4.9485 0-1.9293-0.62362-3.5373-1.8712-4.8235-1.2476-1.2926-2.7172-1.9389-4.4085-1.9389zm35.537 0-4.6013 10.765c-0.20579 0.47588-0.39871 0.87138-0.57878 1.1865-0.17363 0.30868-0.34388 0.54019-0.51108 0.69453-0.1672 0.15434-0.52124 0.27974-1.0614 0.3762v0.35708h4.1191v-0.35708c-0.32154-0.02572-0.58199-0.06092-0.78135-0.10594-0.19935-0.05145-0.35369-0.11271-0.46302-0.18345-0.10932-0.07717-0.18311-0.15721-0.22169-0.24081-0.03215-0.09003-0.04858-0.18649-0.04858-0.28939 0-0.25723 0.1095-0.63682 0.32814-1.1384l0.88728-2.0645h5.0643l0.79116 1.881c0.12862 0.30868 0.22508 0.5759 0.28939 0.80098 0.0707 0.21865 0.10307 0.39854 0.0966 0.54002 0 0.10932-0.0227 0.20917-0.0677 0.29921-0.0386 0.09003-0.1095 0.17007-0.21239 0.24081-0.0965 0.07074-0.23151 0.12862-0.40515 0.17363-0.17363 0.04502-0.38872 0.07396-0.64595 0.08682v0.35708h5.1604v-0.35708c-0.2701-0.01286-0.50448-0.04806-0.70384-0.10594-0.19292-0.05788-0.37333-0.1606-0.54053-0.30851-0.1672-0.15434-0.33119-0.36656-0.49196-0.63665-0.15434-0.27653-0.32459-0.64021-0.51108-1.0904l-4.5532-10.881zm15.743 0.02894c-0.50161 0-0.96124 0.08056-1.3792 0.24133-0.41801 0.16077-0.78795 0.39854-1.1095 0.71365-0.32154 0.31511-0.58825 0.70096-0.80046 1.1576-0.21222 0.45659-0.3603 0.98426-0.4439 1.5823h0.35708c0.12219-0.36656 0.2794-0.68827 0.47232-0.9648 0.19293-0.27653 0.41192-0.50804 0.65629-0.69453 0.25081-0.1865 0.5209-0.32493 0.81029-0.41496 0.29582-0.09646 0.6045-0.14469 0.92604-0.14469 0.34727 0 0.67811 0.07091 0.99322 0.21239 0.31511 0.14148 0.5886 0.33779 0.82011 0.58859 0.23794 0.2508 0.4246 0.55271 0.55965 0.9064 0.14148 0.34727 0.21188 0.72686 0.21188 1.1384 0 1.0868-0.46302 2.2863-1.3891 3.5982-0.46302 0.66238-1.0929 1.4148-1.8903 2.2572-0.79743 0.83601-1.7654 1.7746-2.9037 2.8164v0.35708h7.7168l0.91674-2.5177h-0.35708c-0.14148 0.24437-0.28617 0.4373-0.43408 0.57878-0.14791 0.13505-0.32493 0.24116-0.53072 0.31833-0.20579 0.07074-0.45659 0.11558-0.75241 0.13488-0.29582 0.01929-0.65899 0.02894-1.0899 0.02894h-3.4148c0.19935-0.18006 0.54662-0.5302 1.0418-1.0511 0.50161-0.52733 1.1542-1.2315 1.958-2.1125 1.074-1.1704 1.8456-2.2735 2.3151-3.3088 0.30868-0.66238 0.46302-1.3246 0.46302-1.987 0-0.45659-0.0965-0.89067-0.28939-1.3022-0.1865-0.418-0.44694-0.78456-0.78135-1.0997-0.32797-0.31511-0.72008-0.56591-1.1767-0.75241s-0.94855-0.28009-1.4759-0.28009zm-43.842 0.27027v0.35708h0.49196c0.49518 0 0.86799 0.14131 1.1188 0.42426 0.18006 0.19936 0.27027 0.71061 0.27027 1.5338v8.4403c0 0.75241-0.06752 1.2285-0.20257 1.4278-0.24437 0.36013-0.63987 0.54002-1.1865 0.54002h-0.49196v0.35708h10.129l1.1188-3.5497-0.31833-0.0677c-0.17363 0.41157-0.34388 0.76223-0.51108 1.0516-0.16077 0.28939-0.32814 0.5368-0.50178 0.74259-0.1672 0.19936-0.34084 0.35996-0.5209 0.48214-0.18006 0.12219-0.37299 0.21865-0.57878 0.28939-0.41158 0.14791-1.1158 0.22221-2.1125 0.22221h-0.95498c-0.84887 0-1.3505-0.03233-1.5048-0.09663-0.10289-0.03858-0.18632-0.0902-0.25063-0.15451-0.06431-0.07074-0.11593-0.15756-0.15451-0.26045-0.03859-0.10932-0.06752-0.24437-0.08682-0.40514-0.01286-0.16077-0.01912-0.3537-0.01912-0.57878v-8.2186c0-0.78456 0.05162-1.2765 0.15451-1.4759 0.05788-0.10289 0.12827-0.19597 0.21187-0.27957 0.09003-0.09003 0.20917-0.1672 0.35708-0.23151 0.15434-0.06431 0.34726-0.11254 0.57878-0.14469 0.23794-0.03215 0.53359-0.04806 0.88728-0.04806v-0.35708zm11.99 0v0.35708h0.46302c0.30868 0 0.60433 0.07717 0.88728 0.23151 0.11576 0.06431 0.20596 0.13183 0.27027 0.20257 0.07074 0.07074 0.12184 0.17007 0.154 0.29869 0.03858 0.12219 0.06465 0.27991 0.07751 0.47284 0.01286 0.19292 0.01912 0.44373 0.01912 0.75241v8.4501c0 0.791-0.07717 1.2863-0.23151 1.4857-0.23794 0.31511-0.63005 0.47232-1.1767 0.47232h-0.46302v0.35708h5.6141v-0.35708h-0.47284c-0.31511 0-0.61076-0.07717-0.88728-0.23151-0.11576-0.06431-0.20935-0.13183-0.28009-0.20257-0.07074-0.07717-0.12523-0.1765-0.16382-0.29869-0.03215-0.12219-0.05483-0.27991-0.0677-0.47284-0.01286-0.19292-0.01912-0.44373-0.01912-0.75241v-4.1093h2.3828c0.32797 0 0.59807 0.0352 0.81029 0.10594 0.21865 0.06431 0.39228 0.17042 0.5209 0.31833 0.12862 0.14791 0.22169 0.33796 0.27957 0.56948 0.05788 0.23151 0.0902 0.51125 0.09663 0.83922h0.35657v-4.4276h-0.35657c-0.04502 0.36013-0.10628 0.65577-0.18345 0.88728-0.07717 0.23151-0.18328 0.41479-0.31833 0.54984-0.13505 0.13505-0.30242 0.22812-0.50178 0.27957-0.19292 0.05145-0.42731 0.07751-0.70383 0.07751h-2.3828v-5.1418h2.8841c0.42444 0 0.79099 0.02607 1.0997 0.07751 0.30868 0.04502 0.5759 0.14435 0.80098 0.29869 0.23151 0.15434 0.42444 0.37333 0.57878 0.65629 0.16077 0.28296 0.30546 0.65916 0.43408 1.1286h0.21187v-2.8748zm-19.611 0.40514c0.70739 0 1.3248 0.14469 1.8521 0.43408 0.53376 0.28296 0.97749 0.69436 1.3312 1.2345 0.36013 0.54019 0.62735 1.2029 0.80098 1.9875 0.18006 0.77813 0.26975 1.6656 0.26975 2.6624 0 1.0418-0.10898 1.9389-0.32763 2.6913-0.21222 0.75241-0.50838 1.3726-0.8878 1.8614-0.37942 0.48231-0.82941 0.83922-1.3503 1.0707-0.51447 0.23151-1.074 0.34727-1.6784 0.34727-0.67524 0-1.2704-0.15095-1.7849-0.4532-0.51447-0.30868-0.94855-0.7365-1.3022-1.2831-0.34727-0.55305-0.61058-1.2119-0.79065-1.9771-0.18006-0.76527-0.27027-1.6079-0.27027-2.5275 0-0.92604 0.0902-1.7619 0.27027-2.5079 0.1865-0.74598 0.4532-1.3798 0.80047-1.9007 0.3537-0.52733 0.78778-0.93247 1.3022-1.2154s1.1029-0.42426 1.7653-0.42426zm35.363 2.296 2.219 5.286h-4.4953z" color="#000000"/>
   <path d="m68.139 30.184c-1.7217 0-3.2046 0.57458-4.4414 1.7207-1.4244 1.3208-2.1387 3.0326-2.1387 5.1211 0 2.0422 0.61472 3.7127 1.8457 5.002 1.2304 1.2886 2.7612 1.9355 4.5801 1.9355 1.7936 0 3.3277-0.66393 4.5898-1.9844 1.2627-1.321 1.8945-2.9848 1.8945-4.9824 0-1.94-0.62848-3.5642-1.8848-4.8594-1.2554-1.3007-2.7413-1.9531-4.4453-1.9531zm35.504 0-0.0137 0.0293-4.5996 10.766c-0.20528 0.4747-0.39742 0.86882-0.57617 1.1816-0.17202 0.30582-0.34063 0.53468-0.50195 0.68359-0.15127 0.13964-0.50058 0.26747-1.0371 0.36328l-0.04102 0.0078v0.44726h4.2188v-0.45312l-0.0449-0.0039c-0.31928-0.02554-0.57792-0.05948-0.77344-0.10352h-2e-3c-0.19501-0.05049-0.34334-0.11175-0.44531-0.17773-0.10237-0.07252-0.16933-0.14354-0.20312-0.21484v-2e-3c-0.02975-0.08395-0.04492-0.17459-0.04492-0.27148 0-0.24304 0.10682-0.61845 0.32422-1.1172l0.87305-2.0352h4.998l0.77929 1.8496c0.1281 0.30742 0.22356 0.57444 0.28711 0.79688 0.0696 0.21526 0.10174 0.39149 0.0957 0.52344v2e-3c0 0.1024-0.0211 0.19452-0.0625 0.27734l-2e-3 2e-3c-0.0341 0.07951-0.0981 0.15386-0.19531 0.2207-0.0891 0.06528-0.21901 0.12203-0.38867 0.16602-0.16896 0.04381-0.38184 0.07124-0.63672 0.08398l-0.0469 0.0039v0.45312h5.2598v-0.45312l-0.0469-0.0039c-0.26641-0.01268-0.49725-0.04733-0.69141-0.10352h-2e-3c-0.18495-0.05575-0.35756-0.15359-0.51953-0.29688-0.16239-0.1499-0.32341-0.35785-0.48243-0.625-0.15287-0.2739-0.32179-0.63497-0.50781-1.084l-4.5664-10.912zm15.775 0.0293c-0.50696 0-0.97225 0.08097-1.3965 0.24414-0.4242 0.16315-0.80069 0.40488-1.127 0.72461-0.32624 0.31972-0.59612 0.71053-0.81055 1.1719-0.21467 0.46188-0.3631 0.99361-0.44726 1.5957l-8e-3 0.05859h0.44922l0.0117-0.03516c0.1209-0.36268 0.277-0.67912 0.4668-0.95117 0.19026-0.2727 0.40457-0.50047 0.64453-0.68359 0.24653-0.18331 0.51099-0.31987 0.79492-0.4082 0.29075-0.0948 0.59557-0.14062 0.91211-0.14062 0.34047 0 0.66378 0.06835 0.97266 0.20703 0.3092 0.13883 0.57572 0.33024 0.80273 0.57617v2e-3c0.23314 0.24574 0.41783 0.54046 0.55079 0.88867v2e-3c0.13886 0.34084 0.20703 0.71327 0.20703 1.1191 0 1.0726-0.45661 2.2637-1.3789 3.5703-0.46101 0.6595-1.0905 1.4088-1.8867 2.25-0.79622 0.83469-1.7631 1.7736-2.9004 2.8145l-0.0156 0.01563v0.42773h7.8008l0.95312-2.6172h-0.45703l-0.0137 0.02539c-0.13948 0.24092-0.28283 0.42944-0.42578 0.56641-0.14287 0.13045-0.31317 0.2334-0.51367 0.30859-0.19985 0.06849-0.4464 0.11378-0.73829 0.13281-0.29424 0.01919-0.65581 0.02734-1.0859 0.02734h-3.2949c0.20725-0.19283 0.50301-0.48919 0.95703-0.9668 0.502-0.52774 1.155-1.2321 1.959-2.1133 1.0765-1.1732 1.8518-2.2783 2.3242-3.3203 0.31137-0.66816 0.4668-1.3377 0.4668-2.0078 0-0.46298-0.0976-0.90478-0.29297-1.3223v-2e-3c-0.18908-0.42328-0.4543-0.79611-0.79297-1.1152-0.33277-0.31972-0.72957-0.57308-1.1914-0.76172-0.4628-0.18904-0.96285-0.2832-1.4961-0.2832zm-51.279 0.07031c1.6786 0 3.1333 0.63935 4.373 1.9238 1.2389 1.2772 1.8574 2.8706 1.8574 4.7891 0 1.9766-0.62188 3.6113-1.8672 4.9141-1.2458 1.3033-2.7485 1.9512-4.5176 1.9512-1.7953 0-3.2945-0.63346-4.5078-1.9043-1.2127-1.2702-1.8184-2.9095-1.8184-4.9316 0-2.0658 0.70033-3.7459 2.1055-5.0488 1.2198-1.1304 2.6755-1.6934 4.375-1.6934zm35.572 0h0.26953l4.5391 10.85c0.18696 0.4513 0.35787 0.81655 0.51367 1.0957l2e-3 2e-3c0.16252 0.27304 0.32798 0.48965 0.5 0.64844h2e-3c0.17196 0.15212 0.3583 0.25827 0.55859 0.31836 0.19081 0.05539 0.41714 0.08664 0.66797 0.10156v0.26362h-5.0605v-0.26172c0.23558-0.0142 0.44378-0.04105 0.60937-0.08398 0.17663-0.04579 0.31615-0.1041 0.41992-0.17969l2e-3 -2e-3c0.10593-0.07334 0.18348-0.15959 0.22656-0.25781v-2e-3c0.0478-0.09624 0.0739-0.20355 0.0742-0.31836v-2e-3c7e-3 -0.15021-0.0286-0.33246-0.0996-0.55273v-2e-3c-0.0651-0.22742-0.16215-0.49541-0.29102-0.80469l-0.80469-1.9121h-5.1289l-0.90039 2.0938c-0.2199 0.50447-0.33203 0.88678-0.33203 1.1582 0 0.10822 0.01664 0.21104 0.05078 0.30664v2e-3l2e-3 2e-3c0.04366 0.0946 0.12431 0.18127 0.23828 0.26172h2e-3c0.11629 0.07525 0.27395 0.13716 0.47656 0.18945l2e-3 2e-3c0.19098 0.04312 0.44511 0.07424 0.74219 0.09961v0.26372h-4.0195v-0.27344c0.50974-0.09531 0.8707-0.21042 1.0469-0.37305 0.17308-0.15977 0.34429-0.39549 0.51953-0.70703 0.18137-0.3174 0.37573-0.71434 0.58203-1.1914zm15.707 0.0293c0.52141 0 1.0067 0.09144 1.457 0.27539 0.45134 0.18435 0.83894 0.43169 1.1621 0.74219v2e-3c0.32975 0.31072 0.58566 0.66991 0.76953 1.082v2e-3c0.18988 0.40514 0.28516 0.8317 0.28516 1.2812 0 0.65461-0.153 1.3082-0.45899 1.9648-0.46646 1.0288-1.2352 2.1292-2.3066 3.2969-0.80371 0.88087-1.4558 1.5844-1.957 2.1113-0.49483 0.52055-0.8422 0.87102-1.0391 1.0488l-0.0957 0.08789h3.5449c0.43161 0 0.7944-0.0099 1.0918-0.0293 0.29901-0.0195 0.55417-0.06598 0.76563-0.13867h2e-3c0.21107-0.07915 0.39393-0.18848 0.54688-0.32812 0.14649-0.14012 0.28799-0.3328 0.42578-0.56641h0.26172l-0.88282 2.418h-7.6308v-0.28516c1.1308-1.0356 2.0965-1.9702 2.8906-2.8027 0.79861-0.84369 1.4295-1.5984 1.8945-2.2637 0.9298-1.3172 1.3984-2.5259 1.3984-3.627 0-0.41728-0.0727-0.80451-0.2168-1.1582-0.13685-0.35749-0.32675-0.66492-0.56836-0.91992-0.236-0.25567-0.51492-0.45743-0.83593-0.60156-0.32135-0.14428-0.6596-0.2168-1.0137-0.2168-0.32654 0-0.64051 0.05032-0.9414 0.14844-0.29485 0.09173-0.57108 0.23219-0.82617 0.42188-0.24879 0.18986-0.47042 0.42473-0.66602 0.70508-0.18897 0.27087-0.34137 0.58936-0.46289 0.94336h-0.26177c0.0845-0.56682 0.22188-1.0753 0.42383-1.5098 0.21-0.45183 0.47418-0.83403 0.79101-1.1445 0.31684-0.31049 0.67998-0.54278 1.0918-0.70117 0.41176-0.15837 0.86507-0.23828 1.3613-0.23828zm-43.893 0.16992v0.45703h0.54297c0.48566 0 0.84206 0.13747 1.082 0.4082 0.07856 0.08698 0.14519 0.2567 0.18945 0.50781 0.04426 0.25111 0.06836 0.58244 0.06836 0.99219v8.4395c0 0.37471-0.01753 0.68166-0.05078 0.91602s-0.0852 0.39679-0.14453 0.48438c-0.23464 0.34579-0.60888 0.51758-1.1445 0.51758h-0.54297v0.45703h10.217l1.1465-3.6367-0.41406-0.08789-0.01563 0.03906c-0.17304 0.41016-0.34201 0.75795-0.50781 1.0449v2e-3c-0.15949 0.28709-0.32499 0.53158-0.49609 0.73438-0.16475 0.19643-0.33614 0.35352-0.51172 0.47266-0.17645 0.11974-0.36475 0.21388-0.56641 0.2832h-2e-3c-0.39951 0.14357-1.1014 0.2207-2.0957 0.2207h-0.95312c-0.4238 0-0.76076-0.0094-1.0098-0.02539-0.249-0.016-0.4144-0.04246-0.47656-0.06836h-2e-3c-0.09653-0.03619-0.17221-0.08487-0.23047-0.14258l-2e-3 -2e-3c-0.05845-0.06481-0.10632-0.14411-0.14258-0.24024v-2e-3c-0.03647-0.1038-0.06509-0.23418-0.08398-0.39062v-2e-3c-0.01262-0.15857-0.01953-0.35082-0.01953-0.57422v-8.2188c0-0.39118 0.01358-0.70793 0.03906-0.95117 0.02548-0.24324 0.06405-0.41219 0.10938-0.5 0.0557-0.09902 0.12272-0.18717 0.20312-0.26758 0.08454-0.08454 0.1983-0.15831 0.3418-0.2207 0.14888-0.06203 0.3379-0.11084 0.56641-0.14258 0.23466-0.03171 0.52671-0.04687 0.87891-0.04687h0.05078v-0.45703zm11.992 0v0.45703h0.51172c0.30035 0 0.58703 0.07392 0.86328 0.22461 0.11241 0.06245 0.1985 0.12812 0.25781 0.19336l2e-3 2e-3c0.0627 0.06271 0.11002 0.15299 0.14062 0.27539v2e-3c0.03681 0.11657 0.06349 0.27068 0.07617 0.46094 0.01274 0.19113 0.01953 0.442 0.01953 0.75v8.4492c0 0.39387-0.02063 0.7134-0.05859 0.95703-0.03796 0.24363-0.09669 0.41103-0.16406 0.49805v2e-3c-0.22684 0.30041-0.59968 0.45117-1.1367 0.45117h-0.51172v0.45703h5.7129v-0.45703h-0.52148c-0.30695 0-0.5938-0.0742-0.86328-0.22461-0.11223-0.06235-0.20128-0.12729-0.26758-0.19336-0.0644-0.07025-0.11556-0.162-0.15234-0.27734-0.03093-0.11754-0.05367-0.27205-0.06641-0.46289-0.01274-0.19113-0.01953-0.442-0.01953-0.75v-4.0586h2.332c0.3244 0 0.59006 0.03523 0.79492 0.10352h2e-3c0.21124 0.06213 0.37628 0.1627 0.49805 0.30273 0.12254 0.14092 0.2112 0.32331 0.26758 0.54883 0.05664 0.22656 0.08933 0.50288 0.0957 0.82812l2e-3 0.05078h0.45508v-4.5293h-0.45117l-0.0059 0.04492c-0.04475 0.35793-0.106 0.65003-0.18164 0.87695-0.07533 0.22598-0.17637 0.40294-0.30469 0.53125-0.12856 0.12856-0.28868 0.21613-0.48047 0.26562-0.18724 0.04993-0.41802 0.07617-0.69141 0.07617h-2.332v-5.041h2.834c0.42239 0 0.78674 0.02534 1.0918 0.07617 0.30237 0.0441 0.56314 0.14146 0.78125 0.29102 0.22402 0.14934 0.41135 0.36157 0.5625 0.63867 0.15773 0.27761 0.3018 0.65039 0.42969 1.1172l0.0098 0.03711h0.30078v-2.9746zm-11.891 0.09961h5.8223v0.25977c-0.32983 0.0016-0.61572 0.01606-0.84375 0.04687-0.23451 0.03257-0.432 0.08185-0.5918 0.14844-0.15232 0.06623-0.27752 0.14666-0.37305 0.24219-0.0868 0.0868-0.16065 0.1823-0.2207 0.28906v2e-3c-0.05757 0.11155-0.09504 0.28839-0.12109 0.53711-0.02605 0.24872-0.03906 0.56756-0.03906 0.96094v8.2188c0 0.22601 0.0065 0.42133 0.01953 0.58398v2e-3c0.01961 0.16335 0.04761 0.3019 0.08789 0.41602h2e-3c0.04049 0.10796 0.09501 0.20139 0.16406 0.27734l2e-3 2e-3c0.06954 0.06954 0.15856 0.12355 0.26562 0.16406 0.09217 0.0384 0.25521 0.05994 0.50781 0.07617 0.2526 0.01624 0.59251 0.02539 1.0176 0.02539h0.95312c0.99927 0 1.7072-0.07432 2.1309-0.22656 0.20889-0.07222 0.4068-0.17092 0.58975-0.29506 0.18455-0.12523 0.36159-0.28795 0.53125-0.49023 0.17616-0.20878 0.34381-0.45831 0.50586-0.75 0.16271-0.28161 0.32817-0.62506 0.49609-1.0195l0.22656 0.04687-1.0918 3.4629h-10.041v-0.25586h0.44141c0.55759 0 0.97441-0.18803 1.2285-0.5625 0.07572-0.11178 0.12588-0.28573 0.16016-0.52734 0.03428-0.24161 0.05078-0.55199 0.05078-0.92969v-8.4395c0-0.4134-0.0225-0.74962-0.06836-1.0098-0.04586-0.26014-0.11334-0.44427-0.21484-0.55664-0.26164-0.29518-0.65156-0.44141-1.1562-0.44141h-0.44141zm11.99 0h9.6328v2.7754h-0.12695c-0.12618-0.45105-0.26727-0.82454-0.42578-1.1035-0.15705-0.28793-0.35572-0.51262-0.59375-0.67188-0.23205-0.15912-0.50727-0.26265-0.82227-0.30859-0.31231-0.05204-0.68094-0.07813-1.1074-0.07813h-2.9336v5.2422h2.4316c0.27967 0 0.51819-0.02516 0.7168-0.07813 0.20693-0.0534 0.38386-0.15144 0.52539-0.29297 0.14178-0.14178 0.25106-0.33327 0.33008-0.57031 0.07475-0.22424 0.1312-0.51352 0.17578-0.85156h0.26758v4.3262h-0.26367c-0.0089-0.30654-0.03608-0.57792-0.0918-0.80078-0.05938-0.2375-0.15632-0.43494-0.29102-0.58984-0.13547-0.15579-0.31691-0.2675-0.54297-0.33398-0.21957-0.07319-0.49462-0.10742-0.82617-0.10742h-2.4316v4.1582c0 0.30936 0.0066 0.56114 0.01953 0.75586 0.01301 0.19501 0.03499 0.35559 0.06836 0.48242v2e-3h2e-3c0.04031 0.12766 0.09729 0.23486 0.17383 0.31836l2e-3 2e-3c0.07508 0.07508 0.17228 0.14497 0.29102 0.21094 0.28358 0.15828 0.58884 0.23828 0.91211 0.23828h0.42188v0.25577h-5.5137v-0.25586h0.41211c0.55621 0 0.96776-0.16238 1.2168-0.49219 0.08697-0.11234 0.14438-0.29329 0.18359-0.54492 0.03921-0.25163 0.05859-0.57553 0.05859-0.97266v-8.4492c0-0.30936-0.0066-0.56114-0.01953-0.75586-0.01304-0.1956-0.03973-0.35658-0.08008-0.48438-0.03377-0.13347-0.08782-0.24016-0.16602-0.31836-0.06923-0.07585-0.16267-0.14506-0.28125-0.21094-0.28966-0.158-0.5951-0.23828-0.91211-0.23828h-0.41211zm-19.662 0.30469c-0.66949 0-1.2666 0.14431-1.7891 0.43164-0.52172 0.28695-0.96267 0.69726-1.3203 1.2305-0.3511 0.52664-0.61904 1.1676-0.80664 1.918-0.18117 0.75056-0.27148 1.5902-0.27148 2.5195 0 0.92288 0.0904 1.7695 0.27148 2.5391 0.18109 0.76962 0.44615 1.4336 0.79688 1.9922 0.35737 0.5523 0.79705 0.98604 1.3184 1.2988 0.52272 0.3071 1.1279 0.46094 1.8105 0.46094 0.61088 0 1.1781-0.11704 1.6992-0.35156 0.52856-0.23492 0.98526-0.59795 1.3691-1.0859 0.38426-0.49498 0.68292-1.1217 0.89648-1.8789 0.22038-0.75836 0.33008-1.6598 0.33008-2.7051 0-0.99978-0.09036-1.8911-0.27148-2.6738-0.17469-0.78933-0.44433-1.4575-0.80859-2.0039-0.35754-0.54606-0.80687-0.96304-1.3477-1.25h-2e-3c-0.53525-0.29334-1.1615-0.44141-1.875-0.44141zm0 0.10156c0.70058 0 1.3091 0.14288 1.8281 0.42774h2e-3c0.52617 0.27893 0.96293 0.68291 1.3125 1.2168v2e-3c0.35599 0.53398 0.62039 1.1909 0.79297 1.9707 0.179 0.77355 0.26953 1.6566 0.26953 2.6504 0 1.0383-0.10925 1.9313-0.32617 2.6777-0.21087 0.74762-0.50432 1.3612-0.87891 1.8438-0.37495 0.47664-0.8188 0.82854-1.332 1.0566-0.50778 0.2285-1.0601 0.34375-1.6582 0.34375-0.66709 0-1.252-0.15048-1.7578-0.44726h-2e-3c-0.50712-0.30458-0.9354-0.7271-1.2852-1.2676-0.34337-0.54726-0.60432-1.2007-0.7832-1.9609-0.17904-0.76093-0.26953-1.5993-0.26953-2.5156 0-0.9228 0.09057-1.7547 0.26953-2.4961 0.18539-0.74156 0.44953-1.3696 0.79297-1.8848 0.34976-0.52145 0.77794-0.92025 1.2852-1.1992 0.50652-0.27859 1.085-0.41797 1.7402-0.41797zm35.365 2.1172-0.0469 0.10742-2.3066 5.3574h4.6465zm-2e-3 0.25586 2.1445 5.1074h-4.3438z" color="#000000"/>
  </g>
  <g stroke="#000">
   <g transform="matrix(-.98956 -.0058466 .0054504 -1.0105 -.7646 .44602)" fill="#fff" stroke-width=".2" aria-label="OLFA 2">
    <g fill="#fff" stroke="#000" stroke-width=".2">
     <path d="m-121.65-55.851q2.5637 0 4.4548 1.9593 1.8911 1.9496 1.8911 4.8739 0 3.0121-1.9008 5.0006-1.9008 1.9886-4.601 1.9886-2.7391 0-4.5912-1.9398-1.8521-1.9398-1.8521-5.0201 0-3.1485 2.1445-5.1371 1.8618-1.7254 4.4547-1.7254zm-0.18521 0.71159q-1.004 0-1.7838 0.4289-0.77982 0.4289-1.316 1.2282-0.52638 0.78957-0.80907 1.9203-0.27293 1.1307-0.27293 2.5344 0 1.3939 0.27293 2.5539 0.27294 1.16 0.79932 1.9983 0.53613 0.82856 1.316 1.2965 0.77982 0.45815 1.8033 0.45815 0.91629 0 1.6961-0.35092 0.78957-0.35092 1.3647-1.082 0.57512-0.74083 0.8968-1.8813 0.33142-1.1405 0.33142-2.7196 0-1.5109-0.27293-2.6904-0.2632-1.1892-0.80907-2.008-0.53613-0.81882-1.3452-1.2477-0.79932-0.43865-1.8716-0.43865z" color="#000000"/>
     <path d="m-121.65-55.9c-1.7398 0-3.2385 0.58009-4.4883 1.7383-1.4394 1.3347-2.1621 3.0633-2.1621 5.1738 0 2.0637 0.62324 3.7518 1.8672 5.0547 1.2433 1.3022 2.7889 1.9551 4.627 1.9551 1.8125 0 3.3612-0.66957 4.6367-2.0039 1.276-1.3349 1.916-3.0165 1.916-5.0352 0-1.9604-0.63675-3.5994-1.9062-4.9082-1.2686-1.3144-2.7682-1.9746-4.4902-1.9746zm0 0.09961c1.6962 0 3.1652 0.64732 4.418 1.9453 1.2519 1.2906 1.877 2.8992 1.877 4.8379 0 1.9974-0.62831 3.6503-1.8867 4.9668-1.259 1.3171-2.7768 1.9727-4.5644 1.9727-1.8142 0-3.3286-0.64157-4.5547-1.9258-1.2255-1.2835-1.8379-2.941-1.8379-4.9844 0-2.0876 0.70897-3.783 2.1289-5.0996 1.2326-1.1423 2.7025-1.7129 4.4199-1.7129zm-0.18555 0.61133c-0.67654 0-1.2807 0.1452-1.8086 0.43555-0.5272 0.28997-0.97062 0.70532-1.332 1.2441h-2e-3c-0.35478 0.53217-0.62487 1.1772-0.81445 1.9355-0.18307 0.75846-0.27539 1.6078-0.27539 2.5469 0 0.93259 0.0924 1.7887 0.27539 2.5664 0.18299 0.77773 0.45028 1.4492 0.80468 2.0137 0.36114 0.55811 0.80525 0.99643 1.332 1.3125h2e-3c0.5282 0.31032 1.1382 0.46484 1.8281 0.46484 0.61731 0 1.1902-0.11848 1.7168-0.35547 0.53412-0.23739 0.99684-0.60257 1.3848-1.0957v-2e-3c0.38799-0.49978 0.68852-1.1322 0.90429-1.8965v-2e-3c0.22238-0.76599 0.33399-1.6769 0.33399-2.7324 0-1.0103-0.0904-1.9102-0.27344-2.7012-0.17653-0.79763-0.44831-1.4732-0.81641-2.0254-0.3613-0.55181-0.81678-0.97369-1.3633-1.2637h-2e-3c-0.54088-0.29644-1.1735-0.44531-1.8945-0.44531zm0 0.10156c0.70795 0 1.3231 0.14379 1.8476 0.43164 0.53171 0.28187 0.97292 0.69095 1.3262 1.2305h2e-3v2e-3c0.35973 0.5396 0.62638 1.2022 0.80078 1.9902 0.18089 0.78171 0.27149 1.6755 0.27149 2.6797 0 1.0492-0.10893 1.9508-0.32813 2.7051-0.21309 0.75551-0.51016 1.3777-0.88867 1.8652-0.3789 0.48165-0.82706 0.8359-1.3457 1.0664-0.51314 0.23091-1.0714 0.3457-1.6758 0.3457-0.6748 0-1.2658-0.15063-1.7773-0.45117-0.51298-0.30779-0.94512-0.73266-1.2988-1.2793-0.34743-0.55332-0.61204-1.2135-0.79297-1.9824-0.18092-0.76893-0.27148-1.617-0.27148-2.543 0-0.93251 0.0906-1.7723 0.27148-2.5215 0.18735-0.74936 0.45568-1.3837 0.80274-1.9043 0.35343-0.52694 0.78432-0.93099 1.2969-1.2129 0.51187-0.28152 1.0976-0.42188 1.7598-0.42188z" color="#000000"/>
     <path d="m-103.09-45.986 0.32167 0.06823-1.1307 3.5872h-10.235v-0.36067h0.49713q0.82857 0 1.199-0.54588 0.20471-0.30218 0.20471-1.4427v-8.5293q0-1.2477-0.27294-1.5499-0.38016-0.4289-1.1308-0.4289h-0.49713v-0.36067h5.9852v0.36067q-0.53613 0-0.8968 0.04874-0.35092 0.04874-0.58487 0.14622-0.2242 0.09748-0.36067 0.23395-0.12672 0.12672-0.21445 0.28269-0.15596 0.30218-0.15596 1.4914v8.3051q0 0.34117 0.0195 0.58487 0.0293 0.2437 0.0877 0.40941 0.0585 0.15596 0.15597 0.26319 0.0975 0.09748 0.25344 0.15596 0.23395 0.09748 1.5207 0.09748h0.96503q1.5109 0 2.1348-0.2242 0.31193-0.10723 0.58487-0.29243 0.27293-0.18521 0.52638-0.48739 0.26319-0.31193 0.50688-0.75058 0.25345-0.43865 0.51664-1.0625z" color="#000000"/>
     <path d="m-114.18-55.6v0.46289h0.54687c0.49077 0 0.85126 0.13853 1.0938 0.41211 0.0794 0.08789 0.14868 0.25992 0.19336 0.51367 0.0447 0.25376 0.0664 0.58789 0.0664 1.002v8.5293c0 0.37865-0.0172 0.68705-0.0508 0.92383-0.0336 0.23678-0.0846 0.40172-0.14453 0.49023-0.23711 0.34943-0.61692 0.52344-1.1582 0.52344h-0.54687v0.46289h10.322l1.1602-3.6758-0.37891-0.08008-4e-3 -2e-3 -0.0371-2e-3 -0.0137 0.0332c-0.17485 0.41446-0.34611 0.76663-0.51367 1.0566l-2e-3 2e-3c-0.16118 0.29013-0.32711 0.53728-0.5 0.74219-0.16649 0.19851-0.34017 0.35813-0.51758 0.47852-0.1783 0.12099-0.36848 0.21511-0.57226 0.28516-0.40369 0.14508-1.1124 0.22266-2.1172 0.22266h-0.9668c-0.42826 0-0.7679-0.0093-1.0195-0.02539-0.25162-0.01613-0.41766-0.04219-0.48047-0.06836h-2e-3v-2e-3c-0.098-0.03674-0.17546-0.08403-0.23437-0.14258-0.0602-0.06618-0.10939-0.14719-0.14649-0.24609h2e-3c-0.037-0.10516-0.0667-0.23762-0.0859-0.39648v-2e-3c-0.0128-0.16028-0.0195-0.3524-0.0195-0.57812v-8.3047c0-0.39531 0.0133-0.71708 0.0391-0.96289 0.0256-0.2449 0.0658-0.4149 0.11133-0.50391v-2e-3c0.0561-0.09947 0.12417-0.18863 0.20507-0.26953 0.0855-0.08545 0.20071-0.16157 0.34571-0.22461v2e-3c0.15045-0.06269 0.34135-0.11246 0.57226-0.14453 0.23716-0.03205 0.53279-0.04687 0.88868-0.04687h0.0508v-0.46289zm0.10156 0.10156h5.8828v0.26172c-0.3326 0.0017-0.62152 0.01579-0.85156 0.04687-0.23698 0.03291-0.43617 0.08311-0.59765 0.15039h-2e-3c-0.15393 0.06693-0.27849 0.14763-0.375 0.24414-0.0877 0.08769-0.16194 0.18698-0.22265 0.29492h-2e-3c-0.0582 0.11273-0.0948 0.29164-0.12109 0.54297-0.0263 0.25133-0.0391 0.57514-0.0391 0.97266v8.3047c0 0.22841 6e-3 0.42551 0.0195 0.58984v2e-3c0.0198 0.16507 0.0492 0.30462 0.0898 0.41992 0.0409 0.10905 0.0962 0.20251 0.16602 0.2793v2e-3h2e-3c0.0706 0.07057 0.16093 0.12702 0.26953 0.16797 0.0932 0.03882 0.25841 0.05981 0.51367 0.07617s0.59585 0.02344 1.0254 0.02344h0.9668c1.0098 0 1.7223-0.07271 2.1504-0.22656 0.21213-0.07292 0.41205-0.17288 0.59766-0.29883 0.1865-0.12656 0.36372-0.29169 0.53515-0.49609 0.17804-0.211 0.34994-0.46307 0.51368-0.75781h-2e-3c0.16411-0.28402 0.33062-0.63164 0.5-1.0293l0.23047 0.04687-1.1035 3.5h-10.146v-0.25977h0.44531c0.56348 0 0.98542-0.18996 1.2422-0.56836 0.0765-0.11295 0.12747-0.28909 0.16211-0.5332 0.0346-0.24411 0.0508-0.55582 0.0508-0.9375v-8.5293c0-0.41775-0.0221-0.75665-0.0684-1.0195s-0.11422-0.45089-0.21679-0.56445c-0.26439-0.29829-0.65991-0.44531-1.1699-0.44531h-0.44531z" color="#000000"/>
     <path d="m-98.252-54.827v5.1956h2.4077q0.41916 0 0.71159-0.07798 0.30218-0.07798 0.50689-0.28269 0.2047-0.2047 0.32168-0.55562t0.18521-0.8968h0.36067v4.4742h-0.36067q-0.0097-0.49714-0.09748-0.84806-0.08773-0.35092-0.28269-0.57512-0.19496-0.2242-0.52638-0.32168-0.32168-0.10723-0.81882-0.10723h-2.4077v4.1526q0 0.46789 0.0195 0.76033 0.01949 0.29243 0.06823 0.47764 0.05849 0.18521 0.16571 0.30218 0.10723 0.10723 0.28269 0.2047 0.41916 0.23395 0.8968 0.23395h0.47764v0.36067h-5.6732v-0.36067h0.4679q0.82856 0 1.1892-0.47764 0.23395-0.30218 0.23395-1.5012v-8.5391q0-0.4679-0.0195-0.76033t-0.078-0.47764q-0.0487-0.19496-0.15596-0.30218-0.0975-0.10723-0.27294-0.2047-0.42891-0.23395-0.8968-0.23395h-0.4679v-0.36067h9.8355v2.9048h-0.21445q-0.19496-0.71159-0.43865-1.1405-0.23395-0.4289-0.58487-0.66285-0.34117-0.23395-0.80907-0.30218-0.46789-0.07798-1.1112-0.07798z" color="#000000"/>
     <path d="m-102.06-55.6v0.46289h0.51757c0.30351 0 0.59389 0.0743 0.87305 0.22656 0.11356 0.0631 0.19979 0.12935 0.25977 0.19531l2e-3 2e-3c0.0634 0.06336 0.1117 0.15372 0.14258 0.27734v4e-3c0.0372 0.11773 0.0633 0.27253 0.0762 0.46484 0.0129 0.19317 0.0195 0.44658 0.0195 0.75781v8.5391c0 0.39802-0.0202 0.72065-0.0586 0.9668s-0.096 0.41597-0.16406 0.50391h-2e-3c-0.22923 0.30358-0.60577 0.45703-1.1484 0.45703h-0.51757v0.46289h5.7734v-0.46289h-0.52734c-0.31018 0-0.60074-0.07458-0.87305-0.22656-0.11392-0.06329-0.20433-0.13011-0.27148-0.19727-0.06449-0.07095-0.11545-0.16322-0.15234-0.2793v-2e-3c-0.03105-0.11857-0.05361-0.27276-0.06641-0.46484-0.01288-0.19317-0.01953-0.44659-0.01953-0.75781v-4.1016h2.3574c0.32779 0 0.59569 0.0345 0.80273 0.10352l2e-3 2e-3c0.21346 0.06278 0.37891 0.16318 0.50195 0.30469 0.12387 0.14245 0.21452 0.32683 0.27148 0.55469 0.05726 0.22892 0.08929 0.50921 0.0957 0.83789l2e-3 0.04883h0.46094v-4.5762h-0.45703l-0.0039 0.04492c-0.04521 0.36171-0.10716 0.65743-0.18359 0.88672-0.07612 0.22836-0.18088 0.40744-0.31055 0.53711-0.12995 0.12995-0.28865 0.21953-0.48242 0.26953h-2e-3c-0.18915 0.05044-0.42096 0.07617-0.69727 0.07617h-2.3574v-5.0957h2.8633c0.42686 0 0.79529 0.02676 1.1035 0.07813h2e-3c0.30551 0.04455 0.56666 0.1418 0.78711 0.29297v2e-3c0.2264 0.15093 0.41563 0.36453 0.56836 0.64453 0.15939 0.28053 0.30631 0.65719 0.43555 1.1289l0.0098 0.03711h0.30274v-3.0059zm0.0996 0.10156h9.7344v2.8047h-0.12891c-0.12754-0.456-0.26946-0.83323-0.42969-1.1152h2e-3c-0.1592-0.29187-0.36007-0.51869-0.60156-0.67969-0.23396-0.16043-0.5106-0.26398-0.82812-0.31055h-2e-3c-0.31528-0.05242-0.68894-0.07813-1.1191-0.07813h-2.9648v5.2969h2.459c0.28257 0 0.52385-0.02654 0.72461-0.08008 0.20914-0.05397 0.38631-0.15388 0.5293-0.29688 0.14327-0.14328 0.25414-0.33468 0.33398-0.57422 0.07575-0.22725 0.13266-0.52042 0.17773-0.86328h0.26953v4.373h-0.26562c-9e-3 -0.30909-0.0375-0.58374-0.09375-0.80859-0.06001-0.24003-0.1569-0.43922-0.29297-0.5957-0.13654-0.15702-0.3212-0.27064-0.54883-0.33789h-2e-3c-0.22161-0.07361-0.49774-0.10938-0.83203-0.10938h-2.459v4.2031c0 0.31263 0.0064 0.56693 0.01953 0.76367 0.01313 0.19704 0.03657 0.35813 0.07031 0.48633v4e-3c0.04074 0.12902 0.10037 0.23591 0.17774 0.32031l2e-3 2e-3c0.07581 0.07581 0.17294 0.14621 0.29297 0.21289 0.28657 0.15994 0.5952 0.24023 0.92188 0.24023h0.42578v0.25977h-5.5723v-0.25977h0.41796c0.56132 0 0.97676-0.16568 1.2285-0.49805 0.0879-0.11352 0.14593-0.29459 0.18555-0.54883 0.0396-0.25424 0.0605-0.58112 0.0605-0.98242v-8.5391c0-0.31263-6e-3 -0.56693-0.0195-0.76367-0.0131-0.19606-0.0398-0.3576-0.0801-0.48633-0.0338-0.13534-0.0892-0.24476-0.16796-0.32422l-2e-3 -2e-3c-0.0699-0.07632-0.16376-0.14653-0.2832-0.21289-0.29272-0.15966-0.60153-0.24023-0.92188-0.24023h-0.41796z" color="#000000"/>
     <path d="m-83.581-46.756h-5.1176l-0.8968 2.086q-0.33142 0.76033-0.33142 1.1502 0 0.15596 0.04874 0.29243 0.05849 0.12672 0.2242 0.2437 0.16571 0.10723 0.4679 0.18521 0.30218 0.06823 0.78957 0.10722v0.36067h-4.1623v-0.36067q0.81882-0.14622 1.0723-0.38016t0.51663-0.70184q0.27294-0.47764 0.58487-1.199l4.6497-10.879h0.34117l4.601 10.996q0.28269 0.68235 0.51663 1.1015 0.2437 0.40941 0.49714 0.64336 0.25344 0.2242 0.54588 0.31193 0.30218 0.08773 0.71159 0.10722v0.36067h-5.2151v-0.36067q0.38991-0.01949 0.6531-0.08773 0.26319-0.06823 0.40941-0.17546 0.15596-0.10723 0.21445-0.2437 0.06824-0.13647 0.06824-0.30218 0.0097-0.21445-0.09748-0.54588-0.09748-0.34117-0.29243-0.80907zm-0.27294-0.72134-2.242-5.3418-2.3005 5.3418z" color="#000000"/>
     <path d="m-85.77-55.9-4.6621 10.908c-0.20743 0.47969-0.4014 0.87724-0.58203 1.1934-0.17383 0.30903-0.34478 0.54092-0.50781 0.69141-0.15289 0.14113-0.5047 0.27037-1.0469 0.36719l-0.04102 0.0059v0.45508h4.2637v-0.45898l-0.04687-0.0039c-0.32263-0.02581-0.58364-0.06097-0.78125-0.10547h-2e-3c-0.19637-0.05083-0.34623-0.11137-0.44922-0.17774-0.10428-0.07361-0.17076-0.14633-0.20508-0.21875v-2e-3c-0.03003-0.08474-0.04687-0.1754-0.04687-0.27344 0-0.24563 0.10844-0.62688 0.32812-1.1309l0.88281-2.0547h5.0508l0.78711 1.8691c0.12944 0.31066 0.22484 0.57993 0.28906 0.80469h2e-3c0.07033 0.21749 0.09978 0.39589 0.09375 0.5293v2e-3c0 0.10354-0.02067 0.19563-0.0625 0.2793v2e-3h-2e-3c-0.03447 0.08044-0.09715 0.15517-0.19531 0.22266h-2e-3v2e-3c-0.08994 0.06596-0.22114 0.12157-0.39258 0.16602-0.17072 0.04427-0.38501 0.07306-0.64258 0.08594l-0.04687 0.0039v0.45898h5.3145v-0.46094l-0.04687-2e-3c-0.2692-0.01282-0.503-0.04868-0.69922-0.10547h-2e-3c-0.18687-0.05632-0.36166-0.15594-0.52539-0.30078-0.16322-0.15089-0.32648-0.3608-0.48633-0.62891l-2e-3 -2e-3c-0.15424-0.2766-0.32415-0.64295-0.51172-1.0957l-4.6152-11.025zm0.06641 0.09961h0.27539l4.5879 10.965c0.18894 0.45607 0.3621 0.82536 0.51953 1.1074 0.16424 0.27592 0.33203 0.4958 0.50586 0.65625h2e-3c0.17374 0.15369 0.362 0.26153 0.56445 0.32227 0.19294 0.05602 0.42203 0.08648 0.67578 0.10156v0.26758h-5.1153v-0.26562c0.23831-0.01434 0.44778-0.04057 0.61523-0.08398 0.1785-0.04627 0.32094-0.10524 0.42578-0.18164l2e-3 -2e-3c0.1076-0.0745 0.18514-0.16198 0.22852-0.26172 0.04887-0.09773 0.07394-0.20562 0.07422-0.32227v-0.001911c0.0066-0.15174-0.02778-0.33789-0.09961-0.56055v-2e-3c-0.06575-0.22982-0.1647-0.49997-0.29492-0.8125l-0.8125-1.9316h-5.1836l-0.91016 2.1172c-0.22221 0.50978-0.33594 0.89566-0.33594 1.1699 0 0.10924 0.01819 0.21187 0.05273 0.30859v2e-3l2e-3 2e-3c0.04412 0.0956 0.12503 0.1843 0.24023 0.26562h2e-3c0.11755 0.07606 0.27771 0.13858 0.48242 0.19141h2e-3c0.19308 0.0436 0.44951 0.07785 0.75 0.10352v0.26562h-4.0605v-0.27539c0.51398-0.09626 0.87691-0.21285 1.0547-0.37695 0.17489-0.16144 0.35025-0.40001 0.52734-0.71484 0.18328-0.32074 0.37747-0.72104 0.58594-1.2031zm-0.39258 2.8535-2.377 5.5215h4.6934l-0.0293-0.07031zm-2e-3 0.25586 2.168 5.1641h-4.3906z" color="#000000"/>
     <path d="m-65.256-44.875-0.92604 2.5442h-7.7982v-0.36067q1.7254-1.5791 2.9341-2.8464 1.2087-1.277 1.9106-2.281 1.4037-1.9886 1.4037-3.6359 0-0.62386-0.21445-1.1502-0.2047-0.53613-0.56537-0.91629-0.35092-0.38016-0.82856-0.59462-0.47764-0.21445-1.004-0.21445-0.48739 0-0.93579 0.14622-0.43865 0.13647-0.81882 0.41916-0.37042 0.28269-0.66285 0.70184-0.29243 0.41916-0.47764 0.97478h-0.36067q0.12672-0.90655 0.4484-1.5986 0.32168-0.69209 0.80907-1.1697t1.121-0.72134 1.3939-0.2437q0.79932 0 1.4914 0.28269t1.1892 0.76033q0.50688 0.47764 0.78957 1.1112 0.29243 0.62386 0.29243 1.316 0 1.004-0.4679 2.008-0.71159 1.5694-2.3395 3.3435-1.2185 1.3354-1.9788 2.1348-0.75058 0.78957-1.0528 1.0625h3.4507q0.6531 0 1.1015-0.02924t0.76033-0.13647q0.31193-0.11697 0.53613-0.32168 0.2242-0.21445 0.43865-0.58487z" color="#000000"/>
     <path d="m-69.828-55.871c-0.51228 0-0.98338 0.0812-1.4121 0.24609-0.42868 0.16488-0.80704 0.40934-1.1367 0.73242-0.32967 0.32308-0.60362 0.71934-0.82031 1.1855-0.21694 0.46674-0.36808 1.0029-0.45312 1.6113l-0.0078 0.05859h0.45508l0.01172-0.03516c0.12215-0.36646 0.27888-0.68599 0.4707-0.96094 0.19228-0.2756 0.40988-0.50637 0.65234-0.69141 0.2491-0.18523 0.5158-0.32089 0.80273-0.41016h2e-3c0.2938-0.0958 0.60005-0.14453 0.91992-0.14453 0.34406 0 0.67032 0.06886 0.98242 0.20898 0.31247 0.14029 0.58309 0.33546 0.8125 0.58398 0.23557 0.2483 0.42228 0.54849 0.55664 0.90039 0.14034 0.34446 0.21094 0.72074 0.21094 1.1309 0 1.0839-0.46253 2.2871-1.3945 3.6074-0.46585 0.66643-1.1016 1.4253-1.9062 2.2754-0.80477 0.84371-1.782 1.7916-2.9316 2.8438l-0.01758 0.01563v0.43359h7.8848l0.96289-2.6465h-0.46094l-0.01563 0.02539c-0.14126 0.244-0.28491 0.43573-0.42969 0.57422-0.14439 0.13183-0.31692 0.23457-0.51953 0.31055-0.20197 0.06923-0.45115 0.11358-0.74609 0.13281-0.29734 0.01939-0.66301 0.0293-1.0977 0.0293h-3.3281c0.20943-0.19484 0.50761-0.49352 0.9668-0.97656 0.50728-0.5333 1.168-1.2443 1.9805-2.1348 1.0878-1.1855 1.8702-2.3045 2.3477-3.3574 0.31465-0.67519 0.47266-1.3521 0.47266-2.0293 0-0.46786-0.09942-0.91405-0.29688-1.3359v-2e-3c-0.19107-0.42774-0.45855-0.80251-0.80078-1.125-0.33628-0.32309-0.73838-0.58086-1.2051-0.77148-0.4677-0.19103-0.97288-0.28516-1.5117-0.28516zm0 0.09961c0.52692 0 1.0176 0.09341 1.4727 0.2793 0.45609 0.18629 0.84726 0.43624 1.1738 0.75 0.33322 0.314 0.59349 0.67925 0.7793 1.0957 0.19191 0.4094 0.28711 0.84064 0.28711 1.2949 0 0.6615-0.15368 1.3228-0.46289 1.9863v2e-3c-0.47137 1.0396-1.2493 2.1501-2.332 3.3301-0.81217 0.89014-1.4701 1.6003-1.9766 2.1328-0.50006 0.52603-0.85187 0.88088-1.0508 1.0605l-0.09766 0.08789h3.582c0.43616 0 0.80495-0.0097 1.1055-0.0293 0.30218-0.01971 0.55978-0.06522 0.77344-0.13867 0.2133-0.07999 0.39819-0.19093 0.55274-0.33203h2e-3v-2e-3c0.14752-0.14111 0.28895-0.33538 0.42773-0.57031h0.26367l-0.88867 2.4434h-7.7129v-0.28906c1.1428-1.0465 2.1174-1.9907 2.9199-2.832 0.80701-0.85256 1.4461-1.6148 1.916-2.2871 0.93958-1.3311 1.4121-2.5534 1.4121-3.666 0-0.4217-0.0712-0.81059-0.2168-1.168-0.13837-0.36239-0.33138-0.67329-0.57617-0.93164-0.23848-0.25836-0.51936-0.46178-0.84375-0.60742-0.32476-0.14581-0.66761-0.21875-1.0254-0.21875-0.32998 0-0.64711 0.04929-0.95117 0.14844-0.29793 0.09269-0.5762 0.23605-0.83398 0.42774-0.25142 0.19187-0.47619 0.42961-0.67383 0.71289-0.19101 0.27378-0.34395 0.59522-0.4668 0.95312h-0.26367c0.08539-0.57307 0.22357-1.0881 0.42773-1.5273 0.21221-0.45658 0.47865-0.84052 0.79883-1.1543 0.32018-0.31377 0.68738-0.55089 1.1035-0.71094 0.41608-0.16003 0.87351-0.24023 1.375-0.24023z" color="#000000"/>
    </g>
   </g>
   <path d="m57.301 43.458 73.335 0.08351-0.13471 0.29432-73.408 0.09927z" fill="#c0cb00" stroke-linecap="round" stroke-miterlimit="12.3" stroke-width=".1"/>
   <path transform="matrix(1 0 -.3937 .91924 0 0)" d="m76.248 32.451-1.0374 0.01592 1.0374 30.312h73.217v-30.328zm-0.63453 0.41388 72.806 0.66312 0.63798 28.873-71.958-0.44922z" color="#000000" fill="#cad500" stroke-width=".4172"/>
  </g>
 </g>
</svg>
