<?xml version="1.0" encoding="UTF-8" standalone="no"?>
<!-- Created with Inkscape (http://www.inkscape.org/) -->

<svg
   width="1920"
   height="1080"
   version="1.1"
   viewBox="0 0 508 285.75"
   id="svg44"
   sodipodi:docname="Piuma-model-dmd.svg"
   inkscape:version="1.3 (0e150ed6c4, 2023-07-21)"
   xmlns:inkscape="http://www.inkscape.org/namespaces/inkscape"
   xmlns:sodipodi="http://sodipodi.sourceforge.net/DTD/sodipodi-0.dtd"
   xmlns="http://www.w3.org/2000/svg"
   xmlns:svg="http://www.w3.org/2000/svg">
  <defs
     id="defs44">
    <filter
       inkscape:collect="always"
       style="color-interpolation-filters:sRGB"
       id="filter44"
       x="-0.00082387801"
       y="-0.0019224511"
       width="1.0016478"
       height="1.0038853">
      <feGaussianBlur
         inkscape:collect="always"
         stdDeviation="0.15750302"
         id="feGaussianBlur44" />
    </filter>
  </defs>
  <sodipodi:namedview
     id="namedview44"
     pagecolor="#ffffff"
     bordercolor="#000000"
     borderopacity="0.25"
     inkscape:showpageshadow="2"
     inkscape:pageopacity="0.0"
     inkscape:pagecheckerboard="0"
     inkscape:deskcolor="#d1d1d1"
     inkscape:zoom="0.51197917"
     inkscape:cx="960"
     inkscape:cy="539.08444"
     inkscape:window-width="1920"
     inkscape:window-height="1007"
     inkscape:window-x="-9"
     inkscape:window-y="-9"
     inkscape:window-maximized="1"
     inkscape:current-layer="svg44" />
  <g
     stroke="#000"
     id="g44"
     style="filter:url(#filter44);opacity:0.3">
    <g
       class="UnoptimicedTransforms"
       transform="matrix(.72883 .72883 -.77828 .77828 57.206 -155.23)"
       id="g6">
      <g
         stroke="#000"
         id="g5">
        <g
           transform="translate(480.47 311.02)"
           opacity=".80046"
           stroke="#000"
           stroke-linecap="round"
           stroke-miterlimit="12.3"
           stroke-width=".052917"
           id="g4">
          <path
             d="m-320.05-197.91c-3.6709 1.6033-7.0766 3.5366-10.211 5.9151 2.895 1.0962 5.8737 1.8491 8.8215 2.2955-3.5119 0.075-7.2722 0.0126-11.102-0.4431-3.1747 2.7634-5.9733 6.0161-8.318 9.7773 5.5144 2.464 11.672 3.4236 17.597 3.2065-6.0795 0.52252-12.845 0.91692-19.274-0.28179-2.6015 4.9544-4.454 10.662-5.2991 16.941 0.66024 0.559 1.3486 1.093 2.0665 1.5943 5.7375 3.9626 12.79 5.9441 19.772 6.1483 1.8334 0.0551 3.652-5e-3 5.4396-0.16316-2.0383 0.57059-4.1438 1.0265-6.298 1.3349-6.0685 0.86523-12.404 0.48786-18.281-1.5022-1.0886-0.3638-2.1525-0.7931-3.1881-1.2759-0.17177 6.4156 0.69675 13.242 2.8138 20.199 1.4002 0.77085 2.8816 1.4466 4.4205 2.0124 0.22494 0.0826 0.451 0.16276 0.67811 0.24047 8.8914 3.0131 18.6 2.4101 27.189-0.18524-7.7531 2.7606-16.597 5.1885-25.63 4.2957-1.5878-0.15249-3.1666-0.42476-4.7148-0.81214 4.9703 12.365 13.73 23.906 25.351 32.954 2.5946 0.37014 5.2246 0.53753 7.8588 0.51783 8.9156-0.12664 17.347-2.3477 24.853-5.6003-7.3288 4.7858-16.064 8.6329-25.913 9.8778 18.744 11.819 38.444 15.367 50.464 13.601 3.8687-0.56688 6.9027-1.645 8.9204-3.1514 1.2626-4.8344-3.5567-12.652-10.744-22.496-0.53233-0.72704-1.0768-1.4652-1.6317-2.214-1.2987 5.5005-3.4787 10.993-6.2252 16.269 2.0136-7.0045 3.2199-14.047 3.0494-20.53-6.7306-9.0169-13.879-18.678-19.862-29.241-0.12399 0.70665-0.2571 1.4156-0.40762 2.1198-1.9177 9.1246-5.6872 17.697-10.954 25.65 4.2257-9.8637 6.8308-19.883 7.6016-30.001 0.11096-1.517 0.1719-3.0199 0.19277-4.4862-1.3819-2.8023-2.6142-5.5803-3.6822-8.3329-2.8424-7.3404-4.5705-13.981-5.831-19.932-0.80059 1.4485-1.6541 2.8844-2.5606 4.2791-4.942 7.6289-10.555 13.368-17.255 19.534 6.8977-6.8476 12.38-14.321 16.892-22.587 0.80569-1.4812 1.5648-2.9672 2.2721-4.4264-0.57465-2.9314-1.036-5.5355-1.5179-7.76-0.47811-1.8228-1.0204-3.471-1.7251-4.944-6.3826 5.2152-11.705 7.8745-18.841 12.353 6.4019-4.323 12.159-9.1263 17.564-14.554-0.65118-0.9232-1.4108-1.7478-2.3097-2.4744-4.8446 2.8612-9.0464 4.8063-14.312 7.5582 4.5025-2.5399 8.8017-5.3535 12.974-8.5072-2.538-1.5556-6.0021-2.5022-10.705-2.7734z"
             opacity=".5"
             id="path1" />
          <path
             d="m-319.92-196.78c-2.6022 12.067-3.8363 24.972-1.6897 38.028 1.996 13.077 7.8472 26.844 17.778 39.2h1e-5c10.448 13.003 25.288 24.342 42.207 32.941 19.216 9.8439 41.017 16.805 62.87 21.372-0.63153 1.6987 0.2456 2.1086 1.4014 2.2803-0.55457 1.2714-1.6682 1.4273-2.9239 1.2767-21.232-4.7625-42.356-11.776-61.1-21.453v-3e-6c-17.262-8.8348-32.428-20.487-43.145-33.832l-1e-5 -1e-5c-10.192-12.693-16.179-26.825-18.213-40.247-2.2044-13.587-0.81503-26.956 2.0159-39.398 0.58581-2.5903 0.93515-0.80848 0.80039-0.1679z"
             opacity="1"
             id="path2" />
          <path
             d="m-320.05-197.91c-3.6709 1.6033-7.0766 3.5366-10.211 5.9151 2.895 1.0962 5.8737 1.8491 8.8215 2.2955-3.5119 0.075-7.2722 0.0126-11.102-0.4431-3.1747 2.7634-5.9733 6.0161-8.318 9.7773 5.5144 2.464 11.672 3.4236 17.597 3.2065-6.0795 0.52252-12.845 0.91692-19.274-0.28179-2.6015 4.9544-4.454 10.662-5.2991 16.941 0.66024 0.559 1.3486 1.093 2.0665 1.5943 5.7375 3.9626 12.79 5.9441 19.772 6.1483 1.8334 0.0551 3.652-5e-3 5.4396-0.16316-2.0383 0.57059-4.1438 1.0265-6.298 1.3349-6.0685 0.86523-12.404 0.48786-18.281-1.5022-1.0886-0.3638-2.1525-0.7931-3.1881-1.2759-0.17177 6.4156 0.69675 13.242 2.8138 20.199 1.4002 0.77085 2.8816 1.4466 4.4205 2.0124 0.22494 0.0826 0.451 0.16276 0.67811 0.24047 8.8914 3.0131 18.6 2.4101 27.189-0.18524-7.7531 2.7606-16.597 5.1885-25.63 4.2957-1.5878-0.15249-3.1666-0.42476-4.7148-0.81214 4.9703 12.365 13.73 23.906 25.351 32.954 2.5946 0.37014 5.2246 0.53753 7.8588 0.51783 8.9156-0.12664 17.347-2.3477 24.853-5.6003-7.3288 4.7858-16.064 8.6329-25.913 9.8778 18.744 11.819 38.444 15.367 50.464 13.601 3.8687-0.56688 6.9027-1.645 8.9204-3.1514 1.2626-4.8344-3.5567-12.652-10.744-22.496-0.53233-0.72704-1.0768-1.4652-1.6317-2.214-1.2987 5.5005-3.4787 10.993-6.2252 16.269 2.0136-7.0045 3.2199-14.047 3.0494-20.53-6.7306-9.0169-13.879-18.678-19.862-29.241-0.12399 0.70665-0.2571 1.4156-0.40762 2.1198-1.9177 9.1246-5.6872 17.697-10.954 25.65 4.2257-9.8637 6.8308-19.883 7.6016-30.001 0.11096-1.517 0.1719-3.0199 0.19277-4.4862-1.3819-2.8023-2.6142-5.5803-3.6822-8.3329-2.8424-7.3404-4.5705-13.981-5.831-19.932-0.80059 1.4485-1.6541 2.8844-2.5606 4.2791-4.942 7.6289-10.555 13.368-17.255 19.534 6.8977-6.8476 12.38-14.321 16.892-22.587 0.80569-1.4812 1.5648-2.9672 2.2721-4.4264-0.57465-2.9314-1.036-5.5355-1.5179-7.76-0.47811-1.8228-1.0204-3.471-1.7251-4.944-6.3826 5.2152-11.705 7.8745-18.841 12.353 6.4019-4.323 12.159-9.1263 17.564-14.554-0.65118-0.9232-1.4108-1.7478-2.3097-2.4744-4.8446 2.8612-9.0464 4.8063-14.312 7.5582 4.5025-2.5399 8.8017-5.3535 12.974-8.5072-2.538-1.5556-6.0021-2.5022-10.705-2.7734z"
             opacity=".5"
             id="path3" />
          <path
             d="m-319.92-196.78c-2.6022 12.067-3.8363 24.972-1.6897 38.028 1.996 13.077 7.8472 26.844 17.778 39.2h1e-5c10.448 13.003 25.288 24.342 42.207 32.941 19.216 9.8439 41.017 16.805 62.87 21.372-0.63153 1.6987 0.2456 2.1086 1.4014 2.2803-0.55457 1.2714-1.6682 1.4273-2.9239 1.2767-21.232-4.7625-42.356-11.776-61.1-21.453v-3e-6c-17.262-8.8348-32.428-20.487-43.145-33.832l-1e-5 -1e-5c-10.192-12.693-16.179-26.825-18.213-40.247-2.2044-13.587-0.81503-26.956 2.0159-39.398 0.58581-2.5903 0.93515-0.80848 0.80039-0.1679z"
             opacity="1"
             id="path4" />
        </g>
      </g>
    </g>
    <g
       transform="matrix(1.984 0 0 1.984 -154.42 -61.4)"
       id="g27">
      <g
         class="UnoptimicedTransforms"
         transform="matrix(.3555 0 0 .37962 113.31 9.9935)"
         id="g11">
        <g
           stroke="#000"
           id="g10">
          <g
             transform="translate(480.47 311.02)"
             opacity=".80046"
             stroke="#000"
             stroke-linecap="round"
             stroke-miterlimit="12.3"
             stroke-width=".052917"
             id="g9">
            <path
               d="m-320.05-197.91c-3.6709 1.6033-7.0766 3.5366-10.211 5.9151 2.895 1.0962 5.8737 1.8491 8.8215 2.2955-3.5119 0.075-7.2722 0.0126-11.102-0.4431-3.1747 2.7634-5.9733 6.0161-8.318 9.7773 5.5144 2.464 11.672 3.4236 17.597 3.2065-6.0795 0.52252-12.845 0.91692-19.274-0.28179-2.6015 4.9544-4.454 10.662-5.2991 16.941 0.66024 0.559 1.3486 1.093 2.0665 1.5943 5.7375 3.9626 12.79 5.9441 19.772 6.1483 1.8334 0.0551 3.652-5e-3 5.4396-0.16316-2.0383 0.57059-4.1438 1.0265-6.298 1.3349-6.0685 0.86523-12.404 0.48786-18.281-1.5022-1.0886-0.3638-2.1525-0.7931-3.1881-1.2759-0.17177 6.4156 0.69675 13.242 2.8138 20.199 1.4002 0.77085 2.8816 1.4466 4.4205 2.0124 0.22494 0.0826 0.451 0.16276 0.67811 0.24047 8.8914 3.0131 18.6 2.4101 27.189-0.18524-7.7531 2.7606-16.597 5.1885-25.63 4.2957-1.5878-0.15249-3.1666-0.42476-4.7148-0.81214 4.9703 12.365 13.73 23.906 25.351 32.954 2.5946 0.37014 5.2246 0.53753 7.8588 0.51783 8.9156-0.12664 17.347-2.3477 24.853-5.6003-7.3288 4.7858-16.064 8.6329-25.913 9.8778 18.744 11.819 38.444 15.367 50.464 13.601 3.8687-0.56688 6.9027-1.645 8.9204-3.1514 1.2626-4.8344-3.5567-12.652-10.744-22.496-0.53233-0.72704-1.0768-1.4652-1.6317-2.214-1.2987 5.5005-3.4787 10.993-6.2252 16.269 2.0136-7.0045 3.2199-14.047 3.0494-20.53-6.7306-9.0169-13.879-18.678-19.862-29.241-0.12399 0.70665-0.2571 1.4156-0.40762 2.1198-1.9177 9.1246-5.6872 17.697-10.954 25.65 4.2257-9.8637 6.8308-19.883 7.6016-30.001 0.11096-1.517 0.1719-3.0199 0.19277-4.4862-1.3819-2.8023-2.6142-5.5803-3.6822-8.3329-2.8424-7.3404-4.5705-13.981-5.831-19.932-0.80059 1.4485-1.6541 2.8844-2.5606 4.2791-4.942 7.6289-10.555 13.368-17.255 19.534 6.8977-6.8476 12.38-14.321 16.892-22.587 0.80569-1.4812 1.5648-2.9672 2.2721-4.4264-0.57465-2.9314-1.036-5.5355-1.5179-7.76-0.47811-1.8228-1.0204-3.471-1.7251-4.944-6.3826 5.2152-11.705 7.8745-18.841 12.353 6.4019-4.323 12.159-9.1263 17.564-14.554-0.65118-0.9232-1.4108-1.7478-2.3097-2.4744-4.8446 2.8612-9.0464 4.8063-14.312 7.5582 4.5025-2.5399 8.8017-5.3535 12.974-8.5072-2.538-1.5556-6.0021-2.5022-10.705-2.7734z"
               opacity=".5"
               id="path6" />
            <path
               d="m-319.92-196.78c-2.6022 12.067-3.8363 24.972-1.6897 38.028 1.996 13.077 7.8472 26.844 17.778 39.2h1e-5c10.448 13.003 25.288 24.342 42.207 32.941 19.216 9.8439 41.017 16.805 62.87 21.372-0.63153 1.6987 0.2456 2.1086 1.4014 2.2803-0.55457 1.2714-1.6682 1.4273-2.9239 1.2767-21.232-4.7625-42.356-11.776-61.1-21.453v-3e-6c-17.262-8.8348-32.428-20.487-43.145-33.832l-1e-5 -1e-5c-10.192-12.693-16.179-26.825-18.213-40.247-2.2044-13.587-0.81503-26.956 2.0159-39.398 0.58581-2.5903 0.93515-0.80848 0.80039-0.1679z"
               opacity="1"
               id="path7" />
            <path
               d="m-320.05-197.91c-3.6709 1.6033-7.0766 3.5366-10.211 5.9151 2.895 1.0962 5.8737 1.8491 8.8215 2.2955-3.5119 0.075-7.2722 0.0126-11.102-0.4431-3.1747 2.7634-5.9733 6.0161-8.318 9.7773 5.5144 2.464 11.672 3.4236 17.597 3.2065-6.0795 0.52252-12.845 0.91692-19.274-0.28179-2.6015 4.9544-4.454 10.662-5.2991 16.941 0.66024 0.559 1.3486 1.093 2.0665 1.5943 5.7375 3.9626 12.79 5.9441 19.772 6.1483 1.8334 0.0551 3.652-5e-3 5.4396-0.16316-2.0383 0.57059-4.1438 1.0265-6.298 1.3349-6.0685 0.86523-12.404 0.48786-18.281-1.5022-1.0886-0.3638-2.1525-0.7931-3.1881-1.2759-0.17177 6.4156 0.69675 13.242 2.8138 20.199 1.4002 0.77085 2.8816 1.4466 4.4205 2.0124 0.22494 0.0826 0.451 0.16276 0.67811 0.24047 8.8914 3.0131 18.6 2.4101 27.189-0.18524-7.7531 2.7606-16.597 5.1885-25.63 4.2957-1.5878-0.15249-3.1666-0.42476-4.7148-0.81214 4.9703 12.365 13.73 23.906 25.351 32.954 2.5946 0.37014 5.2246 0.53753 7.8588 0.51783 8.9156-0.12664 17.347-2.3477 24.853-5.6003-7.3288 4.7858-16.064 8.6329-25.913 9.8778 18.744 11.819 38.444 15.367 50.464 13.601 3.8687-0.56688 6.9027-1.645 8.9204-3.1514 1.2626-4.8344-3.5567-12.652-10.744-22.496-0.53233-0.72704-1.0768-1.4652-1.6317-2.214-1.2987 5.5005-3.4787 10.993-6.2252 16.269 2.0136-7.0045 3.2199-14.047 3.0494-20.53-6.7306-9.0169-13.879-18.678-19.862-29.241-0.12399 0.70665-0.2571 1.4156-0.40762 2.1198-1.9177 9.1246-5.6872 17.697-10.954 25.65 4.2257-9.8637 6.8308-19.883 7.6016-30.001 0.11096-1.517 0.1719-3.0199 0.19277-4.4862-1.3819-2.8023-2.6142-5.5803-3.6822-8.3329-2.8424-7.3404-4.5705-13.981-5.831-19.932-0.80059 1.4485-1.6541 2.8844-2.5606 4.2791-4.942 7.6289-10.555 13.368-17.255 19.534 6.8977-6.8476 12.38-14.321 16.892-22.587 0.80569-1.4812 1.5648-2.9672 2.2721-4.4264-0.57465-2.9314-1.036-5.5355-1.5179-7.76-0.47811-1.8228-1.0204-3.471-1.7251-4.944-6.3826 5.2152-11.705 7.8745-18.841 12.353 6.4019-4.323 12.159-9.1263 17.564-14.554-0.65118-0.9232-1.4108-1.7478-2.3097-2.4744-4.8446 2.8612-9.0464 4.8063-14.312 7.5582 4.5025-2.5399 8.8017-5.3535 12.974-8.5072-2.538-1.5556-6.0021-2.5022-10.705-2.7734z"
               opacity=".5"
               id="path8" />
            <path
               d="m-319.92-196.78c-2.6022 12.067-3.8363 24.972-1.6897 38.028 1.996 13.077 7.8472 26.844 17.778 39.2h1e-5c10.448 13.003 25.288 24.342 42.207 32.941 19.216 9.8439 41.017 16.805 62.87 21.372-0.63153 1.6987 0.2456 2.1086 1.4014 2.2803-0.55457 1.2714-1.6682 1.4273-2.9239 1.2767-21.232-4.7625-42.356-11.776-61.1-21.453v-3e-6c-17.262-8.8348-32.428-20.487-43.145-33.832l-1e-5 -1e-5c-10.192-12.693-16.179-26.825-18.213-40.247-2.2044-13.587-0.81503-26.956 2.0159-39.398 0.58581-2.5903 0.93515-0.80848 0.80039-0.1679z"
               opacity="1"
               id="path9" />
          </g>
        </g>
      </g>
      <g
         class="UnoptimicedTransforms"
         transform="matrix(-.3555 0 0 .37962 298.4 9.9935)"
         id="g16">
        <g
           stroke="#000"
           id="g15">
          <g
             transform="translate(480.47 311.02)"
             opacity=".80046"
             stroke="#000"
             stroke-linecap="round"
             stroke-miterlimit="12.3"
             stroke-width=".052917"
             id="g14">
            <path
               d="m-320.05-197.91c-3.6709 1.6033-7.0766 3.5366-10.211 5.9151 2.895 1.0962 5.8737 1.8491 8.8215 2.2955-3.5119 0.075-7.2722 0.0126-11.102-0.4431-3.1747 2.7634-5.9733 6.0161-8.318 9.7773 5.5144 2.464 11.672 3.4236 17.597 3.2065-6.0795 0.52252-12.845 0.91692-19.274-0.28179-2.6015 4.9544-4.454 10.662-5.2991 16.941 0.66024 0.559 1.3486 1.093 2.0665 1.5943 5.7375 3.9626 12.79 5.9441 19.772 6.1483 1.8334 0.0551 3.652-5e-3 5.4396-0.16316-2.0383 0.57059-4.1438 1.0265-6.298 1.3349-6.0685 0.86523-12.404 0.48786-18.281-1.5022-1.0886-0.3638-2.1525-0.7931-3.1881-1.2759-0.17177 6.4156 0.69675 13.242 2.8138 20.199 1.4002 0.77085 2.8816 1.4466 4.4205 2.0124 0.22494 0.0826 0.451 0.16276 0.67811 0.24047 8.8914 3.0131 18.6 2.4101 27.189-0.18524-7.7531 2.7606-16.597 5.1885-25.63 4.2957-1.5878-0.15249-3.1666-0.42476-4.7148-0.81214 4.9703 12.365 13.73 23.906 25.351 32.954 2.5946 0.37014 5.2246 0.53753 7.8588 0.51783 8.9156-0.12664 17.347-2.3477 24.853-5.6003-7.3288 4.7858-16.064 8.6329-25.913 9.8778 18.744 11.819 38.444 15.367 50.464 13.601 3.8687-0.56688 6.9027-1.645 8.9204-3.1514 1.2626-4.8344-3.5567-12.652-10.744-22.496-0.53233-0.72704-1.0768-1.4652-1.6317-2.214-1.2987 5.5005-3.4787 10.993-6.2252 16.269 2.0136-7.0045 3.2199-14.047 3.0494-20.53-6.7306-9.0169-13.879-18.678-19.862-29.241-0.12399 0.70665-0.2571 1.4156-0.40762 2.1198-1.9177 9.1246-5.6872 17.697-10.954 25.65 4.2257-9.8637 6.8308-19.883 7.6016-30.001 0.11096-1.517 0.1719-3.0199 0.19277-4.4862-1.3819-2.8023-2.6142-5.5803-3.6822-8.3329-2.8424-7.3404-4.5705-13.981-5.831-19.932-0.80059 1.4485-1.6541 2.8844-2.5606 4.2791-4.942 7.6289-10.555 13.368-17.255 19.534 6.8977-6.8476 12.38-14.321 16.892-22.587 0.80569-1.4812 1.5648-2.9672 2.2721-4.4264-0.57465-2.9314-1.036-5.5355-1.5179-7.76-0.47811-1.8228-1.0204-3.471-1.7251-4.944-6.3826 5.2152-11.705 7.8745-18.841 12.353 6.4019-4.323 12.159-9.1263 17.564-14.554-0.65118-0.9232-1.4108-1.7478-2.3097-2.4744-4.8446 2.8612-9.0464 4.8063-14.312 7.5582 4.5025-2.5399 8.8017-5.3535 12.974-8.5072-2.538-1.5556-6.0021-2.5022-10.705-2.7734z"
               opacity=".5"
               id="path11" />
            <path
               d="m-319.92-196.78c-2.6022 12.067-3.8363 24.972-1.6897 38.028 1.996 13.077 7.8472 26.844 17.778 39.2h1e-5c10.448 13.003 25.288 24.342 42.207 32.941 19.216 9.8439 41.017 16.805 62.87 21.372-0.63153 1.6987 0.2456 2.1086 1.4014 2.2803-0.55457 1.2714-1.6682 1.4273-2.9239 1.2767-21.232-4.7625-42.356-11.776-61.1-21.453v-3e-6c-17.262-8.8348-32.428-20.487-43.145-33.832l-1e-5 -1e-5c-10.192-12.693-16.179-26.825-18.213-40.247-2.2044-13.587-0.81503-26.956 2.0159-39.398 0.58581-2.5903 0.93515-0.80848 0.80039-0.1679z"
               opacity="1"
               id="path12" />
            <path
               d="m-320.05-197.91c-3.6709 1.6033-7.0766 3.5366-10.211 5.9151 2.895 1.0962 5.8737 1.8491 8.8215 2.2955-3.5119 0.075-7.2722 0.0126-11.102-0.4431-3.1747 2.7634-5.9733 6.0161-8.318 9.7773 5.5144 2.464 11.672 3.4236 17.597 3.2065-6.0795 0.52252-12.845 0.91692-19.274-0.28179-2.6015 4.9544-4.454 10.662-5.2991 16.941 0.66024 0.559 1.3486 1.093 2.0665 1.5943 5.7375 3.9626 12.79 5.9441 19.772 6.1483 1.8334 0.0551 3.652-5e-3 5.4396-0.16316-2.0383 0.57059-4.1438 1.0265-6.298 1.3349-6.0685 0.86523-12.404 0.48786-18.281-1.5022-1.0886-0.3638-2.1525-0.7931-3.1881-1.2759-0.17177 6.4156 0.69675 13.242 2.8138 20.199 1.4002 0.77085 2.8816 1.4466 4.4205 2.0124 0.22494 0.0826 0.451 0.16276 0.67811 0.24047 8.8914 3.0131 18.6 2.4101 27.189-0.18524-7.7531 2.7606-16.597 5.1885-25.63 4.2957-1.5878-0.15249-3.1666-0.42476-4.7148-0.81214 4.9703 12.365 13.73 23.906 25.351 32.954 2.5946 0.37014 5.2246 0.53753 7.8588 0.51783 8.9156-0.12664 17.347-2.3477 24.853-5.6003-7.3288 4.7858-16.064 8.6329-25.913 9.8778 18.744 11.819 38.444 15.367 50.464 13.601 3.8687-0.56688 6.9027-1.645 8.9204-3.1514 1.2626-4.8344-3.5567-12.652-10.744-22.496-0.53233-0.72704-1.0768-1.4652-1.6317-2.214-1.2987 5.5005-3.4787 10.993-6.2252 16.269 2.0136-7.0045 3.2199-14.047 3.0494-20.53-6.7306-9.0169-13.879-18.678-19.862-29.241-0.12399 0.70665-0.2571 1.4156-0.40762 2.1198-1.9177 9.1246-5.6872 17.697-10.954 25.65 4.2257-9.8637 6.8308-19.883 7.6016-30.001 0.11096-1.517 0.1719-3.0199 0.19277-4.4862-1.3819-2.8023-2.6142-5.5803-3.6822-8.3329-2.8424-7.3404-4.5705-13.981-5.831-19.932-0.80059 1.4485-1.6541 2.8844-2.5606 4.2791-4.942 7.6289-10.555 13.368-17.255 19.534 6.8977-6.8476 12.38-14.321 16.892-22.587 0.80569-1.4812 1.5648-2.9672 2.2721-4.4264-0.57465-2.9314-1.036-5.5355-1.5179-7.76-0.47811-1.8228-1.0204-3.471-1.7251-4.944-6.3826 5.2152-11.705 7.8745-18.841 12.353 6.4019-4.323 12.159-9.1263 17.564-14.554-0.65118-0.9232-1.4108-1.7478-2.3097-2.4744-4.8446 2.8612-9.0464 4.8063-14.312 7.5582 4.5025-2.5399 8.8017-5.3535 12.974-8.5072-2.538-1.5556-6.0021-2.5022-10.705-2.7734z"
               opacity=".5"
               id="path13" />
            <path
               d="m-319.92-196.78c-2.6022 12.067-3.8363 24.972-1.6897 38.028 1.996 13.077 7.8472 26.844 17.778 39.2h1e-5c10.448 13.003 25.288 24.342 42.207 32.941 19.216 9.8439 41.017 16.805 62.87 21.372-0.63153 1.6987 0.2456 2.1086 1.4014 2.2803-0.55457 1.2714-1.6682 1.4273-2.9239 1.2767-21.232-4.7625-42.356-11.776-61.1-21.453v-3e-6c-17.262-8.8348-32.428-20.487-43.145-33.832l-1e-5 -1e-5c-10.192-12.693-16.179-26.825-18.213-40.247-2.2044-13.587-0.81503-26.956 2.0159-39.398 0.58581-2.5903 0.93515-0.80848 0.80039-0.1679z"
               opacity="1"
               id="path14" />
          </g>
        </g>
      </g>
      <g
         class="UnoptimicedTransforms"
         transform="matrix(.3555 0 0 -.37962 113.31 193.21)"
         id="g21">
        <g
           stroke="#000"
           id="g20">
          <g
             transform="translate(480.47 311.02)"
             opacity=".80046"
             stroke="#000"
             stroke-linecap="round"
             stroke-miterlimit="12.3"
             stroke-width=".052917"
             id="g19">
            <path
               d="m-320.05-197.91c-3.6709 1.6033-7.0766 3.5366-10.211 5.9151 2.895 1.0962 5.8737 1.8491 8.8215 2.2955-3.5119 0.075-7.2722 0.0126-11.102-0.4431-3.1747 2.7634-5.9733 6.0161-8.318 9.7773 5.5144 2.464 11.672 3.4236 17.597 3.2065-6.0795 0.52252-12.845 0.91692-19.274-0.28179-2.6015 4.9544-4.454 10.662-5.2991 16.941 0.66024 0.559 1.3486 1.093 2.0665 1.5943 5.7375 3.9626 12.79 5.9441 19.772 6.1483 1.8334 0.0551 3.652-5e-3 5.4396-0.16316-2.0383 0.57059-4.1438 1.0265-6.298 1.3349-6.0685 0.86523-12.404 0.48786-18.281-1.5022-1.0886-0.3638-2.1525-0.7931-3.1881-1.2759-0.17177 6.4156 0.69675 13.242 2.8138 20.199 1.4002 0.77085 2.8816 1.4466 4.4205 2.0124 0.22494 0.0826 0.451 0.16276 0.67811 0.24047 8.8914 3.0131 18.6 2.4101 27.189-0.18524-7.7531 2.7606-16.597 5.1885-25.63 4.2957-1.5878-0.15249-3.1666-0.42476-4.7148-0.81214 4.9703 12.365 13.73 23.906 25.351 32.954 2.5946 0.37014 5.2246 0.53753 7.8588 0.51783 8.9156-0.12664 17.347-2.3477 24.853-5.6003-7.3288 4.7858-16.064 8.6329-25.913 9.8778 18.744 11.819 38.444 15.367 50.464 13.601 3.8687-0.56688 6.9027-1.645 8.9204-3.1514 1.2626-4.8344-3.5567-12.652-10.744-22.496-0.53233-0.72704-1.0768-1.4652-1.6317-2.214-1.2987 5.5005-3.4787 10.993-6.2252 16.269 2.0136-7.0045 3.2199-14.047 3.0494-20.53-6.7306-9.0169-13.879-18.678-19.862-29.241-0.12399 0.70665-0.2571 1.4156-0.40762 2.1198-1.9177 9.1246-5.6872 17.697-10.954 25.65 4.2257-9.8637 6.8308-19.883 7.6016-30.001 0.11096-1.517 0.1719-3.0199 0.19277-4.4862-1.3819-2.8023-2.6142-5.5803-3.6822-8.3329-2.8424-7.3404-4.5705-13.981-5.831-19.932-0.80059 1.4485-1.6541 2.8844-2.5606 4.2791-4.942 7.6289-10.555 13.368-17.255 19.534 6.8977-6.8476 12.38-14.321 16.892-22.587 0.80569-1.4812 1.5648-2.9672 2.2721-4.4264-0.57465-2.9314-1.036-5.5355-1.5179-7.76-0.47811-1.8228-1.0204-3.471-1.7251-4.944-6.3826 5.2152-11.705 7.8745-18.841 12.353 6.4019-4.323 12.159-9.1263 17.564-14.554-0.65118-0.9232-1.4108-1.7478-2.3097-2.4744-4.8446 2.8612-9.0464 4.8063-14.312 7.5582 4.5025-2.5399 8.8017-5.3535 12.974-8.5072-2.538-1.5556-6.0021-2.5022-10.705-2.7734z"
               opacity=".5"
               id="path16" />
            <path
               d="m-319.92-196.78c-2.6022 12.067-3.8363 24.972-1.6897 38.028 1.996 13.077 7.8472 26.844 17.778 39.2h1e-5c10.448 13.003 25.288 24.342 42.207 32.941 19.216 9.8439 41.017 16.805 62.87 21.372-0.63153 1.6987 0.2456 2.1086 1.4014 2.2803-0.55457 1.2714-1.6682 1.4273-2.9239 1.2767-21.232-4.7625-42.356-11.776-61.1-21.453v-3e-6c-17.262-8.8348-32.428-20.487-43.145-33.832l-1e-5 -1e-5c-10.192-12.693-16.179-26.825-18.213-40.247-2.2044-13.587-0.81503-26.956 2.0159-39.398 0.58581-2.5903 0.93515-0.80848 0.80039-0.1679z"
               opacity="1"
               id="path17" />
            <path
               d="m-320.05-197.91c-3.6709 1.6033-7.0766 3.5366-10.211 5.9151 2.895 1.0962 5.8737 1.8491 8.8215 2.2955-3.5119 0.075-7.2722 0.0126-11.102-0.4431-3.1747 2.7634-5.9733 6.0161-8.318 9.7773 5.5144 2.464 11.672 3.4236 17.597 3.2065-6.0795 0.52252-12.845 0.91692-19.274-0.28179-2.6015 4.9544-4.454 10.662-5.2991 16.941 0.66024 0.559 1.3486 1.093 2.0665 1.5943 5.7375 3.9626 12.79 5.9441 19.772 6.1483 1.8334 0.0551 3.652-5e-3 5.4396-0.16316-2.0383 0.57059-4.1438 1.0265-6.298 1.3349-6.0685 0.86523-12.404 0.48786-18.281-1.5022-1.0886-0.3638-2.1525-0.7931-3.1881-1.2759-0.17177 6.4156 0.69675 13.242 2.8138 20.199 1.4002 0.77085 2.8816 1.4466 4.4205 2.0124 0.22494 0.0826 0.451 0.16276 0.67811 0.24047 8.8914 3.0131 18.6 2.4101 27.189-0.18524-7.7531 2.7606-16.597 5.1885-25.63 4.2957-1.5878-0.15249-3.1666-0.42476-4.7148-0.81214 4.9703 12.365 13.73 23.906 25.351 32.954 2.5946 0.37014 5.2246 0.53753 7.8588 0.51783 8.9156-0.12664 17.347-2.3477 24.853-5.6003-7.3288 4.7858-16.064 8.6329-25.913 9.8778 18.744 11.819 38.444 15.367 50.464 13.601 3.8687-0.56688 6.9027-1.645 8.9204-3.1514 1.2626-4.8344-3.5567-12.652-10.744-22.496-0.53233-0.72704-1.0768-1.4652-1.6317-2.214-1.2987 5.5005-3.4787 10.993-6.2252 16.269 2.0136-7.0045 3.2199-14.047 3.0494-20.53-6.7306-9.0169-13.879-18.678-19.862-29.241-0.12399 0.70665-0.2571 1.4156-0.40762 2.1198-1.9177 9.1246-5.6872 17.697-10.954 25.65 4.2257-9.8637 6.8308-19.883 7.6016-30.001 0.11096-1.517 0.1719-3.0199 0.19277-4.4862-1.3819-2.8023-2.6142-5.5803-3.6822-8.3329-2.8424-7.3404-4.5705-13.981-5.831-19.932-0.80059 1.4485-1.6541 2.8844-2.5606 4.2791-4.942 7.6289-10.555 13.368-17.255 19.534 6.8977-6.8476 12.38-14.321 16.892-22.587 0.80569-1.4812 1.5648-2.9672 2.2721-4.4264-0.57465-2.9314-1.036-5.5355-1.5179-7.76-0.47811-1.8228-1.0204-3.471-1.7251-4.944-6.3826 5.2152-11.705 7.8745-18.841 12.353 6.4019-4.323 12.159-9.1263 17.564-14.554-0.65118-0.9232-1.4108-1.7478-2.3097-2.4744-4.8446 2.8612-9.0464 4.8063-14.312 7.5582 4.5025-2.5399 8.8017-5.3535 12.974-8.5072-2.538-1.5556-6.0021-2.5022-10.705-2.7734z"
               opacity=".5"
               id="path18" />
            <path
               d="m-319.92-196.78c-2.6022 12.067-3.8363 24.972-1.6897 38.028 1.996 13.077 7.8472 26.844 17.778 39.2h1e-5c10.448 13.003 25.288 24.342 42.207 32.941 19.216 9.8439 41.017 16.805 62.87 21.372-0.63153 1.6987 0.2456 2.1086 1.4014 2.2803-0.55457 1.2714-1.6682 1.4273-2.9239 1.2767-21.232-4.7625-42.356-11.776-61.1-21.453v-3e-6c-17.262-8.8348-32.428-20.487-43.145-33.832l-1e-5 -1e-5c-10.192-12.693-16.179-26.825-18.213-40.247-2.2044-13.587-0.81503-26.956 2.0159-39.398 0.58581-2.5903 0.93515-0.80848 0.80039-0.1679z"
               opacity="1"
               id="path19" />
          </g>
        </g>
      </g>
      <g
         class="UnoptimicedTransforms"
         transform="matrix(-.3555 0 0 -.37962 298.4 193.21)"
         id="g26">
        <g
           stroke="#000"
           id="g25">
          <g
             transform="translate(480.47 311.02)"
             opacity=".80046"
             stroke="#000"
             stroke-linecap="round"
             stroke-miterlimit="12.3"
             stroke-width=".052917"
             id="g24">
            <path
               d="m-320.05-197.91c-3.6709 1.6033-7.0766 3.5366-10.211 5.9151 2.895 1.0962 5.8737 1.8491 8.8215 2.2955-3.5119 0.075-7.2722 0.0126-11.102-0.4431-3.1747 2.7634-5.9733 6.0161-8.318 9.7773 5.5144 2.464 11.672 3.4236 17.597 3.2065-6.0795 0.52252-12.845 0.91692-19.274-0.28179-2.6015 4.9544-4.454 10.662-5.2991 16.941 0.66024 0.559 1.3486 1.093 2.0665 1.5943 5.7375 3.9626 12.79 5.9441 19.772 6.1483 1.8334 0.0551 3.652-5e-3 5.4396-0.16316-2.0383 0.57059-4.1438 1.0265-6.298 1.3349-6.0685 0.86523-12.404 0.48786-18.281-1.5022-1.0886-0.3638-2.1525-0.7931-3.1881-1.2759-0.17177 6.4156 0.69675 13.242 2.8138 20.199 1.4002 0.77085 2.8816 1.4466 4.4205 2.0124 0.22494 0.0826 0.451 0.16276 0.67811 0.24047 8.8914 3.0131 18.6 2.4101 27.189-0.18524-7.7531 2.7606-16.597 5.1885-25.63 4.2957-1.5878-0.15249-3.1666-0.42476-4.7148-0.81214 4.9703 12.365 13.73 23.906 25.351 32.954 2.5946 0.37014 5.2246 0.53753 7.8588 0.51783 8.9156-0.12664 17.347-2.3477 24.853-5.6003-7.3288 4.7858-16.064 8.6329-25.913 9.8778 18.744 11.819 38.444 15.367 50.464 13.601 3.8687-0.56688 6.9027-1.645 8.9204-3.1514 1.2626-4.8344-3.5567-12.652-10.744-22.496-0.53233-0.72704-1.0768-1.4652-1.6317-2.214-1.2987 5.5005-3.4787 10.993-6.2252 16.269 2.0136-7.0045 3.2199-14.047 3.0494-20.53-6.7306-9.0169-13.879-18.678-19.862-29.241-0.12399 0.70665-0.2571 1.4156-0.40762 2.1198-1.9177 9.1246-5.6872 17.697-10.954 25.65 4.2257-9.8637 6.8308-19.883 7.6016-30.001 0.11096-1.517 0.1719-3.0199 0.19277-4.4862-1.3819-2.8023-2.6142-5.5803-3.6822-8.3329-2.8424-7.3404-4.5705-13.981-5.831-19.932-0.80059 1.4485-1.6541 2.8844-2.5606 4.2791-4.942 7.6289-10.555 13.368-17.255 19.534 6.8977-6.8476 12.38-14.321 16.892-22.587 0.80569-1.4812 1.5648-2.9672 2.2721-4.4264-0.57465-2.9314-1.036-5.5355-1.5179-7.76-0.47811-1.8228-1.0204-3.471-1.7251-4.944-6.3826 5.2152-11.705 7.8745-18.841 12.353 6.4019-4.323 12.159-9.1263 17.564-14.554-0.65118-0.9232-1.4108-1.7478-2.3097-2.4744-4.8446 2.8612-9.0464 4.8063-14.312 7.5582 4.5025-2.5399 8.8017-5.3535 12.974-8.5072-2.538-1.5556-6.0021-2.5022-10.705-2.7734z"
               opacity=".5"
               id="path21" />
            <path
               d="m-319.92-196.78c-2.6022 12.067-3.8363 24.972-1.6897 38.028 1.996 13.077 7.8472 26.844 17.778 39.2h1e-5c10.448 13.003 25.288 24.342 42.207 32.941 19.216 9.8439 41.017 16.805 62.87 21.372-0.63153 1.6987 0.2456 2.1086 1.4014 2.2803-0.55457 1.2714-1.6682 1.4273-2.9239 1.2767-21.232-4.7625-42.356-11.776-61.1-21.453v-3e-6c-17.262-8.8348-32.428-20.487-43.145-33.832l-1e-5 -1e-5c-10.192-12.693-16.179-26.825-18.213-40.247-2.2044-13.587-0.81503-26.956 2.0159-39.398 0.58581-2.5903 0.93515-0.80848 0.80039-0.1679z"
               opacity="1"
               id="path22" />
            <path
               d="m-320.05-197.91c-3.6709 1.6033-7.0766 3.5366-10.211 5.9151 2.895 1.0962 5.8737 1.8491 8.8215 2.2955-3.5119 0.075-7.2722 0.0126-11.102-0.4431-3.1747 2.7634-5.9733 6.0161-8.318 9.7773 5.5144 2.464 11.672 3.4236 17.597 3.2065-6.0795 0.52252-12.845 0.91692-19.274-0.28179-2.6015 4.9544-4.454 10.662-5.2991 16.941 0.66024 0.559 1.3486 1.093 2.0665 1.5943 5.7375 3.9626 12.79 5.9441 19.772 6.1483 1.8334 0.0551 3.652-5e-3 5.4396-0.16316-2.0383 0.57059-4.1438 1.0265-6.298 1.3349-6.0685 0.86523-12.404 0.48786-18.281-1.5022-1.0886-0.3638-2.1525-0.7931-3.1881-1.2759-0.17177 6.4156 0.69675 13.242 2.8138 20.199 1.4002 0.77085 2.8816 1.4466 4.4205 2.0124 0.22494 0.0826 0.451 0.16276 0.67811 0.24047 8.8914 3.0131 18.6 2.4101 27.189-0.18524-7.7531 2.7606-16.597 5.1885-25.63 4.2957-1.5878-0.15249-3.1666-0.42476-4.7148-0.81214 4.9703 12.365 13.73 23.906 25.351 32.954 2.5946 0.37014 5.2246 0.53753 7.8588 0.51783 8.9156-0.12664 17.347-2.3477 24.853-5.6003-7.3288 4.7858-16.064 8.6329-25.913 9.8778 18.744 11.819 38.444 15.367 50.464 13.601 3.8687-0.56688 6.9027-1.645 8.9204-3.1514 1.2626-4.8344-3.5567-12.652-10.744-22.496-0.53233-0.72704-1.0768-1.4652-1.6317-2.214-1.2987 5.5005-3.4787 10.993-6.2252 16.269 2.0136-7.0045 3.2199-14.047 3.0494-20.53-6.7306-9.0169-13.879-18.678-19.862-29.241-0.12399 0.70665-0.2571 1.4156-0.40762 2.1198-1.9177 9.1246-5.6872 17.697-10.954 25.65 4.2257-9.8637 6.8308-19.883 7.6016-30.001 0.11096-1.517 0.1719-3.0199 0.19277-4.4862-1.3819-2.8023-2.6142-5.5803-3.6822-8.3329-2.8424-7.3404-4.5705-13.981-5.831-19.932-0.80059 1.4485-1.6541 2.8844-2.5606 4.2791-4.942 7.6289-10.555 13.368-17.255 19.534 6.8977-6.8476 12.38-14.321 16.892-22.587 0.80569-1.4812 1.5648-2.9672 2.2721-4.4264-0.57465-2.9314-1.036-5.5355-1.5179-7.76-0.47811-1.8228-1.0204-3.471-1.7251-4.944-6.3826 5.2152-11.705 7.8745-18.841 12.353 6.4019-4.323 12.159-9.1263 17.564-14.554-0.65118-0.9232-1.4108-1.7478-2.3097-2.4744-4.8446 2.8612-9.0464 4.8063-14.312 7.5582 4.5025-2.5399 8.8017-5.3535 12.974-8.5072-2.538-1.5556-6.0021-2.5022-10.705-2.7734z"
               opacity=".5"
               id="path23" />
            <path
               d="m-319.92-196.78c-2.6022 12.067-3.8363 24.972-1.6897 38.028 1.996 13.077 7.8472 26.844 17.778 39.2h1e-5c10.448 13.003 25.288 24.342 42.207 32.941 19.216 9.8439 41.017 16.805 62.87 21.372-0.63153 1.6987 0.2456 2.1086 1.4014 2.2803-0.55457 1.2714-1.6682 1.4273-2.9239 1.2767-21.232-4.7625-42.356-11.776-61.1-21.453v-3e-6c-17.262-8.8348-32.428-20.487-43.145-33.832l-1e-5 -1e-5c-10.192-12.693-16.179-26.825-18.213-40.247-2.2044-13.587-0.81503-26.956 2.0159-39.398 0.58581-2.5903 0.93515-0.80848 0.80039-0.1679z"
               opacity="1"
               id="path24" />
          </g>
        </g>
      </g>
    </g>
    <g
       transform="matrix(-.69913 0 0 -.74656 100.22 88.102)"
       fill="#fff"
       opacity=".80046"
       id="g28">
      <path
         d="m-319.92-196.78c-2.6022 12.067-3.8363 24.972-1.6897 38.028 1.996 13.077 7.8472 26.844 17.778 39.2h1e-5c10.448 13.003 25.288 24.342 42.207 32.941 19.216 9.8439 41.017 16.805 62.87 21.372-0.63153 1.6987 0.2456 2.1086 1.4014 2.2803-0.55457 1.2714-1.6682 1.4273-2.9239 1.2767-21.232-4.7625-42.356-11.776-61.1-21.453v-3e-6c-17.262-8.8348-32.428-20.487-43.145-33.832l-1e-5 -1e-5c-10.192-12.693-16.179-26.825-18.213-40.247-2.2044-13.587-0.81503-26.956 2.0159-39.398 0.58581-2.5903 0.93515-0.80848 0.80039-0.1679zm-0.13745-1.1261c-3.6709 1.6033-7.0766 3.5366-10.211 5.9151 2.895 1.0962 5.8737 1.8491 8.8215 2.2955-3.5119 0.075-7.2722 0.0126-11.102-0.4431-3.1747 2.7634-5.9733 6.0161-8.318 9.7773 5.5144 2.464 11.672 3.4236 17.597 3.2065-6.0795 0.52252-12.845 0.91692-19.274-0.28179-2.6015 4.9544-4.454 10.662-5.2991 16.941 0.66024 0.559 1.3486 1.093 2.0665 1.5943 5.7375 3.9626 12.79 5.9441 19.772 6.1483 1.8334 0.0551 3.652-5e-3 5.4396-0.16316-2.0383 0.57059-4.1438 1.0265-6.298 1.3349-6.0685 0.86523-12.404 0.48786-18.281-1.5022-1.0886-0.3638-2.1525-0.7931-3.1881-1.2759-0.17177 6.4156 0.69675 13.242 2.8138 20.199 1.4002 0.77085 2.8816 1.4466 4.4205 2.0124 0.22494 0.0826 0.451 0.16276 0.67811 0.24047 8.8914 3.0131 18.6 2.4101 27.189-0.18524-7.7531 2.7606-16.597 5.1885-25.63 4.2957-1.5878-0.15249-3.1666-0.42476-4.7148-0.81214 4.9703 12.365 13.73 23.906 25.351 32.954 2.5946 0.37014 5.2246 0.53753 7.8588 0.51783v0c8.9156-0.12664 17.347-2.3477 24.853-5.6003-7.3288 4.7858-16.064 8.6329-25.913 9.8778 18.744 11.819 38.444 15.367 50.464 13.601 3.8687-0.56688 6.9027-1.645 8.9204-3.1514 1.2626-4.8344-3.5567-12.652-10.744-22.496-0.53233-0.72704-1.0768-1.4652-1.6317-2.214-1.2987 5.5005-3.4787 10.993-6.2252 16.269 2.0136-7.0045 3.2199-14.047 3.0494-20.53-6.7306-9.0169-13.879-18.678-19.862-29.241-0.12399 0.70665-0.2571 1.4156-0.40762 2.1198-1.9177 9.1246-5.6872 17.697-10.954 25.65 4.2257-9.8637 6.8308-19.883 7.6016-30.001 0.11096-1.517 0.1719-3.0199 0.19277-4.4862-1.3819-2.8023-2.6142-5.5803-3.6822-8.3329-2.8424-7.3404-4.5705-13.981-5.831-19.932-0.80059 1.4485-1.6541 2.8844-2.5606 4.2791-4.942 7.6289-10.555 13.368-17.255 19.534 6.8977-6.8476 12.38-14.321 16.892-22.587 0.80569-1.4812 1.5648-2.9672 2.2721-4.4264-0.57465-2.9314-1.036-5.5355-1.5179-7.76-0.47811-1.8228-1.0204-3.471-1.7251-4.944-6.3826 5.2152-11.705 7.8745-18.841 12.353 6.4019-4.323 12.159-9.1263 17.564-14.554-0.65118-0.9232-1.4108-1.7478-2.3097-2.4744-4.8446 2.8612-9.0464 4.8063-14.312 7.5582 4.5025-2.5399 8.8017-5.3535 12.974-8.5072-2.538-1.5556-6.0021-2.5022-10.705-2.7734zm0.13745 1.1261c-2.6022 12.067-3.8363 24.972-1.6897 38.028 1.996 13.077 7.8472 26.844 17.778 39.2h1e-5c10.448 13.003 25.288 24.342 42.207 32.941 19.216 9.8439 41.017 16.805 62.87 21.372-0.63153 1.6987 0.2456 2.1086 1.4014 2.2803-0.55457 1.2714-1.6682 1.4273-2.9239 1.2767-21.232-4.7625-42.356-11.776-61.1-21.453v-3e-6c-17.262-8.8348-32.428-20.487-43.145-33.832l-1e-5 -1e-5c-10.192-12.693-16.179-26.825-18.213-40.247-2.2044-13.587-0.81503-26.956 2.0159-39.398 0.58581-2.5903 0.93515-0.80848 0.80039-0.1679zm-0.13745-1.1261c-3.6709 1.6033-7.0766 3.5366-10.211 5.9151 2.895 1.0962 5.8737 1.8491 8.8215 2.2955-3.5119 0.075-7.2722 0.0126-11.102-0.4431-3.1747 2.7634-5.9733 6.0161-8.318 9.7773 5.5144 2.464 11.672 3.4236 17.597 3.2065-6.0795 0.52252-12.845 0.91692-19.274-0.28179-2.6015 4.9544-4.454 10.662-5.2991 16.941 0.66024 0.559 1.3486 1.093 2.0665 1.5943 5.7375 3.9626 12.79 5.9441 19.772 6.1483 1.8334 0.0551 3.652-5e-3 5.4396-0.16316-2.0383 0.57059-4.1438 1.0265-6.298 1.3349-6.0685 0.86523-12.404 0.48786-18.281-1.5022-1.0886-0.3638-2.1525-0.7931-3.1881-1.2759-0.17177 6.4156 0.69675 13.242 2.8138 20.199 1.4002 0.77085 2.8816 1.4466 4.4205 2.0124 0.22494 0.0826 0.451 0.16276 0.67811 0.24047 8.8914 3.0131 18.6 2.4101 27.189-0.18524-7.7531 2.7606-16.597 5.1885-25.63 4.2957-1.5878-0.15249-3.1666-0.42476-4.7148-0.81214 4.9703 12.365 13.73 23.906 25.351 32.954 2.5946 0.37014 5.2246 0.53753 7.8588 0.51783v0c8.9156-0.12664 17.347-2.3477 24.853-5.6003-7.3288 4.7858-16.064 8.6329-25.913 9.8778 18.744 11.819 38.444 15.367 50.464 13.601 3.8687-0.56688 6.9027-1.645 8.9204-3.1514 1.2626-4.8344-3.5567-12.652-10.744-22.496-0.53233-0.72704-1.0768-1.4652-1.6317-2.214-1.2987 5.5005-3.4787 10.993-6.2252 16.269 2.0136-7.0045 3.2199-14.047 3.0494-20.53-6.7306-9.0169-13.879-18.678-19.862-29.241-0.12399 0.70665-0.2571 1.4156-0.40762 2.1198-1.9177 9.1246-5.6872 17.697-10.954 25.65 4.2257-9.8637 6.8308-19.883 7.6016-30.001 0.11096-1.517 0.1719-3.0199 0.19277-4.4862-1.3819-2.8023-2.6142-5.5803-3.6822-8.3329-2.8424-7.3404-4.5705-13.981-5.831-19.932-0.80059 1.4485-1.6541 2.8844-2.5606 4.2791-4.942 7.6289-10.555 13.368-17.255 19.534 6.8977-6.8476 12.38-14.321 16.892-22.587 0.80569-1.4812 1.5648-2.9672 2.2721-4.4264-0.57465-2.9314-1.036-5.5355-1.5179-7.76-0.47811-1.8228-1.0204-3.471-1.7251-4.944-6.3826 5.2152-11.705 7.8745-18.841 12.353 6.4019-4.323 12.159-9.1263 17.564-14.554-0.65118-0.9232-1.4108-1.7478-2.3097-2.4744-4.8446 2.8612-9.0464 4.8063-14.312 7.5582 4.5025-2.5399 8.8017-5.3535 12.974-8.5072-2.538-1.5556-6.0021-2.5022-10.705-2.7734zm199.67 1.1261c2.6022 12.067 3.8363 24.972 1.6897 38.028-1.996 13.077-7.8472 26.844-17.778 39.2h-1e-5c-10.448 13.003-25.288 24.342-42.207 32.941-19.216 9.8439-41.017 16.805-62.87 21.372 0.63153 1.6987-0.2456 2.1086-1.4014 2.2803 0.55458 1.2714 1.6682 1.4273 2.9239 1.2767 21.232-4.7625 42.356-11.776 61.1-21.453 0-1e-6 1e-5 -2e-6 1e-5 -3e-6 17.262-8.8348 32.428-20.487 43.145-33.832v-1e-5c10.192-12.693 16.179-26.825 18.213-40.247 2.2044-13.587 0.81503-26.956-2.0159-39.398-0.5858-2.5903-0.93514-0.80848-0.80039-0.1679zm0.13746-1.1261c3.6709 1.6033 7.0765 3.5366 10.211 5.9151-2.895 1.0962-5.8737 1.8491-8.8215 2.2955 3.5119 0.075 7.2722 0.0126 11.102-0.4431 3.1747 2.7634 5.9733 6.0161 8.3181 9.7773-5.5144 2.464-11.672 3.4236-17.597 3.2065 6.0795 0.52252 12.845 0.91692 19.274-0.28179 2.6015 4.9544 4.4539 10.662 5.2991 16.941-0.66024 0.559-1.3486 1.093-2.0665 1.5943-5.7375 3.9626-12.79 5.9441-19.772 6.1483-1.8334 0.0551-3.652-5e-3 -5.4396-0.16316 2.0383 0.57059 4.1438 1.0265 6.298 1.3349 6.0685 0.86523 12.404 0.48786 18.281-1.5022 1.0886-0.3638 2.1525-0.7931 3.1881-1.2759 0.17177 6.4156-0.69675 13.242-2.8138 20.199-1.4003 0.77085-2.8816 1.4466-4.4205 2.0124-0.22494 0.0826-0.451 0.16276-0.67811 0.24047-8.8914 3.0131-18.6 2.4101-27.189-0.18524 7.7531 2.7606 16.597 5.1885 25.63 4.2957 1.5878-0.15249 3.1666-0.42476 4.7148-0.81214-4.9703 12.365-13.73 23.906-25.351 32.954-2.5946 0.37014-5.2246 0.53753-7.8588 0.51783v0c-8.9156-0.12664-17.347-2.3477-24.853-5.6003 7.3288 4.7858 16.064 8.6329 25.913 9.8778-18.744 11.819-38.444 15.367-50.464 13.601-3.8686-0.56688-6.9027-1.645-8.9204-3.1514-1.2626-4.8344 3.5567-12.652 10.744-22.496 0.53232-0.72704 1.0768-1.4652 1.6317-2.214 1.2987 5.5005 3.4787 10.993 6.2252 16.269-2.0136-7.0045-3.2199-14.047-3.0494-20.53 6.7306-9.0169 13.879-18.678 19.862-29.241 0.12399 0.70665 0.25711 1.4156 0.40762 2.1198 1.9177 9.1246 5.6872 17.697 10.954 25.65-4.2257-9.8637-6.8308-19.883-7.6016-30.001-0.11096-1.517-0.1719-3.0199-0.19277-4.4862 1.3819-2.8023 2.6142-5.5803 3.6822-8.3329 2.8424-7.3404 4.5705-13.981 5.831-19.932 0.8006 1.4485 1.6541 2.8844 2.5606 4.2791 4.942 7.6289 10.555 13.368 17.255 19.534-6.8977-6.8476-12.38-14.321-16.892-22.587-0.80568-1.4812-1.5648-2.9672-2.2721-4.4264 0.57464-2.9314 1.036-5.5355 1.5179-7.76 0.4781-1.8228 1.0204-3.471 1.7251-4.944 6.3826 5.2152 11.705 7.8745 18.841 12.353-6.4019-4.323-12.159-9.1263-17.564-14.554 0.65118-0.9232 1.4108-1.7478 2.3097-2.4744 4.8446 2.8612 9.0463 4.8063 14.312 7.5582-4.5025-2.5399-8.8017-5.3535-12.974-8.5072 2.538-1.5556 6.0021-2.5022 10.705-2.7734zm-0.13746 1.1261c2.6022 12.067 3.8363 24.972 1.6897 38.028-1.996 13.077-7.8472 26.844-17.778 39.2h-1e-5c-10.448 13.003-25.288 24.342-42.207 32.941-19.216 9.8439-41.017 16.805-62.87 21.372 0.63153 1.6987-0.2456 2.1086-1.4014 2.2803 0.55458 1.2714 1.6682 1.4273 2.9239 1.2767 21.232-4.7625 42.356-11.776 61.1-21.453 0-1e-6 1e-5 -2e-6 1e-5 -3e-6 17.262-8.8348 32.428-20.487 43.145-33.832v-1e-5c10.192-12.693 16.179-26.825 18.213-40.247 2.2044-13.587 0.81503-26.956-2.0159-39.398-0.5858-2.5903-0.93514-0.80848-0.80039-0.1679zm0.13746-1.1261c3.6709 1.6033 7.0765 3.5366 10.211 5.9151-2.895 1.0962-5.8737 1.8491-8.8215 2.2955 3.5119 0.075 7.2722 0.0126 11.102-0.4431 3.1747 2.7634 5.9733 6.0161 8.3181 9.7773-5.5144 2.464-11.672 3.4236-17.597 3.2065 6.0795 0.52252 12.845 0.91692 19.274-0.28179 2.6015 4.9544 4.4539 10.662 5.2991 16.941-0.66024 0.559-1.3486 1.093-2.0665 1.5943-5.7375 3.9626-12.79 5.9441-19.772 6.1483-1.8334 0.0551-3.652-5e-3 -5.4396-0.16316 2.0383 0.57059 4.1438 1.0265 6.298 1.3349 6.0685 0.86523 12.404 0.48786 18.281-1.5022 1.0886-0.3638 2.1525-0.7931 3.1881-1.2759 0.17177 6.4156-0.69675 13.242-2.8138 20.199-1.4003 0.77085-2.8816 1.4466-4.4205 2.0124-0.22494 0.0826-0.451 0.16276-0.67811 0.24047-8.8914 3.0131-18.6 2.4101-27.189-0.18524 7.7531 2.7606 16.597 5.1885 25.63 4.2957 1.5878-0.15249 3.1666-0.42476 4.7148-0.81214-4.9703 12.365-13.73 23.906-25.351 32.954-2.5946 0.37014-5.2246 0.53753-7.8588 0.51783v0c-8.9156-0.12664-17.347-2.3477-24.853-5.6003 7.3288 4.7858 16.064 8.6329 25.913 9.8778-18.744 11.819-38.444 15.367-50.464 13.601-3.8686-0.56688-6.9027-1.645-8.9204-3.1514-1.2626-4.8344 3.5567-12.652 10.744-22.496 0.53232-0.72704 1.0768-1.4652 1.6317-2.214 1.2987 5.5005 3.4787 10.993 6.2252 16.269-2.0136-7.0045-3.2199-14.047-3.0494-20.53 6.7306-9.0169 13.879-18.678 19.862-29.241 0.12399 0.70665 0.25711 1.4156 0.40762 2.1198 1.9177 9.1246 5.6872 17.697 10.954 25.65-4.2257-9.8637-6.8308-19.883-7.6016-30.001-0.11096-1.517-0.1719-3.0199-0.19277-4.4862 1.3819-2.8023 2.6142-5.5803 3.6822-8.3329 2.8424-7.3404 4.5705-13.981 5.831-19.932 0.8006 1.4485 1.6541 2.8844 2.5606 4.2791 4.942 7.6289 10.555 13.368 17.255 19.534-6.8977-6.8476-12.38-14.321-16.892-22.587-0.80568-1.4812-1.5648-2.9672-2.2721-4.4264 0.57464-2.9314 1.036-5.5355 1.5179-7.76 0.4781-1.8228 1.0204-3.471 1.7251-4.944 6.3826 5.2152 11.705 7.8745 18.841 12.353-6.4019-4.323-12.159-9.1263-17.564-14.554 0.65118-0.9232 1.4108-1.7478 2.3097-2.4744 4.8446 2.8612 9.0463 4.8063 14.312 7.5582-4.5025-2.5399-8.8017-5.3535-12.974-8.5072 2.538-1.5556 6.0021-2.5022 10.705-2.7734zm-199.67 255.26c-2.6022-12.067-3.8363-24.972-1.6897-38.028 1.996-13.077 7.8472-26.844 17.778-39.2 1e-5 -2e-6 1e-5 -5e-6 1e-5 -8e-6 10.448-13.003 25.288-24.342 42.207-32.941 19.216-9.8439 41.017-16.805 62.87-21.372-0.63153-1.6987 0.2456-2.1086 1.4014-2.2803-0.55457-1.2714-1.6682-1.4273-2.9239-1.2767-21.232 4.7625-42.356 11.776-61.1 21.453v3e-6c-17.262 8.8348-32.428 20.487-43.145 33.832 0 3e-6 -1e-5 6e-6 -1e-5 9e-6 -10.192 12.693-16.179 26.825-18.213 40.247-2.2044 13.587-0.81503 26.956 2.0159 39.398 0.58581 2.5903 0.93515 0.80848 0.80039 0.1679zm-0.13745 1.1261c-3.6709-1.6033-7.0766-3.5366-10.211-5.9151 2.895-1.0962 5.8737-1.8491 8.8215-2.2955-3.5119-0.075-7.2722-0.01261-11.102 0.44309-3.1747-2.7634-5.9733-6.0161-8.318-9.7773 5.5144-2.464 11.672-3.4236 17.597-3.2065-6.0795-0.52252-12.845-0.91693-19.274 0.28179-2.6015-4.9544-4.454-10.662-5.2991-16.941 0.66024-0.559 1.3486-1.093 2.0665-1.5943 5.7375-3.9626 12.79-5.9441 19.772-6.1483 1.8334-0.05511 3.652 0.0052 5.4396 0.16316-2.0383-0.57059-4.1438-1.0265-6.298-1.3349-6.0685-0.86523-12.404-0.48786-18.281 1.5021-1.0886 0.3638-2.1525 0.7931-3.1881 1.2759-0.17177-6.4156 0.69675-13.242 2.8138-20.199 1.4002-0.77085 2.8816-1.4466 4.4205-2.0124 0.22494-0.082586 0.451-0.16275 0.67811-0.24047 8.8914-3.0131 18.6-2.4101 27.189 0.18524-7.7531-2.7606-16.597-5.1885-25.63-4.2957-1.5878 0.1525-3.1666 0.42476-4.7148 0.81214 4.9703-12.365 13.73-23.906 25.351-32.954 2.5946-0.37014 5.2246-0.53753 7.8588-0.51782v0c8.9156 0.12664 17.347 2.3477 24.853 5.6003-7.3288-4.7858-16.064-8.6329-25.913-9.8778 18.744-11.819 38.444-15.367 50.464-13.601 3.8687 0.56688 6.9027 1.645 8.9204 3.1514 1.2626 4.8344-3.5567 12.652-10.744 22.496-0.53233 0.72705-1.0768 1.4652-1.6317 2.214-1.2987-5.5005-3.4787-10.993-6.2252-16.269 2.0136 7.0045 3.2199 14.047 3.0494 20.53-6.7306 9.0169-13.879 18.678-19.862 29.241-0.12399-0.70666-0.2571-1.4156-0.40762-2.1198-1.9177-9.1246-5.6872-17.697-10.954-25.65 4.2257 9.8637 6.8308 19.883 7.6016 30.001 0.11096 1.517 0.1719 3.0199 0.19277 4.4863-1.3819 2.8023-2.6142 5.5803-3.6822 8.3329-2.8424 7.3404-4.5705 13.981-5.831 19.932-0.80059-1.4485-1.6541-2.8844-2.5606-4.2791-4.942-7.6289-10.555-13.368-17.255-19.534 6.8977 6.8476 12.38 14.321 16.892 22.587 0.80569 1.4812 1.5648 2.9672 2.2721 4.4264-0.57465 2.9314-1.036 5.5355-1.5179 7.76-0.47811 1.8228-1.0204 3.4711-1.7251 4.944-6.3826-5.2152-11.705-7.8745-18.841-12.353 6.4019 4.323 12.159 9.1263 17.564 14.554-0.65118 0.92319-1.4108 1.7478-2.3097 2.4744-4.8446-2.8612-9.0464-4.8063-14.312-7.5582 4.5025 2.5399 8.8017 5.3535 12.974 8.5072-2.538 1.5556-6.0021 2.5022-10.705 2.7734zm0.13745-1.1261c-2.6022-12.067-3.8363-24.972-1.6897-38.028 1.996-13.077 7.8472-26.844 17.778-39.2 1e-5 -2e-6 1e-5 -5e-6 1e-5 -8e-6 10.448-13.003 25.288-24.342 42.207-32.941 19.216-9.8439 41.017-16.805 62.87-21.372-0.63153-1.6987 0.2456-2.1086 1.4014-2.2803-0.55457-1.2714-1.6682-1.4273-2.9239-1.2767-21.232 4.7625-42.356 11.776-61.1 21.453v3e-6c-17.262 8.8348-32.428 20.487-43.145 33.832 0 3e-6 -1e-5 6e-6 -1e-5 9e-6 -10.192 12.693-16.179 26.825-18.213 40.247-2.2044 13.587-0.81503 26.956 2.0159 39.398 0.58581 2.5903 0.93515 0.80848 0.80039 0.1679zm-0.13745 1.1261c-3.6709-1.6033-7.0766-3.5366-10.211-5.9151 2.895-1.0962 5.8737-1.8491 8.8215-2.2955-3.5119-0.075-7.2722-0.01261-11.102 0.44309-3.1747-2.7634-5.9733-6.0161-8.318-9.7773 5.5144-2.464 11.672-3.4236 17.597-3.2065-6.0795-0.52252-12.845-0.91693-19.274 0.28179-2.6015-4.9544-4.454-10.662-5.2991-16.941 0.66024-0.559 1.3486-1.093 2.0665-1.5943 5.7375-3.9626 12.79-5.9441 19.772-6.1483 1.8334-0.05511 3.652 0.0052 5.4396 0.16316-2.0383-0.57059-4.1438-1.0265-6.298-1.3349-6.0685-0.86523-12.404-0.48786-18.281 1.5021-1.0886 0.3638-2.1525 0.7931-3.1881 1.2759-0.17177-6.4156 0.69675-13.242 2.8138-20.199 1.4002-0.77085 2.8816-1.4466 4.4205-2.0124 0.22494-0.082586 0.451-0.16275 0.67811-0.24047 8.8914-3.0131 18.6-2.4101 27.189 0.18524-7.7531-2.7606-16.597-5.1885-25.63-4.2957-1.5878 0.1525-3.1666 0.42476-4.7148 0.81214 4.9703-12.365 13.73-23.906 25.351-32.954 2.5946-0.37014 5.2246-0.53753 7.8588-0.51782v0c8.9156 0.12664 17.347 2.3477 24.853 5.6003-7.3288-4.7858-16.064-8.6329-25.913-9.8778 18.744-11.819 38.444-15.367 50.464-13.601 3.8687 0.56688 6.9027 1.645 8.9204 3.1514 1.2626 4.8344-3.5567 12.652-10.744 22.496-0.53233 0.72705-1.0768 1.4652-1.6317 2.214-1.2987-5.5005-3.4787-10.993-6.2252-16.269 2.0136 7.0045 3.2199 14.047 3.0494 20.53-6.7306 9.0169-13.879 18.678-19.862 29.241-0.12399-0.70666-0.2571-1.4156-0.40762-2.1198-1.9177-9.1246-5.6872-17.697-10.954-25.65 4.2257 9.8637 6.8308 19.883 7.6016 30.001 0.11096 1.517 0.1719 3.0199 0.19277 4.4863-1.3819 2.8023-2.6142 5.5803-3.6822 8.3329-2.8424 7.3404-4.5705 13.981-5.831 19.932-0.80059-1.4485-1.6541-2.8844-2.5606-4.2791-4.942-7.6289-10.555-13.368-17.255-19.534 6.8977 6.8476 12.38 14.321 16.892 22.587 0.80569 1.4812 1.5648 2.9672 2.2721 4.4264-0.57465 2.9314-1.036 5.5355-1.5179 7.76-0.47811 1.8228-1.0204 3.4711-1.7251 4.944-6.3826-5.2152-11.705-7.8745-18.841-12.353 6.4019 4.323 12.159 9.1263 17.564 14.554-0.65118 0.92319-1.4108 1.7478-2.3097 2.4744-4.8446-2.8612-9.0464-4.8063-14.312-7.5582 4.5025 2.5399 8.8017 5.3535 12.974 8.5072-2.538 1.5556-6.0021 2.5022-10.705 2.7734zm199.67-1.1261c2.6022-12.067 3.8363-24.972 1.6897-38.028-1.996-13.077-7.8472-26.844-17.778-39.2 0-2e-6 -1e-5 -5e-6 -1e-5 -8e-6 -10.448-13.003-25.288-24.342-42.207-32.941-19.216-9.8439-41.017-16.805-62.87-21.372 0.63153-1.6987-0.2456-2.1086-1.4014-2.2803 0.55458-1.2714 1.6682-1.4273 2.9239-1.2767 21.232 4.7625 42.356 11.776 61.1 21.453 0 1e-6 1e-5 2e-6 1e-5 3e-6 17.262 8.8348 32.428 20.487 43.145 33.832v9e-6c10.192 12.693 16.179 26.825 18.213 40.247 2.2044 13.587 0.81503 26.956-2.0159 39.398-0.5858 2.5903-0.93514 0.80848-0.80039 0.1679zm0.13746 1.1261c3.6709-1.6033 7.0765-3.5366 10.211-5.9151-2.895-1.0962-5.8737-1.8491-8.8215-2.2955 3.5119-0.075 7.2722-0.01261 11.102 0.44309 3.1747-2.7634 5.9733-6.0161 8.3181-9.7773-5.5144-2.464-11.672-3.4236-17.597-3.2065 6.0795-0.52252 12.845-0.91693 19.274 0.28179 2.6015-4.9544 4.4539-10.662 5.2991-16.941-0.66024-0.559-1.3486-1.093-2.0665-1.5943-5.7375-3.9626-12.79-5.9441-19.772-6.1483-1.8334-0.05511-3.652 0.0052-5.4396 0.16316 2.0383-0.57059 4.1438-1.0265 6.298-1.3349 6.0685-0.86523 12.404-0.48786 18.281 1.5021 1.0886 0.3638 2.1525 0.7931 3.1881 1.2759 0.17177-6.4156-0.69675-13.242-2.8138-20.199-1.4003-0.77085-2.8816-1.4466-4.4205-2.0124-0.22494-0.082586-0.451-0.16275-0.67811-0.24047-8.8914-3.0131-18.6-2.4101-27.189 0.18524 7.7531-2.7606 16.597-5.1885 25.63-4.2957 1.5878 0.1525 3.1666 0.42476 4.7148 0.81214-4.9703-12.365-13.73-23.906-25.351-32.954-2.5946-0.37014-5.2246-0.53753-7.8588-0.51782v0c-8.9156 0.12664-17.347 2.3477-24.853 5.6003 7.3288-4.7858 16.064-8.6329 25.913-9.8778-18.744-11.819-38.444-15.367-50.464-13.601-3.8686 0.56688-6.9027 1.645-8.9204 3.1514-1.2626 4.8344 3.5567 12.652 10.744 22.496 0.53232 0.72705 1.0768 1.4652 1.6317 2.214 1.2987-5.5005 3.4787-10.993 6.2252-16.269-2.0136 7.0045-3.2199 14.047-3.0494 20.53 6.7306 9.0169 13.879 18.678 19.862 29.241 0.12399-0.70666 0.25711-1.4156 0.40762-2.1198 1.9177-9.1246 5.6872-17.697 10.954-25.65-4.2257 9.8637-6.8308 19.883-7.6016 30.001-0.11096 1.517-0.1719 3.0199-0.19277 4.4863 1.3819 2.8023 2.6142 5.5803 3.6822 8.3329 2.8424 7.3404 4.5705 13.981 5.831 19.932 0.8006-1.4485 1.6541-2.8844 2.5606-4.2791 4.942-7.6289 10.555-13.368 17.255-19.534-6.8977 6.8476-12.38 14.321-16.892 22.587-0.80568 1.4812-1.5648 2.9672-2.2721 4.4264 0.57464 2.9314 1.036 5.5355 1.5179 7.76 0.4781 1.8228 1.0204 3.4711 1.7251 4.944 6.3826-5.2152 11.705-7.8745 18.841-12.353-6.4019 4.323-12.159 9.1263-17.564 14.554 0.65118 0.92319 1.4108 1.7478 2.3097 2.4744 4.8446-2.8612 9.0463-4.8063 14.312-7.5582-4.5025 2.5399-8.8017 5.3535-12.974 8.5072 2.538 1.5556 6.0021 2.5022 10.705 2.7734zm-0.13746-1.1261c2.6022-12.067 3.8363-24.972 1.6897-38.028-1.996-13.077-7.8472-26.844-17.778-39.2 0-2e-6 -1e-5 -5e-6 -1e-5 -8e-6 -10.448-13.003-25.288-24.342-42.207-32.941-19.216-9.8439-41.017-16.805-62.87-21.372 0.63153-1.6987-0.2456-2.1086-1.4014-2.2803 0.55458-1.2714 1.6682-1.4273 2.9239-1.2767 21.232 4.7625 42.356 11.776 61.1 21.453 0 1e-6 1e-5 2e-6 1e-5 3e-6 17.262 8.8348 32.428 20.487 43.145 33.832v9e-6c10.192 12.693 16.179 26.825 18.213 40.247 2.2044 13.587 0.81503 26.956-2.0159 39.398-0.5858 2.5903-0.93514 0.80848-0.80039 0.1679zm0.13746 1.1261c3.6709-1.6033 7.0765-3.5366 10.211-5.9151-2.895-1.0962-5.8737-1.8491-8.8215-2.2955 3.5119-0.075 7.2722-0.01261 11.102 0.44309 3.1747-2.7634 5.9733-6.0161 8.3181-9.7773-5.5144-2.464-11.672-3.4236-17.597-3.2065 6.0795-0.52252 12.845-0.91693 19.274 0.28179 2.6015-4.9544 4.4539-10.662 5.2991-16.941-0.66024-0.559-1.3486-1.093-2.0665-1.5943-5.7375-3.9626-12.79-5.9441-19.772-6.1483-1.8334-0.05511-3.652 0.0052-5.4396 0.16316 2.0383-0.57059 4.1438-1.0265 6.298-1.3349 6.0685-0.86523 12.404-0.48786 18.281 1.5021 1.0886 0.3638 2.1525 0.7931 3.1881 1.2759 0.17177-6.4156-0.69675-13.242-2.8138-20.199-1.4003-0.77085-2.8816-1.4466-4.4205-2.0124-0.22494-0.082586-0.451-0.16275-0.67811-0.24047-8.8914-3.0131-18.6-2.4101-27.189 0.18524 7.7531-2.7606 16.597-5.1885 25.63-4.2957 1.5878 0.1525 3.1666 0.42476 4.7148 0.81214-4.9703-12.365-13.73-23.906-25.351-32.954-2.5946-0.37014-5.2246-0.53753-7.8588-0.51782v0c-8.9156 0.12664-17.347 2.3477-24.853 5.6003 7.3288-4.7858 16.064-8.6329 25.913-9.8778-18.744-11.819-38.444-15.367-50.464-13.601-3.8686 0.56688-6.9027 1.645-8.9204 3.1514-1.2626 4.8344 3.5567 12.652 10.744 22.496 0.53232 0.72705 1.0768 1.4652 1.6317 2.214 1.2987-5.5005 3.4787-10.993 6.2252-16.269-2.0136 7.0045-3.2199 14.047-3.0494 20.53 6.7306 9.0169 13.879 18.678 19.862 29.241 0.12399-0.70666 0.25711-1.4156 0.40762-2.1198 1.9177-9.1246 5.6872-17.697 10.954-25.65-4.2257 9.8637-6.8308 19.883-7.6016 30.001-0.11096 1.517-0.1719 3.0199-0.19277 4.4863 1.3819 2.8023 2.6142 5.5803 3.6822 8.3329 2.8424 7.3404 4.5705 13.981 5.831 19.932 0.8006-1.4485 1.6541-2.8844 2.5606-4.2791 4.942-7.6289 10.555-13.368 17.255-19.534-6.8977 6.8476-12.38 14.321-16.892 22.587-0.80568 1.4812-1.5648 2.9672-2.2721 4.4264 0.57464 2.9314 1.036 5.5355 1.5179 7.76 0.4781 1.8228 1.0204 3.4711 1.7251 4.944 6.3826-5.2152 11.705-7.8745 18.841-12.353-6.4019 4.323-12.159 9.1263-17.564 14.554 0.65118 0.92319 1.4108 1.7478 2.3097 2.4744 4.8446-2.8612 9.0463-4.8063 14.312-7.5582-4.5025 2.5399-8.8017 5.3535-12.974 8.5072 2.538 1.5556 6.0021 2.5022 10.705 2.7734z"
         fill="#fff"
         opacity="1"
         stroke="#000"
         stroke-linecap="round"
         stroke-miterlimit="12.3"
         stroke-width=".052917"
         id="path27" />
    </g>
    <g
       class="UnoptimicedTransforms"
       transform="matrix(-.72883 -.72883 .77828 -.77828 450.79 452.38)"
       id="g33">
      <g
         stroke="#000"
         id="g32">
        <g
           transform="translate(480.47 311.02)"
           opacity=".80046"
           stroke="#000"
           stroke-linecap="round"
           stroke-miterlimit="12.3"
           stroke-width=".052917"
           id="g31">
          <path
             d="m-320.05-197.91c-3.6709 1.6033-7.0766 3.5366-10.211 5.9151 2.895 1.0962 5.8737 1.8491 8.8215 2.2955-3.5119 0.075-7.2722 0.0126-11.102-0.4431-3.1747 2.7634-5.9733 6.0161-8.318 9.7773 5.5144 2.464 11.672 3.4236 17.597 3.2065-6.0795 0.52252-12.845 0.91692-19.274-0.28179-2.6015 4.9544-4.454 10.662-5.2991 16.941 0.66024 0.559 1.3486 1.093 2.0665 1.5943 5.7375 3.9626 12.79 5.9441 19.772 6.1483 1.8334 0.0551 3.652-5e-3 5.4396-0.16316-2.0383 0.57059-4.1438 1.0265-6.298 1.3349-6.0685 0.86523-12.404 0.48786-18.281-1.5022-1.0886-0.3638-2.1525-0.7931-3.1881-1.2759-0.17177 6.4156 0.69675 13.242 2.8138 20.199 1.4002 0.77085 2.8816 1.4466 4.4205 2.0124 0.22494 0.0826 0.451 0.16276 0.67811 0.24047 8.8914 3.0131 18.6 2.4101 27.189-0.18524-7.7531 2.7606-16.597 5.1885-25.63 4.2957-1.5878-0.15249-3.1666-0.42476-4.7148-0.81214 4.9703 12.365 13.73 23.906 25.351 32.954 2.5946 0.37014 5.2246 0.53753 7.8588 0.51783 8.9156-0.12664 17.347-2.3477 24.853-5.6003-7.3288 4.7858-16.064 8.6329-25.913 9.8778 18.744 11.819 38.444 15.367 50.464 13.601 3.8687-0.56688 6.9027-1.645 8.9204-3.1514 1.2626-4.8344-3.5567-12.652-10.744-22.496-0.53233-0.72704-1.0768-1.4652-1.6317-2.214-1.2987 5.5005-3.4787 10.993-6.2252 16.269 2.0136-7.0045 3.2199-14.047 3.0494-20.53-6.7306-9.0169-13.879-18.678-19.862-29.241-0.12399 0.70665-0.2571 1.4156-0.40762 2.1198-1.9177 9.1246-5.6872 17.697-10.954 25.65 4.2257-9.8637 6.8308-19.883 7.6016-30.001 0.11096-1.517 0.1719-3.0199 0.19277-4.4862-1.3819-2.8023-2.6142-5.5803-3.6822-8.3329-2.8424-7.3404-4.5705-13.981-5.831-19.932-0.80059 1.4485-1.6541 2.8844-2.5606 4.2791-4.942 7.6289-10.555 13.368-17.255 19.534 6.8977-6.8476 12.38-14.321 16.892-22.587 0.80569-1.4812 1.5648-2.9672 2.2721-4.4264-0.57465-2.9314-1.036-5.5355-1.5179-7.76-0.47811-1.8228-1.0204-3.471-1.7251-4.944-6.3826 5.2152-11.705 7.8745-18.841 12.353 6.4019-4.323 12.159-9.1263 17.564-14.554-0.65118-0.9232-1.4108-1.7478-2.3097-2.4744-4.8446 2.8612-9.0464 4.8063-14.312 7.5582 4.5025-2.5399 8.8017-5.3535 12.974-8.5072-2.538-1.5556-6.0021-2.5022-10.705-2.7734z"
             opacity=".5"
             id="path28" />
          <path
             d="m-319.92-196.78c-2.6022 12.067-3.8363 24.972-1.6897 38.028 1.996 13.077 7.8472 26.844 17.778 39.2h1e-5c10.448 13.003 25.288 24.342 42.207 32.941 19.216 9.8439 41.017 16.805 62.87 21.372-0.63153 1.6987 0.2456 2.1086 1.4014 2.2803-0.55457 1.2714-1.6682 1.4273-2.9239 1.2767-21.232-4.7625-42.356-11.776-61.1-21.453v-3e-6c-17.262-8.8348-32.428-20.487-43.145-33.832l-1e-5 -1e-5c-10.192-12.693-16.179-26.825-18.213-40.247-2.2044-13.587-0.81503-26.956 2.0159-39.398 0.58581-2.5903 0.93515-0.80848 0.80039-0.1679z"
             opacity="1"
             id="path29" />
          <path
             d="m-320.05-197.91c-3.6709 1.6033-7.0766 3.5366-10.211 5.9151 2.895 1.0962 5.8737 1.8491 8.8215 2.2955-3.5119 0.075-7.2722 0.0126-11.102-0.4431-3.1747 2.7634-5.9733 6.0161-8.318 9.7773 5.5144 2.464 11.672 3.4236 17.597 3.2065-6.0795 0.52252-12.845 0.91692-19.274-0.28179-2.6015 4.9544-4.454 10.662-5.2991 16.941 0.66024 0.559 1.3486 1.093 2.0665 1.5943 5.7375 3.9626 12.79 5.9441 19.772 6.1483 1.8334 0.0551 3.652-5e-3 5.4396-0.16316-2.0383 0.57059-4.1438 1.0265-6.298 1.3349-6.0685 0.86523-12.404 0.48786-18.281-1.5022-1.0886-0.3638-2.1525-0.7931-3.1881-1.2759-0.17177 6.4156 0.69675 13.242 2.8138 20.199 1.4002 0.77085 2.8816 1.4466 4.4205 2.0124 0.22494 0.0826 0.451 0.16276 0.67811 0.24047 8.8914 3.0131 18.6 2.4101 27.189-0.18524-7.7531 2.7606-16.597 5.1885-25.63 4.2957-1.5878-0.15249-3.1666-0.42476-4.7148-0.81214 4.9703 12.365 13.73 23.906 25.351 32.954 2.5946 0.37014 5.2246 0.53753 7.8588 0.51783 8.9156-0.12664 17.347-2.3477 24.853-5.6003-7.3288 4.7858-16.064 8.6329-25.913 9.8778 18.744 11.819 38.444 15.367 50.464 13.601 3.8687-0.56688 6.9027-1.645 8.9204-3.1514 1.2626-4.8344-3.5567-12.652-10.744-22.496-0.53233-0.72704-1.0768-1.4652-1.6317-2.214-1.2987 5.5005-3.4787 10.993-6.2252 16.269 2.0136-7.0045 3.2199-14.047 3.0494-20.53-6.7306-9.0169-13.879-18.678-19.862-29.241-0.12399 0.70665-0.2571 1.4156-0.40762 2.1198-1.9177 9.1246-5.6872 17.697-10.954 25.65 4.2257-9.8637 6.8308-19.883 7.6016-30.001 0.11096-1.517 0.1719-3.0199 0.19277-4.4862-1.3819-2.8023-2.6142-5.5803-3.6822-8.3329-2.8424-7.3404-4.5705-13.981-5.831-19.932-0.80059 1.4485-1.6541 2.8844-2.5606 4.2791-4.942 7.6289-10.555 13.368-17.255 19.534 6.8977-6.8476 12.38-14.321 16.892-22.587 0.80569-1.4812 1.5648-2.9672 2.2721-4.4264-0.57465-2.9314-1.036-5.5355-1.5179-7.76-0.47811-1.8228-1.0204-3.471-1.7251-4.944-6.3826 5.2152-11.705 7.8745-18.841 12.353 6.4019-4.323 12.159-9.1263 17.564-14.554-0.65118-0.9232-1.4108-1.7478-2.3097-2.4744-4.8446 2.8612-9.0464 4.8063-14.312 7.5582 4.5025-2.5399 8.8017-5.3535 12.974-8.5072-2.538-1.5556-6.0021-2.5022-10.705-2.7734z"
             opacity=".5"
             id="path30" />
          <path
             d="m-319.92-196.78c-2.6022 12.067-3.8363 24.972-1.6897 38.028 1.996 13.077 7.8472 26.844 17.778 39.2h1e-5c10.448 13.003 25.288 24.342 42.207 32.941 19.216 9.8439 41.017 16.805 62.87 21.372-0.63153 1.6987 0.2456 2.1086 1.4014 2.2803-0.55457 1.2714-1.6682 1.4273-2.9239 1.2767-21.232-4.7625-42.356-11.776-61.1-21.453v-3e-6c-17.262-8.8348-32.428-20.487-43.145-33.832l-1e-5 -1e-5c-10.192-12.693-16.179-26.825-18.213-40.247-2.2044-13.587-0.81503-26.956 2.0159-39.398 0.58581-2.5903 0.93515-0.80848 0.80039-0.1679z"
             opacity="1"
             id="path31" />
        </g>
      </g>
    </g>
    <g
       class="UnoptimicedTransforms"
       transform="matrix(.70243 .70243 -.75008 .75008 56.577 -145.76)"
       fill="#fff"
       id="g38">
      <g
         fill="#fff"
         stroke="#000"
         id="g37">
        <g
           transform="translate(480.47 311.02)"
           fill="#fff"
           opacity=".80046"
           stroke="#000"
           stroke-linecap="round"
           stroke-miterlimit="12.3"
           stroke-width=".052917"
           id="g36">
          <path
             d="m-320.05-197.91c-3.6709 1.6033-7.0766 3.5366-10.211 5.9151 2.895 1.0962 5.8737 1.8491 8.8215 2.2955-3.5119 0.075-7.2722 0.0126-11.102-0.4431-3.1747 2.7634-5.9733 6.0161-8.318 9.7773 5.5144 2.464 11.672 3.4236 17.597 3.2065-6.0795 0.52252-12.845 0.91692-19.274-0.28179-2.6015 4.9544-4.454 10.662-5.2991 16.941 0.66024 0.559 1.3486 1.093 2.0665 1.5943 5.7375 3.9626 12.79 5.9441 19.772 6.1483 1.8334 0.0551 3.652-5e-3 5.4396-0.16316-2.0383 0.57059-4.1438 1.0265-6.298 1.3349-6.0685 0.86523-12.404 0.48786-18.281-1.5022-1.0886-0.3638-2.1525-0.7931-3.1881-1.2759-0.17177 6.4156 0.69675 13.242 2.8138 20.199 1.4002 0.77085 2.8816 1.4466 4.4205 2.0124 0.22494 0.0826 0.451 0.16276 0.67811 0.24047 8.8914 3.0131 18.6 2.4101 27.189-0.18524-7.7531 2.7606-16.597 5.1885-25.63 4.2957-1.5878-0.15249-3.1666-0.42476-4.7148-0.81214 4.9703 12.365 13.73 23.906 25.351 32.954 2.5946 0.37014 5.2246 0.53753 7.8588 0.51783 8.9156-0.12664 17.347-2.3477 24.853-5.6003-7.3288 4.7858-16.064 8.6329-25.913 9.8778 18.744 11.819 38.444 15.367 50.464 13.601 3.8687-0.56688 6.9027-1.645 8.9204-3.1514 1.2626-4.8344-3.5567-12.652-10.744-22.496-0.53233-0.72704-1.0768-1.4652-1.6317-2.214-1.2987 5.5005-3.4787 10.993-6.2252 16.269 2.0136-7.0045 3.2199-14.047 3.0494-20.53-6.7306-9.0169-13.879-18.678-19.862-29.241-0.12399 0.70665-0.2571 1.4156-0.40762 2.1198-1.9177 9.1246-5.6872 17.697-10.954 25.65 4.2257-9.8637 6.8308-19.883 7.6016-30.001 0.11096-1.517 0.1719-3.0199 0.19277-4.4862-1.3819-2.8023-2.6142-5.5803-3.6822-8.3329-2.8424-7.3404-4.5705-13.981-5.831-19.932-0.80059 1.4485-1.6541 2.8844-2.5606 4.2791-4.942 7.6289-10.555 13.368-17.255 19.534 6.8977-6.8476 12.38-14.321 16.892-22.587 0.80569-1.4812 1.5648-2.9672 2.2721-4.4264-0.57465-2.9314-1.036-5.5355-1.5179-7.76-0.47811-1.8228-1.0204-3.471-1.7251-4.944-6.3826 5.2152-11.705 7.8745-18.841 12.353 6.4019-4.323 12.159-9.1263 17.564-14.554-0.65118-0.9232-1.4108-1.7478-2.3097-2.4744-4.8446 2.8612-9.0464 4.8063-14.312 7.5582 4.5025-2.5399 8.8017-5.3535 12.974-8.5072-2.538-1.5556-6.0021-2.5022-10.705-2.7734z"
             opacity=".5"
             id="path33" />
          <path
             d="m-319.92-196.78c-2.6022 12.067-3.8363 24.972-1.6897 38.028 1.996 13.077 7.8472 26.844 17.778 39.2h1e-5c10.448 13.003 25.288 24.342 42.207 32.941 19.216 9.8439 41.017 16.805 62.87 21.372-0.63153 1.6987 0.2456 2.1086 1.4014 2.2803-0.55457 1.2714-1.6682 1.4273-2.9239 1.2767-21.232-4.7625-42.356-11.776-61.1-21.453v-3e-6c-17.262-8.8348-32.428-20.487-43.145-33.832l-1e-5 -1e-5c-10.192-12.693-16.179-26.825-18.213-40.247-2.2044-13.587-0.81503-26.956 2.0159-39.398 0.58581-2.5903 0.93515-0.80848 0.80039-0.1679z"
             opacity="1"
             id="path34" />
          <path
             d="m-320.05-197.91c-3.6709 1.6033-7.0766 3.5366-10.211 5.9151 2.895 1.0962 5.8737 1.8491 8.8215 2.2955-3.5119 0.075-7.2722 0.0126-11.102-0.4431-3.1747 2.7634-5.9733 6.0161-8.318 9.7773 5.5144 2.464 11.672 3.4236 17.597 3.2065-6.0795 0.52252-12.845 0.91692-19.274-0.28179-2.6015 4.9544-4.454 10.662-5.2991 16.941 0.66024 0.559 1.3486 1.093 2.0665 1.5943 5.7375 3.9626 12.79 5.9441 19.772 6.1483 1.8334 0.0551 3.652-5e-3 5.4396-0.16316-2.0383 0.57059-4.1438 1.0265-6.298 1.3349-6.0685 0.86523-12.404 0.48786-18.281-1.5022-1.0886-0.3638-2.1525-0.7931-3.1881-1.2759-0.17177 6.4156 0.69675 13.242 2.8138 20.199 1.4002 0.77085 2.8816 1.4466 4.4205 2.0124 0.22494 0.0826 0.451 0.16276 0.67811 0.24047 8.8914 3.0131 18.6 2.4101 27.189-0.18524-7.7531 2.7606-16.597 5.1885-25.63 4.2957-1.5878-0.15249-3.1666-0.42476-4.7148-0.81214 4.9703 12.365 13.73 23.906 25.351 32.954 2.5946 0.37014 5.2246 0.53753 7.8588 0.51783 8.9156-0.12664 17.347-2.3477 24.853-5.6003-7.3288 4.7858-16.064 8.6329-25.913 9.8778 18.744 11.819 38.444 15.367 50.464 13.601 3.8687-0.56688 6.9027-1.645 8.9204-3.1514 1.2626-4.8344-3.5567-12.652-10.744-22.496-0.53233-0.72704-1.0768-1.4652-1.6317-2.214-1.2987 5.5005-3.4787 10.993-6.2252 16.269 2.0136-7.0045 3.2199-14.047 3.0494-20.53-6.7306-9.0169-13.879-18.678-19.862-29.241-0.12399 0.70665-0.2571 1.4156-0.40762 2.1198-1.9177 9.1246-5.6872 17.697-10.954 25.65 4.2257-9.8637 6.8308-19.883 7.6016-30.001 0.11096-1.517 0.1719-3.0199 0.19277-4.4862-1.3819-2.8023-2.6142-5.5803-3.6822-8.3329-2.8424-7.3404-4.5705-13.981-5.831-19.932-0.80059 1.4485-1.6541 2.8844-2.5606 4.2791-4.942 7.6289-10.555 13.368-17.255 19.534 6.8977-6.8476 12.38-14.321 16.892-22.587 0.80569-1.4812 1.5648-2.9672 2.2721-4.4264-0.57465-2.9314-1.036-5.5355-1.5179-7.76-0.47811-1.8228-1.0204-3.471-1.7251-4.944-6.3826 5.2152-11.705 7.8745-18.841 12.353 6.4019-4.323 12.159-9.1263 17.564-14.554-0.65118-0.9232-1.4108-1.7478-2.3097-2.4744-4.8446 2.8612-9.0464 4.8063-14.312 7.5582 4.5025-2.5399 8.8017-5.3535 12.974-8.5072-2.538-1.5556-6.0021-2.5022-10.705-2.7734z"
             opacity=".5"
             id="path35" />
          <path
             d="m-319.92-196.78c-2.6022 12.067-3.8363 24.972-1.6897 38.028 1.996 13.077 7.8472 26.844 17.778 39.2h1e-5c10.448 13.003 25.288 24.342 42.207 32.941 19.216 9.8439 41.017 16.805 62.87 21.372-0.63153 1.6987 0.2456 2.1086 1.4014 2.2803-0.55457 1.2714-1.6682 1.4273-2.9239 1.2767-21.232-4.7625-42.356-11.776-61.1-21.453v-3e-6c-17.262-8.8348-32.428-20.487-43.145-33.832l-1e-5 -1e-5c-10.192-12.693-16.179-26.825-18.213-40.247-2.2044-13.587-0.81503-26.956 2.0159-39.398 0.58581-2.5903 0.93515-0.80848 0.80039-0.1679z"
             opacity="1"
             id="path36" />
        </g>
      </g>
    </g>
    <g
       class="UnoptimicedTransforms"
       transform="matrix(-.70243 -.70243 .75008 -.75008 451.52 440.58)"
       fill="#fff"
       id="g43">
      <g
         fill="#fff"
         stroke="#000"
         id="g42">
        <g
           transform="translate(480.47 311.02)"
           fill="#fff"
           opacity=".80046"
           stroke="#000"
           stroke-linecap="round"
           stroke-miterlimit="12.3"
           stroke-width=".052917"
           id="g41">
          <path
             d="m-320.05-197.91c-3.6709 1.6033-7.0766 3.5366-10.211 5.9151 2.895 1.0962 5.8737 1.8491 8.8215 2.2955-3.5119 0.075-7.2722 0.0126-11.102-0.4431-3.1747 2.7634-5.9733 6.0161-8.318 9.7773 5.5144 2.464 11.672 3.4236 17.597 3.2065-6.0795 0.52252-12.845 0.91692-19.274-0.28179-2.6015 4.9544-4.454 10.662-5.2991 16.941 0.66024 0.559 1.3486 1.093 2.0665 1.5943 5.7375 3.9626 12.79 5.9441 19.772 6.1483 1.8334 0.0551 3.652-5e-3 5.4396-0.16316-2.0383 0.57059-4.1438 1.0265-6.298 1.3349-6.0685 0.86523-12.404 0.48786-18.281-1.5022-1.0886-0.3638-2.1525-0.7931-3.1881-1.2759-0.17177 6.4156 0.69675 13.242 2.8138 20.199 1.4002 0.77085 2.8816 1.4466 4.4205 2.0124 0.22494 0.0826 0.451 0.16276 0.67811 0.24047 8.8914 3.0131 18.6 2.4101 27.189-0.18524-7.7531 2.7606-16.597 5.1885-25.63 4.2957-1.5878-0.15249-3.1666-0.42476-4.7148-0.81214 4.9703 12.365 13.73 23.906 25.351 32.954 2.5946 0.37014 5.2246 0.53753 7.8588 0.51783 8.9156-0.12664 17.347-2.3477 24.853-5.6003-7.3288 4.7858-16.064 8.6329-25.913 9.8778 18.744 11.819 38.444 15.367 50.464 13.601 3.8687-0.56688 6.9027-1.645 8.9204-3.1514 1.2626-4.8344-3.5567-12.652-10.744-22.496-0.53233-0.72704-1.0768-1.4652-1.6317-2.214-1.2987 5.5005-3.4787 10.993-6.2252 16.269 2.0136-7.0045 3.2199-14.047 3.0494-20.53-6.7306-9.0169-13.879-18.678-19.862-29.241-0.12399 0.70665-0.2571 1.4156-0.40762 2.1198-1.9177 9.1246-5.6872 17.697-10.954 25.65 4.2257-9.8637 6.8308-19.883 7.6016-30.001 0.11096-1.517 0.1719-3.0199 0.19277-4.4862-1.3819-2.8023-2.6142-5.5803-3.6822-8.3329-2.8424-7.3404-4.5705-13.981-5.831-19.932-0.80059 1.4485-1.6541 2.8844-2.5606 4.2791-4.942 7.6289-10.555 13.368-17.255 19.534 6.8977-6.8476 12.38-14.321 16.892-22.587 0.80569-1.4812 1.5648-2.9672 2.2721-4.4264-0.57465-2.9314-1.036-5.5355-1.5179-7.76-0.47811-1.8228-1.0204-3.471-1.7251-4.944-6.3826 5.2152-11.705 7.8745-18.841 12.353 6.4019-4.323 12.159-9.1263 17.564-14.554-0.65118-0.9232-1.4108-1.7478-2.3097-2.4744-4.8446 2.8612-9.0464 4.8063-14.312 7.5582 4.5025-2.5399 8.8017-5.3535 12.974-8.5072-2.538-1.5556-6.0021-2.5022-10.705-2.7734z"
             opacity=".5"
             id="path38" />
          <path
             d="m-319.92-196.78c-2.6022 12.067-3.8363 24.972-1.6897 38.028 1.996 13.077 7.8472 26.844 17.778 39.2h1e-5c10.448 13.003 25.288 24.342 42.207 32.941 19.216 9.8439 41.017 16.805 62.87 21.372-0.63153 1.6987 0.2456 2.1086 1.4014 2.2803-0.55457 1.2714-1.6682 1.4273-2.9239 1.2767-21.232-4.7625-42.356-11.776-61.1-21.453v-3e-6c-17.262-8.8348-32.428-20.487-43.145-33.832l-1e-5 -1e-5c-10.192-12.693-16.179-26.825-18.213-40.247-2.2044-13.587-0.81503-26.956 2.0159-39.398 0.58581-2.5903 0.93515-0.80848 0.80039-0.1679z"
             opacity="1"
             id="path39" />
          <path
             d="m-320.05-197.91c-3.6709 1.6033-7.0766 3.5366-10.211 5.9151 2.895 1.0962 5.8737 1.8491 8.8215 2.2955-3.5119 0.075-7.2722 0.0126-11.102-0.4431-3.1747 2.7634-5.9733 6.0161-8.318 9.7773 5.5144 2.464 11.672 3.4236 17.597 3.2065-6.0795 0.52252-12.845 0.91692-19.274-0.28179-2.6015 4.9544-4.454 10.662-5.2991 16.941 0.66024 0.559 1.3486 1.093 2.0665 1.5943 5.7375 3.9626 12.79 5.9441 19.772 6.1483 1.8334 0.0551 3.652-5e-3 5.4396-0.16316-2.0383 0.57059-4.1438 1.0265-6.298 1.3349-6.0685 0.86523-12.404 0.48786-18.281-1.5022-1.0886-0.3638-2.1525-0.7931-3.1881-1.2759-0.17177 6.4156 0.69675 13.242 2.8138 20.199 1.4002 0.77085 2.8816 1.4466 4.4205 2.0124 0.22494 0.0826 0.451 0.16276 0.67811 0.24047 8.8914 3.0131 18.6 2.4101 27.189-0.18524-7.7531 2.7606-16.597 5.1885-25.63 4.2957-1.5878-0.15249-3.1666-0.42476-4.7148-0.81214 4.9703 12.365 13.73 23.906 25.351 32.954 2.5946 0.37014 5.2246 0.53753 7.8588 0.51783 8.9156-0.12664 17.347-2.3477 24.853-5.6003-7.3288 4.7858-16.064 8.6329-25.913 9.8778 18.744 11.819 38.444 15.367 50.464 13.601 3.8687-0.56688 6.9027-1.645 8.9204-3.1514 1.2626-4.8344-3.5567-12.652-10.744-22.496-0.53233-0.72704-1.0768-1.4652-1.6317-2.214-1.2987 5.5005-3.4787 10.993-6.2252 16.269 2.0136-7.0045 3.2199-14.047 3.0494-20.53-6.7306-9.0169-13.879-18.678-19.862-29.241-0.12399 0.70665-0.2571 1.4156-0.40762 2.1198-1.9177 9.1246-5.6872 17.697-10.954 25.65 4.2257-9.8637 6.8308-19.883 7.6016-30.001 0.11096-1.517 0.1719-3.0199 0.19277-4.4862-1.3819-2.8023-2.6142-5.5803-3.6822-8.3329-2.8424-7.3404-4.5705-13.981-5.831-19.932-0.80059 1.4485-1.6541 2.8844-2.5606 4.2791-4.942 7.6289-10.555 13.368-17.255 19.534 6.8977-6.8476 12.38-14.321 16.892-22.587 0.80569-1.4812 1.5648-2.9672 2.2721-4.4264-0.57465-2.9314-1.036-5.5355-1.5179-7.76-0.47811-1.8228-1.0204-3.471-1.7251-4.944-6.3826 5.2152-11.705 7.8745-18.841 12.353 6.4019-4.323 12.159-9.1263 17.564-14.554-0.65118-0.9232-1.4108-1.7478-2.3097-2.4744-4.8446 2.8612-9.0464 4.8063-14.312 7.5582 4.5025-2.5399 8.8017-5.3535 12.974-8.5072-2.538-1.5556-6.0021-2.5022-10.705-2.7734z"
             opacity=".5"
             id="path40" />
          <path
             d="m-319.92-196.78c-2.6022 12.067-3.8363 24.972-1.6897 38.028 1.996 13.077 7.8472 26.844 17.778 39.2h1e-5c10.448 13.003 25.288 24.342 42.207 32.941 19.216 9.8439 41.017 16.805 62.87 21.372-0.63153 1.6987 0.2456 2.1086 1.4014 2.2803-0.55457 1.2714-1.6682 1.4273-2.9239 1.2767-21.232-4.7625-42.356-11.776-61.1-21.453v-3e-6c-17.262-8.8348-32.428-20.487-43.145-33.832l-1e-5 -1e-5c-10.192-12.693-16.179-26.825-18.213-40.247-2.2044-13.587-0.81503-26.956 2.0159-39.398 0.58581-2.5903 0.93515-0.80848 0.80039-0.1679z"
             opacity="1"
             id="path41" />
        </g>
      </g>
    </g>
    <rect
       transform="matrix(-.80143 .59809 -.80143 -.59809 0 0)"
       x="-56.786"
       y="-290.91"
       width="30.795"
       height="30.399"
       stroke-linecap="round"
       stroke-miterlimit="12.3"
       stroke-width=".045736"
       id="rect43" />
    <rect
       transform="matrix(-.85095 .52524 -.85095 -.52524 0 0)"
       x="-24.466"
       y="-291.18"
       width="17.266"
       height="17.044"
       fill="#fff"
       stroke-linecap="round"
       stroke-miterlimit="12.3"
       stroke-width=".025643"
       id="rect44" />
  </g>
</svg>
