<?xml version="1.0" encoding="UTF-8"?>
<!-- Created with Inkscape (http://www.inkscape.org/) -->
<svg width="53.114mm" height="7.2652mm" version="1.1" viewBox="0 0 53.114 7.2652" xmlns="http://www.w3.org/2000/svg">
 <g transform="translate(-70.505 -29.68)">
  <g transform="matrix(.54991 0 0 .47404 42.258 15.758)" stroke="#fff" stroke-width=".3">
   <path d="m68.139 30.233c-1.7106 0-3.1802 0.56913-4.4085 1.7074-1.4148 1.3119-2.1224 3.0068-2.1224 5.0839 0 2.0322 0.6111 3.6879 1.833 4.9677s2.7363 1.9198 4.5434 1.9198c1.7813 0 3.2992-0.65594 4.5532-1.9678 1.254-1.3119 1.881-2.9614 1.881-4.9485 0-1.9293-0.62362-3.5373-1.8712-4.8235-1.2476-1.2926-2.7172-1.9389-4.4085-1.9389zm35.537 0-4.6013 10.765c-0.20579 0.47588-0.39871 0.87138-0.57878 1.1865-0.17363 0.30868-0.34388 0.54019-0.51108 0.69453-0.1672 0.15434-0.52124 0.27974-1.0614 0.3762v0.35708h4.1191v-0.35708c-0.32154-0.02572-0.58199-0.06092-0.78135-0.10594-0.19935-0.05145-0.35369-0.11271-0.46302-0.18345-0.10932-0.07717-0.18311-0.15721-0.22169-0.24081-0.03215-0.09003-0.04858-0.18649-0.04858-0.28939 0-0.25723 0.1095-0.63682 0.32814-1.1384l0.88728-2.0645h5.0643l0.79116 1.881c0.12862 0.30868 0.22508 0.5759 0.28939 0.80098 0.0707 0.21865 0.10307 0.39854 0.0966 0.54002 0 0.10932-0.0227 0.20917-0.0677 0.29921-0.0386 0.09003-0.1095 0.17007-0.21239 0.24081-0.0965 0.07074-0.23151 0.12862-0.40515 0.17363-0.17363 0.04502-0.38872 0.07396-0.64595 0.08682v0.35708h5.1604v-0.35708c-0.2701-0.01286-0.50448-0.04806-0.70384-0.10594-0.19292-0.05788-0.37333-0.1606-0.54053-0.30851-0.1672-0.15434-0.33119-0.36656-0.49196-0.63665-0.15434-0.27653-0.32459-0.64021-0.51108-1.0904l-4.5532-10.881zm15.743 0.02894c-0.50161 0-0.96124 0.08056-1.3792 0.24133-0.41801 0.16077-0.78795 0.39854-1.1095 0.71365-0.32154 0.31511-0.58825 0.70096-0.80046 1.1576-0.21222 0.45659-0.3603 0.98426-0.4439 1.5823h0.35708c0.12219-0.36656 0.2794-0.68827 0.47232-0.9648 0.19293-0.27653 0.41192-0.50804 0.65629-0.69453 0.25081-0.1865 0.5209-0.32493 0.81029-0.41496 0.29582-0.09646 0.6045-0.14469 0.92604-0.14469 0.34727 0 0.67811 0.07091 0.99322 0.21239 0.31511 0.14148 0.5886 0.33779 0.82011 0.58859 0.23794 0.2508 0.4246 0.55271 0.55965 0.9064 0.14148 0.34727 0.21188 0.72686 0.21188 1.1384 0 1.0868-0.46302 2.2863-1.3891 3.5982-0.46302 0.66238-1.0929 1.4148-1.8903 2.2572-0.79743 0.83601-1.7654 1.7746-2.9037 2.8164v0.35708h7.7168l0.91674-2.5177h-0.35708c-0.14148 0.24437-0.28617 0.4373-0.43408 0.57878-0.14791 0.13505-0.32493 0.24116-0.53072 0.31833-0.20579 0.07074-0.45659 0.11558-0.75241 0.13488-0.29582 0.01929-0.65899 0.02894-1.0899 0.02894h-3.4148c0.19935-0.18006 0.54662-0.5302 1.0418-1.0511 0.50161-0.52733 1.1542-1.2315 1.958-2.1125 1.074-1.1704 1.8456-2.2735 2.3151-3.3088 0.30868-0.66238 0.46302-1.3246 0.46302-1.987 0-0.45659-0.0965-0.89067-0.28939-1.3022-0.1865-0.418-0.44694-0.78456-0.78135-1.0997-0.32797-0.31511-0.72008-0.56591-1.1767-0.75241s-0.94855-0.28009-1.4759-0.28009zm-43.842 0.27027v0.35708h0.49196c0.49518 0 0.86799 0.14131 1.1188 0.42426 0.18006 0.19936 0.27027 0.71061 0.27027 1.5338v8.4403c0 0.75241-0.06752 1.2285-0.20257 1.4278-0.24437 0.36013-0.63987 0.54002-1.1865 0.54002h-0.49196v0.35708h10.129l1.1188-3.5497-0.31833-0.0677c-0.17363 0.41157-0.34388 0.76223-0.51108 1.0516-0.16077 0.28939-0.32814 0.5368-0.50178 0.74259-0.1672 0.19936-0.34084 0.35996-0.5209 0.48214-0.18006 0.12219-0.37299 0.21865-0.57878 0.28939-0.41158 0.14791-1.1158 0.22221-2.1125 0.22221h-0.95498c-0.84887 0-1.3505-0.03233-1.5048-0.09663-0.10289-0.03858-0.18632-0.0902-0.25063-0.15451-0.06431-0.07074-0.11593-0.15756-0.15451-0.26045-0.03859-0.10932-0.06752-0.24437-0.08682-0.40514-0.01286-0.16077-0.01912-0.3537-0.01912-0.57878v-8.2186c0-0.78456 0.05162-1.2765 0.15451-1.4759 0.05788-0.10289 0.12827-0.19597 0.21187-0.27957 0.09003-0.09003 0.20917-0.1672 0.35708-0.23151 0.15434-0.06431 0.34726-0.11254 0.57878-0.14469 0.23794-0.03215 0.53359-0.04806 0.88728-0.04806v-0.35708zm11.99 0v0.35708h0.46302c0.30868 0 0.60433 0.07717 0.88728 0.23151 0.11576 0.06431 0.20596 0.13183 0.27027 0.20257 0.07074 0.07074 0.12184 0.17007 0.154 0.29869 0.03858 0.12219 0.06465 0.27991 0.07751 0.47284 0.01286 0.19292 0.01912 0.44373 0.01912 0.75241v8.4501c0 0.791-0.07717 1.2863-0.23151 1.4857-0.23794 0.31511-0.63005 0.47232-1.1767 0.47232h-0.46302v0.35708h5.6141v-0.35708h-0.47284c-0.31511 0-0.61076-0.07717-0.88728-0.23151-0.11576-0.06431-0.20935-0.13183-0.28009-0.20257-0.07074-0.07717-0.12523-0.1765-0.16382-0.29869-0.03215-0.12219-0.05483-0.27991-0.0677-0.47284-0.01286-0.19292-0.01912-0.44373-0.01912-0.75241v-4.1093h2.3828c0.32797 0 0.59807 0.0352 0.81029 0.10594 0.21865 0.06431 0.39228 0.17042 0.5209 0.31833 0.12862 0.14791 0.22169 0.33796 0.27957 0.56948 0.05788 0.23151 0.0902 0.51125 0.09663 0.83922h0.35657v-4.4276h-0.35657c-0.04502 0.36013-0.10628 0.65577-0.18345 0.88728-0.07717 0.23151-0.18328 0.41479-0.31833 0.54984-0.13505 0.13505-0.30242 0.22812-0.50178 0.27957-0.19292 0.05145-0.42731 0.07751-0.70383 0.07751h-2.3828v-5.1418h2.8841c0.42444 0 0.79099 0.02607 1.0997 0.07751 0.30868 0.04502 0.5759 0.14435 0.80098 0.29869 0.23151 0.15434 0.42444 0.37333 0.57878 0.65629 0.16077 0.28296 0.30546 0.65916 0.43408 1.1286h0.21187v-2.8748zm-19.611 0.40514c0.70739 0 1.3248 0.14469 1.8521 0.43408 0.53376 0.28296 0.97749 0.69436 1.3312 1.2345 0.36013 0.54019 0.62735 1.2029 0.80098 1.9875 0.18006 0.77813 0.26975 1.6656 0.26975 2.6624 0 1.0418-0.10898 1.9389-0.32763 2.6913-0.21222 0.75241-0.50838 1.3726-0.8878 1.8614-0.37942 0.48231-0.82941 0.83922-1.3503 1.0707-0.51447 0.23151-1.074 0.34727-1.6784 0.34727-0.67524 0-1.2704-0.15095-1.7849-0.4532-0.51447-0.30868-0.94855-0.7365-1.3022-1.2831-0.34727-0.55305-0.61058-1.2119-0.79065-1.9771-0.18006-0.76527-0.27027-1.6079-0.27027-2.5275 0-0.92604 0.0902-1.7619 0.27027-2.5079 0.1865-0.74598 0.4532-1.3798 0.80047-1.9007 0.3537-0.52733 0.78778-0.93247 1.3022-1.2154s1.1029-0.42426 1.7653-0.42426zm35.363 2.296 2.219 5.286h-4.4953z" color="#000000"/>
   <path d="m68.139 30.184c-1.7217 0-3.2046 0.57458-4.4414 1.7207-1.4244 1.3208-2.1387 3.0326-2.1387 5.1211 0 2.0422 0.61472 3.7127 1.8457 5.002 1.2304 1.2886 2.7612 1.9355 4.5801 1.9355 1.7936 0 3.3277-0.66393 4.5898-1.9844 1.2627-1.321 1.8945-2.9848 1.8945-4.9824 0-1.94-0.62848-3.5642-1.8848-4.8594-1.2554-1.3007-2.7413-1.9531-4.4453-1.9531zm35.504 0-0.0137 0.0293-4.5996 10.766c-0.20528 0.4747-0.39742 0.86882-0.57617 1.1816-0.17202 0.30582-0.34063 0.53468-0.50195 0.68359-0.15127 0.13964-0.50058 0.26747-1.0371 0.36328l-0.04102 0.0078v0.44726h4.2188v-0.45312l-0.0449-0.0039c-0.31928-0.02554-0.57792-0.05948-0.77344-0.10352h-2e-3c-0.19501-0.05049-0.34334-0.11175-0.44531-0.17773-0.10237-0.07252-0.16933-0.14354-0.20312-0.21484v-2e-3c-0.02975-0.08395-0.04492-0.17459-0.04492-0.27148 0-0.24304 0.10682-0.61845 0.32422-1.1172l0.87305-2.0352h4.998l0.77929 1.8496c0.1281 0.30742 0.22356 0.57444 0.28711 0.79688 0.0696 0.21526 0.10174 0.39149 0.0957 0.52344v2e-3c0 0.1024-0.0211 0.19452-0.0625 0.27734l-2e-3 2e-3c-0.0341 0.07951-0.0981 0.15386-0.19531 0.2207-0.0891 0.06528-0.21901 0.12203-0.38867 0.16602-0.16896 0.04381-0.38184 0.07124-0.63672 0.08398l-0.0469 0.0039v0.45312h5.2598v-0.45312l-0.0469-0.0039c-0.26641-0.01268-0.49725-0.04733-0.69141-0.10352h-2e-3c-0.18495-0.05575-0.35756-0.15359-0.51953-0.29688-0.16239-0.1499-0.32341-0.35785-0.48243-0.625-0.15287-0.2739-0.32179-0.63497-0.50781-1.084l-4.5664-10.912zm15.775 0.0293c-0.50696 0-0.97225 0.08097-1.3965 0.24414-0.4242 0.16315-0.80069 0.40488-1.127 0.72461-0.32624 0.31972-0.59612 0.71053-0.81055 1.1719-0.21467 0.46188-0.3631 0.99361-0.44726 1.5957l-8e-3 0.05859h0.44922l0.0117-0.03516c0.1209-0.36268 0.277-0.67912 0.4668-0.95117 0.19026-0.2727 0.40457-0.50047 0.64453-0.68359 0.24653-0.18331 0.51099-0.31987 0.79492-0.4082 0.29075-0.0948 0.59557-0.14062 0.91211-0.14062 0.34047 0 0.66378 0.06835 0.97266 0.20703 0.3092 0.13883 0.57572 0.33024 0.80273 0.57617v2e-3c0.23314 0.24574 0.41783 0.54046 0.55079 0.88867v2e-3c0.13886 0.34084 0.20703 0.71327 0.20703 1.1191 0 1.0726-0.45661 2.2637-1.3789 3.5703-0.46101 0.6595-1.0905 1.4088-1.8867 2.25-0.79622 0.83469-1.7631 1.7736-2.9004 2.8145l-0.0156 0.01563v0.42773h7.8008l0.95312-2.6172h-0.45703l-0.0137 0.02539c-0.13948 0.24092-0.28283 0.42944-0.42578 0.56641-0.14287 0.13045-0.31317 0.2334-0.51367 0.30859-0.19985 0.06849-0.4464 0.11378-0.73829 0.13281-0.29424 0.01919-0.65581 0.02734-1.0859 0.02734h-3.2949c0.20725-0.19283 0.50301-0.48919 0.95703-0.9668 0.502-0.52774 1.155-1.2321 1.959-2.1133 1.0765-1.1732 1.8518-2.2783 2.3242-3.3203 0.31137-0.66816 0.4668-1.3377 0.4668-2.0078 0-0.46298-0.0976-0.90478-0.29297-1.3223v-2e-3c-0.18908-0.42328-0.4543-0.79611-0.79297-1.1152-0.33277-0.31972-0.72957-0.57308-1.1914-0.76172-0.4628-0.18904-0.96285-0.2832-1.4961-0.2832zm-51.279 0.07031c1.6786 0 3.1333 0.63935 4.373 1.9238 1.2389 1.2772 1.8574 2.8706 1.8574 4.7891 0 1.9766-0.62188 3.6113-1.8672 4.9141-1.2458 1.3033-2.7485 1.9512-4.5176 1.9512-1.7953 0-3.2945-0.63346-4.5078-1.9043-1.2127-1.2702-1.8184-2.9095-1.8184-4.9316 0-2.0658 0.70033-3.7459 2.1055-5.0488 1.2198-1.1304 2.6755-1.6934 4.375-1.6934zm35.572 0h0.26953l4.5391 10.85c0.18696 0.4513 0.35787 0.81655 0.51367 1.0957l2e-3 2e-3c0.16252 0.27304 0.32798 0.48965 0.5 0.64844h2e-3c0.17196 0.15212 0.3583 0.25827 0.55859 0.31836 0.19081 0.05539 0.41714 0.08664 0.66797 0.10156v0.26362h-5.0605v-0.26172c0.23558-0.0142 0.44378-0.04105 0.60937-0.08398 0.17663-0.04579 0.31615-0.1041 0.41992-0.17969l2e-3 -2e-3c0.10593-0.07334 0.18348-0.15959 0.22656-0.25781v-2e-3c0.0478-0.09624 0.0739-0.20355 0.0742-0.31836v-2e-3c7e-3 -0.15021-0.0286-0.33246-0.0996-0.55273v-2e-3c-0.0651-0.22742-0.16215-0.49541-0.29102-0.80469l-0.80469-1.9121h-5.1289l-0.90039 2.0938c-0.2199 0.50447-0.33203 0.88678-0.33203 1.1582 0 0.10822 0.01664 0.21104 0.05078 0.30664v2e-3l2e-3 2e-3c0.04366 0.0946 0.12431 0.18127 0.23828 0.26172h2e-3c0.11629 0.07525 0.27395 0.13716 0.47656 0.18945l2e-3 2e-3c0.19098 0.04312 0.44511 0.07424 0.74219 0.09961v0.26372h-4.0195v-0.27344c0.50974-0.09531 0.8707-0.21042 1.0469-0.37305 0.17308-0.15977 0.34429-0.39549 0.51953-0.70703 0.18137-0.3174 0.37573-0.71434 0.58203-1.1914zm15.707 0.0293c0.52141 0 1.0067 0.09144 1.457 0.27539 0.45134 0.18435 0.83894 0.43169 1.1621 0.74219v2e-3c0.32975 0.31072 0.58566 0.66991 0.76953 1.082v2e-3c0.18988 0.40514 0.28516 0.8317 0.28516 1.2812 0 0.65461-0.153 1.3082-0.45899 1.9648-0.46646 1.0288-1.2352 2.1292-2.3066 3.2969-0.80371 0.88087-1.4558 1.5844-1.957 2.1113-0.49483 0.52055-0.8422 0.87102-1.0391 1.0488l-0.0957 0.08789h3.5449c0.43161 0 0.7944-0.0099 1.0918-0.0293 0.29901-0.0195 0.55417-0.06598 0.76563-0.13867h2e-3c0.21107-0.07915 0.39393-0.18848 0.54688-0.32812 0.14649-0.14012 0.28799-0.3328 0.42578-0.56641h0.26172l-0.88282 2.418h-7.6308v-0.28516c1.1308-1.0356 2.0965-1.9702 2.8906-2.8027 0.79861-0.84369 1.4295-1.5984 1.8945-2.2637 0.9298-1.3172 1.3984-2.5259 1.3984-3.627 0-0.41728-0.0727-0.80451-0.2168-1.1582-0.13685-0.35749-0.32675-0.66492-0.56836-0.91992-0.236-0.25567-0.51492-0.45743-0.83593-0.60156-0.32135-0.14428-0.6596-0.2168-1.0137-0.2168-0.32654 0-0.64051 0.05032-0.9414 0.14844-0.29485 0.09173-0.57108 0.23219-0.82617 0.42188-0.24879 0.18986-0.47042 0.42473-0.66602 0.70508-0.18897 0.27087-0.34137 0.58936-0.46289 0.94336h-0.26177c0.0845-0.56682 0.22188-1.0753 0.42383-1.5098 0.21-0.45183 0.47418-0.83403 0.79101-1.1445 0.31684-0.31049 0.67998-0.54278 1.0918-0.70117 0.41176-0.15837 0.86507-0.23828 1.3613-0.23828zm-43.893 0.16992v0.45703h0.54297c0.48566 0 0.84206 0.13747 1.082 0.4082 0.07856 0.08698 0.14519 0.2567 0.18945 0.50781 0.04426 0.25111 0.06836 0.58244 0.06836 0.99219v8.4395c0 0.37471-0.01753 0.68166-0.05078 0.91602s-0.0852 0.39679-0.14453 0.48438c-0.23464 0.34579-0.60888 0.51758-1.1445 0.51758h-0.54297v0.45703h10.217l1.1465-3.6367-0.41406-0.08789-0.01563 0.03906c-0.17304 0.41016-0.34201 0.75795-0.50781 1.0449v2e-3c-0.15949 0.28709-0.32499 0.53158-0.49609 0.73438-0.16475 0.19643-0.33614 0.35352-0.51172 0.47266-0.17645 0.11974-0.36475 0.21388-0.56641 0.2832h-2e-3c-0.39951 0.14357-1.1014 0.2207-2.0957 0.2207h-0.95312c-0.4238 0-0.76076-0.0094-1.0098-0.02539-0.249-0.016-0.4144-0.04246-0.47656-0.06836h-2e-3c-0.09653-0.03619-0.17221-0.08487-0.23047-0.14258l-2e-3 -2e-3c-0.05845-0.06481-0.10632-0.14411-0.14258-0.24024v-2e-3c-0.03647-0.1038-0.06509-0.23418-0.08398-0.39062v-2e-3c-0.01262-0.15857-0.01953-0.35082-0.01953-0.57422v-8.2188c0-0.39118 0.01358-0.70793 0.03906-0.95117 0.02548-0.24324 0.06405-0.41219 0.10938-0.5 0.0557-0.09902 0.12272-0.18717 0.20312-0.26758 0.08454-0.08454 0.1983-0.15831 0.3418-0.2207 0.14888-0.06203 0.3379-0.11084 0.56641-0.14258 0.23466-0.03171 0.52671-0.04687 0.87891-0.04687h0.05078v-0.45703zm11.992 0v0.45703h0.51172c0.30035 0 0.58703 0.07392 0.86328 0.22461 0.11241 0.06245 0.1985 0.12812 0.25781 0.19336l2e-3 2e-3c0.0627 0.06271 0.11002 0.15299 0.14062 0.27539v2e-3c0.03681 0.11657 0.06349 0.27068 0.07617 0.46094 0.01274 0.19113 0.01953 0.442 0.01953 0.75v8.4492c0 0.39387-0.02063 0.7134-0.05859 0.95703-0.03796 0.24363-0.09669 0.41103-0.16406 0.49805v2e-3c-0.22684 0.30041-0.59968 0.45117-1.1367 0.45117h-0.51172v0.45703h5.7129v-0.45703h-0.52148c-0.30695 0-0.5938-0.0742-0.86328-0.22461-0.11223-0.06235-0.20128-0.12729-0.26758-0.19336-0.0644-0.07025-0.11556-0.162-0.15234-0.27734-0.03093-0.11754-0.05367-0.27205-0.06641-0.46289-0.01274-0.19113-0.01953-0.442-0.01953-0.75v-4.0586h2.332c0.3244 0 0.59006 0.03523 0.79492 0.10352h2e-3c0.21124 0.06213 0.37628 0.1627 0.49805 0.30273 0.12254 0.14092 0.2112 0.32331 0.26758 0.54883 0.05664 0.22656 0.08933 0.50288 0.0957 0.82812l2e-3 0.05078h0.45508v-4.5293h-0.45117l-0.0059 0.04492c-0.04475 0.35793-0.106 0.65003-0.18164 0.87695-0.07533 0.22598-0.17637 0.40294-0.30469 0.53125-0.12856 0.12856-0.28868 0.21613-0.48047 0.26562-0.18724 0.04993-0.41802 0.07617-0.69141 0.07617h-2.332v-5.041h2.834c0.42239 0 0.78674 0.02534 1.0918 0.07617 0.30237 0.0441 0.56314 0.14146 0.78125 0.29102 0.22402 0.14934 0.41135 0.36157 0.5625 0.63867 0.15773 0.27761 0.3018 0.65039 0.42969 1.1172l0.0098 0.03711h0.30078v-2.9746zm-11.891 0.09961h5.8223v0.25977c-0.32983 0.0016-0.61572 0.01606-0.84375 0.04687-0.23451 0.03257-0.432 0.08185-0.5918 0.14844-0.15232 0.06623-0.27752 0.14666-0.37305 0.24219-0.0868 0.0868-0.16065 0.1823-0.2207 0.28906v2e-3c-0.05757 0.11155-0.09504 0.28839-0.12109 0.53711-0.02605 0.24872-0.03906 0.56756-0.03906 0.96094v8.2188c0 0.22601 0.0065 0.42133 0.01953 0.58398v2e-3c0.01961 0.16335 0.04761 0.3019 0.08789 0.41602h2e-3c0.04049 0.10796 0.09501 0.20139 0.16406 0.27734l2e-3 2e-3c0.06954 0.06954 0.15856 0.12355 0.26562 0.16406 0.09217 0.0384 0.25521 0.05994 0.50781 0.07617 0.2526 0.01624 0.59251 0.02539 1.0176 0.02539h0.95312c0.99927 0 1.7072-0.07432 2.1309-0.22656 0.20889-0.07222 0.4068-0.17092 0.58975-0.29506 0.18455-0.12523 0.36159-0.28795 0.53125-0.49023 0.17616-0.20878 0.34381-0.45831 0.50586-0.75 0.16271-0.28161 0.32817-0.62506 0.49609-1.0195l0.22656 0.04687-1.0918 3.4629h-10.041v-0.25586h0.44141c0.55759 0 0.97441-0.18803 1.2285-0.5625 0.07572-0.11178 0.12588-0.28573 0.16016-0.52734 0.03428-0.24161 0.05078-0.55199 0.05078-0.92969v-8.4395c0-0.4134-0.0225-0.74962-0.06836-1.0098-0.04586-0.26014-0.11334-0.44427-0.21484-0.55664-0.26164-0.29518-0.65156-0.44141-1.1562-0.44141h-0.44141zm11.99 0h9.6328v2.7754h-0.12695c-0.12618-0.45105-0.26727-0.82454-0.42578-1.1035-0.15705-0.28793-0.35572-0.51262-0.59375-0.67188-0.23205-0.15912-0.50727-0.26265-0.82227-0.30859-0.31231-0.05204-0.68094-0.07813-1.1074-0.07813h-2.9336v5.2422h2.4316c0.27967 0 0.51819-0.02516 0.7168-0.07813 0.20693-0.0534 0.38386-0.15144 0.52539-0.29297 0.14178-0.14178 0.25106-0.33327 0.33008-0.57031 0.07475-0.22424 0.1312-0.51352 0.17578-0.85156h0.26758v4.3262h-0.26367c-0.0089-0.30654-0.03608-0.57792-0.0918-0.80078-0.05938-0.2375-0.15632-0.43494-0.29102-0.58984-0.13547-0.15579-0.31691-0.2675-0.54297-0.33398-0.21957-0.07319-0.49462-0.10742-0.82617-0.10742h-2.4316v4.1582c0 0.30936 0.0066 0.56114 0.01953 0.75586 0.01301 0.19501 0.03499 0.35559 0.06836 0.48242v2e-3h2e-3c0.04031 0.12766 0.09729 0.23486 0.17383 0.31836l2e-3 2e-3c0.07508 0.07508 0.17228 0.14497 0.29102 0.21094 0.28358 0.15828 0.58884 0.23828 0.91211 0.23828h0.42188v0.25577h-5.5137v-0.25586h0.41211c0.55621 0 0.96776-0.16238 1.2168-0.49219 0.08697-0.11234 0.14438-0.29329 0.18359-0.54492 0.03921-0.25163 0.05859-0.57553 0.05859-0.97266v-8.4492c0-0.30936-0.0066-0.56114-0.01953-0.75586-0.01304-0.1956-0.03973-0.35658-0.08008-0.48438-0.03377-0.13347-0.08782-0.24016-0.16602-0.31836-0.06923-0.07585-0.16267-0.14506-0.28125-0.21094-0.28966-0.158-0.5951-0.23828-0.91211-0.23828h-0.41211zm-19.662 0.30469c-0.66949 0-1.2666 0.14431-1.7891 0.43164-0.52172 0.28695-0.96267 0.69726-1.3203 1.2305-0.3511 0.52664-0.61904 1.1676-0.80664 1.918-0.18117 0.75056-0.27148 1.5902-0.27148 2.5195 0 0.92288 0.0904 1.7695 0.27148 2.5391 0.18109 0.76962 0.44615 1.4336 0.79688 1.9922 0.35737 0.5523 0.79705 0.98604 1.3184 1.2988 0.52272 0.3071 1.1279 0.46094 1.8105 0.46094 0.61088 0 1.1781-0.11704 1.6992-0.35156 0.52856-0.23492 0.98526-0.59795 1.3691-1.0859 0.38426-0.49498 0.68292-1.1217 0.89648-1.8789 0.22038-0.75836 0.33008-1.6598 0.33008-2.7051 0-0.99978-0.09036-1.8911-0.27148-2.6738-0.17469-0.78933-0.44433-1.4575-0.80859-2.0039-0.35754-0.54606-0.80687-0.96304-1.3477-1.25h-2e-3c-0.53525-0.29334-1.1615-0.44141-1.875-0.44141zm0 0.10156c0.70058 0 1.3091 0.14288 1.8281 0.42774h2e-3c0.52617 0.27893 0.96293 0.68291 1.3125 1.2168v2e-3c0.35599 0.53398 0.62039 1.1909 0.79297 1.9707 0.179 0.77355 0.26953 1.6566 0.26953 2.6504 0 1.0383-0.10925 1.9313-0.32617 2.6777-0.21087 0.74762-0.50432 1.3612-0.87891 1.8438-0.37495 0.47664-0.8188 0.82854-1.332 1.0566-0.50778 0.2285-1.0601 0.34375-1.6582 0.34375-0.66709 0-1.252-0.15048-1.7578-0.44726h-2e-3c-0.50712-0.30458-0.9354-0.7271-1.2852-1.2676-0.34337-0.54726-0.60432-1.2007-0.7832-1.9609-0.17904-0.76093-0.26953-1.5993-0.26953-2.5156 0-0.9228 0.09057-1.7547 0.26953-2.4961 0.18539-0.74156 0.44953-1.3696 0.79297-1.8848 0.34976-0.52145 0.77794-0.92025 1.2852-1.1992 0.50652-0.27859 1.085-0.41797 1.7402-0.41797zm35.365 2.1172-0.0469 0.10742-2.3066 5.3574h4.6465zm-2e-3 0.25586 2.1445 5.1074h-4.3438z" color="#000000"/>
  </g>
  <path d="m78.084 29.76-0.64628 0.0037-6.7475 7.1025h45.338l7.3938-7.1062zm-0.49382 0.09698 44.922 0.15538-6.5573 6.6718-44.535-0.01162z" color="#000000" fill="#cad500" stroke="#000" stroke-width=".15892"/>
 </g>
</svg>
