<?xml version="1.0" encoding="UTF-8"?>
<!-- Created with Inkscape (http://www.inkscape.org/) -->
<svg width="53.266mm" height="7.4367mm" version="1.1" viewBox="0 0 53.266 7.4367" xmlns="http://www.w3.org/2000/svg">
 <g transform="translate(-62.965 -36.786)" stroke="#000">
  <path d="m108.66 43.996 0.64857-0.0058 6.7342-7.1242-45.5 0.14636-7.3828 7.1299zm0.49507-0.09857-45.083-0.01035 6.5457-6.6928 44.695-0.13216z" color="#000000" fill="#cad500" stroke-width=".1592"/>
  <g transform="matrix(-.54553 -2.2026e-5 .00011338 -.46602 40.813 17.557)" fill="#fff" stroke-width=".2" aria-label="OLFA 2">
   <g fill="#fff" stroke="#000" stroke-width=".2">
    <path d="m-121.65-55.851q2.5637 0 4.4548 1.9593 1.8911 1.9496 1.8911 4.8739 0 3.0121-1.9008 5.0006-1.9008 1.9886-4.601 1.9886-2.7391 0-4.5912-1.9398-1.8521-1.9398-1.8521-5.0201 0-3.1485 2.1445-5.1371 1.8618-1.7254 4.4547-1.7254zm-0.18521 0.71159q-1.004 0-1.7838 0.4289-0.77982 0.4289-1.316 1.2282-0.52638 0.78957-0.80907 1.9203-0.27293 1.1307-0.27293 2.5344 0 1.3939 0.27293 2.5539 0.27294 1.16 0.79932 1.9983 0.53613 0.82856 1.316 1.2965 0.77982 0.45815 1.8033 0.45815 0.91629 0 1.6961-0.35092 0.78957-0.35092 1.3647-1.082 0.57512-0.74083 0.8968-1.8813 0.33142-1.1405 0.33142-2.7196 0-1.5109-0.27293-2.6904-0.2632-1.1892-0.80907-2.008-0.53613-0.81882-1.3452-1.2477-0.79932-0.43865-1.8716-0.43865z" color="#000000"/>
    <path d="m-121.65-55.9c-1.7398 0-3.2385 0.58009-4.4883 1.7383-1.4394 1.3347-2.1621 3.0633-2.1621 5.1738 0 2.0637 0.62324 3.7518 1.8672 5.0547 1.2433 1.3022 2.7889 1.9551 4.627 1.9551 1.8125 0 3.3612-0.66957 4.6367-2.0039 1.276-1.3349 1.916-3.0165 1.916-5.0352 0-1.9604-0.63675-3.5994-1.9062-4.9082-1.2686-1.3144-2.7682-1.9746-4.4902-1.9746zm0 0.09961c1.6962 0 3.1652 0.64732 4.418 1.9453 1.2519 1.2906 1.877 2.8992 1.877 4.8379 0 1.9974-0.62831 3.6503-1.8867 4.9668-1.259 1.3171-2.7768 1.9727-4.5644 1.9727-1.8142 0-3.3286-0.64157-4.5547-1.9258-1.2255-1.2835-1.8379-2.941-1.8379-4.9844 0-2.0876 0.70897-3.783 2.1289-5.0996 1.2326-1.1423 2.7025-1.7129 4.4199-1.7129zm-0.18555 0.61133c-0.67654 0-1.2807 0.1452-1.8086 0.43555-0.5272 0.28997-0.97062 0.70532-1.332 1.2441h-2e-3c-0.35478 0.53217-0.62487 1.1772-0.81445 1.9355-0.18307 0.75846-0.27539 1.6078-0.27539 2.5469 0 0.93259 0.0924 1.7887 0.27539 2.5664 0.18299 0.77773 0.45028 1.4492 0.80468 2.0137 0.36114 0.55811 0.80525 0.99643 1.332 1.3125h2e-3c0.5282 0.31032 1.1382 0.46484 1.8281 0.46484 0.61731 0 1.1902-0.11848 1.7168-0.35547 0.53412-0.23739 0.99684-0.60257 1.3848-1.0957v-2e-3c0.38799-0.49978 0.68852-1.1322 0.90429-1.8965v-2e-3c0.22238-0.76599 0.33399-1.6769 0.33399-2.7324 0-1.0103-0.0904-1.9102-0.27344-2.7012-0.17653-0.79763-0.44831-1.4732-0.81641-2.0254-0.3613-0.55181-0.81678-0.97369-1.3633-1.2637h-2e-3c-0.54088-0.29644-1.1735-0.44531-1.8945-0.44531zm0 0.10156c0.70795 0 1.3231 0.14379 1.8476 0.43164 0.53171 0.28187 0.97292 0.69095 1.3262 1.2305h2e-3v2e-3c0.35973 0.5396 0.62638 1.2022 0.80078 1.9902 0.18089 0.78171 0.27149 1.6755 0.27149 2.6797 0 1.0492-0.10893 1.9508-0.32813 2.7051-0.21309 0.75551-0.51016 1.3777-0.88867 1.8652-0.3789 0.48165-0.82706 0.8359-1.3457 1.0664-0.51314 0.23091-1.0714 0.3457-1.6758 0.3457-0.6748 0-1.2658-0.15063-1.7773-0.45117-0.51298-0.30779-0.94512-0.73266-1.2988-1.2793-0.34743-0.55332-0.61204-1.2135-0.79297-1.9824-0.18092-0.76893-0.27148-1.617-0.27148-2.543 0-0.93251 0.0906-1.7723 0.27148-2.5215 0.18735-0.74936 0.45568-1.3837 0.80274-1.9043 0.35343-0.52694 0.78432-0.93099 1.2969-1.2129 0.51187-0.28152 1.0976-0.42188 1.7598-0.42188z" color="#000000"/>
    <path d="m-103.09-45.986 0.32167 0.06823-1.1307 3.5872h-10.235v-0.36067h0.49713q0.82857 0 1.199-0.54588 0.20471-0.30218 0.20471-1.4427v-8.5293q0-1.2477-0.27294-1.5499-0.38016-0.4289-1.1308-0.4289h-0.49713v-0.36067h5.9852v0.36067q-0.53613 0-0.8968 0.04874-0.35092 0.04874-0.58487 0.14622-0.2242 0.09748-0.36067 0.23395-0.12672 0.12672-0.21445 0.28269-0.15596 0.30218-0.15596 1.4914v8.3051q0 0.34117 0.0195 0.58487 0.0293 0.2437 0.0877 0.40941 0.0585 0.15596 0.15597 0.26319 0.0975 0.09748 0.25344 0.15596 0.23395 0.09748 1.5207 0.09748h0.96503q1.5109 0 2.1348-0.2242 0.31193-0.10723 0.58487-0.29243 0.27293-0.18521 0.52638-0.48739 0.26319-0.31193 0.50688-0.75058 0.25345-0.43865 0.51664-1.0625z" color="#000000"/>
    <path d="m-114.18-55.6v0.46289h0.54687c0.49077 0 0.85126 0.13853 1.0938 0.41211 0.0794 0.08789 0.14868 0.25992 0.19336 0.51367 0.0447 0.25376 0.0664 0.58789 0.0664 1.002v8.5293c0 0.37865-0.0172 0.68705-0.0508 0.92383-0.0336 0.23678-0.0846 0.40172-0.14453 0.49023-0.23711 0.34943-0.61692 0.52344-1.1582 0.52344h-0.54687v0.46289h10.322l1.1602-3.6758-0.37891-0.08008-4e-3 -2e-3 -0.0371-2e-3 -0.0137 0.0332c-0.17485 0.41446-0.34611 0.76663-0.51367 1.0566l-2e-3 2e-3c-0.16118 0.29013-0.32711 0.53728-0.5 0.74219-0.16649 0.19851-0.34017 0.35813-0.51758 0.47852-0.1783 0.12099-0.36848 0.21511-0.57226 0.28516-0.40369 0.14508-1.1124 0.22266-2.1172 0.22266h-0.9668c-0.42826 0-0.7679-0.0093-1.0195-0.02539-0.25162-0.01613-0.41766-0.04219-0.48047-0.06836h-2e-3v-2e-3c-0.098-0.03674-0.17546-0.08403-0.23437-0.14258-0.0602-0.06618-0.10939-0.14719-0.14649-0.24609h2e-3c-0.037-0.10516-0.0667-0.23762-0.0859-0.39648v-2e-3c-0.0128-0.16028-0.0195-0.3524-0.0195-0.57812v-8.3047c0-0.39531 0.0133-0.71708 0.0391-0.96289 0.0256-0.2449 0.0658-0.4149 0.11133-0.50391v-2e-3c0.0561-0.09947 0.12417-0.18863 0.20507-0.26953 0.0855-0.08545 0.20071-0.16157 0.34571-0.22461v2e-3c0.15045-0.06269 0.34135-0.11246 0.57226-0.14453 0.23716-0.03205 0.53279-0.04687 0.88868-0.04687h0.0508v-0.46289zm0.10156 0.10156h5.8828v0.26172c-0.3326 0.0017-0.62152 0.01579-0.85156 0.04687-0.23698 0.03291-0.43617 0.08311-0.59765 0.15039h-2e-3c-0.15393 0.06693-0.27849 0.14763-0.375 0.24414-0.0877 0.08769-0.16194 0.18698-0.22265 0.29492h-2e-3c-0.0582 0.11273-0.0948 0.29164-0.12109 0.54297-0.0263 0.25133-0.0391 0.57514-0.0391 0.97266v8.3047c0 0.22841 6e-3 0.42551 0.0195 0.58984v2e-3c0.0198 0.16507 0.0492 0.30462 0.0898 0.41992 0.0409 0.10905 0.0962 0.20251 0.16602 0.2793v2e-3h2e-3c0.0706 0.07057 0.16093 0.12702 0.26953 0.16797 0.0932 0.03882 0.25841 0.05981 0.51367 0.07617s0.59585 0.02344 1.0254 0.02344h0.9668c1.0098 0 1.7223-0.07271 2.1504-0.22656 0.21213-0.07292 0.41205-0.17288 0.59766-0.29883 0.1865-0.12656 0.36372-0.29169 0.53515-0.49609 0.17804-0.211 0.34994-0.46307 0.51368-0.75781h-2e-3c0.16411-0.28402 0.33062-0.63164 0.5-1.0293l0.23047 0.04687-1.1035 3.5h-10.146v-0.25977h0.44531c0.56348 0 0.98542-0.18996 1.2422-0.56836 0.0765-0.11295 0.12747-0.28909 0.16211-0.5332 0.0346-0.24411 0.0508-0.55582 0.0508-0.9375v-8.5293c0-0.41775-0.0221-0.75665-0.0684-1.0195s-0.11422-0.45089-0.21679-0.56445c-0.26439-0.29829-0.65991-0.44531-1.1699-0.44531h-0.44531z" color="#000000"/>
    <path d="m-98.252-54.827v5.1956h2.4077q0.41916 0 0.71159-0.07798 0.30218-0.07798 0.50689-0.28269 0.2047-0.2047 0.32168-0.55562t0.18521-0.8968h0.36067v4.4742h-0.36067q-0.0097-0.49714-0.09748-0.84806-0.08773-0.35092-0.28269-0.57512-0.19496-0.2242-0.52638-0.32168-0.32168-0.10723-0.81882-0.10723h-2.4077v4.1526q0 0.46789 0.0195 0.76033 0.01949 0.29243 0.06823 0.47764 0.05849 0.18521 0.16571 0.30218 0.10723 0.10723 0.28269 0.2047 0.41916 0.23395 0.8968 0.23395h0.47764v0.36067h-5.6732v-0.36067h0.4679q0.82856 0 1.1892-0.47764 0.23395-0.30218 0.23395-1.5012v-8.5391q0-0.4679-0.0195-0.76033t-0.078-0.47764q-0.0487-0.19496-0.15596-0.30218-0.0975-0.10723-0.27294-0.2047-0.42891-0.23395-0.8968-0.23395h-0.4679v-0.36067h9.8355v2.9048h-0.21445q-0.19496-0.71159-0.43865-1.1405-0.23395-0.4289-0.58487-0.66285-0.34117-0.23395-0.80907-0.30218-0.46789-0.07798-1.1112-0.07798z" color="#000000"/>
    <path d="m-102.06-55.6v0.46289h0.51757c0.30351 0 0.59389 0.0743 0.87305 0.22656 0.11356 0.0631 0.19979 0.12935 0.25977 0.19531l2e-3 2e-3c0.0634 0.06336 0.1117 0.15372 0.14258 0.27734v4e-3c0.0372 0.11773 0.0633 0.27253 0.0762 0.46484 0.0129 0.19317 0.0195 0.44658 0.0195 0.75781v8.5391c0 0.39802-0.0202 0.72065-0.0586 0.9668s-0.096 0.41597-0.16406 0.50391h-2e-3c-0.22923 0.30358-0.60577 0.45703-1.1484 0.45703h-0.51757v0.46289h5.7734v-0.46289h-0.52734c-0.31018 0-0.60074-0.07458-0.87305-0.22656-0.11392-0.06329-0.20433-0.13011-0.27148-0.19727-0.06449-0.07095-0.11545-0.16322-0.15234-0.2793v-2e-3c-0.03105-0.11857-0.05361-0.27276-0.06641-0.46484-0.01288-0.19317-0.01953-0.44659-0.01953-0.75781v-4.1016h2.3574c0.32779 0 0.59569 0.0345 0.80273 0.10352l2e-3 2e-3c0.21346 0.06278 0.37891 0.16318 0.50195 0.30469 0.12387 0.14245 0.21452 0.32683 0.27148 0.55469 0.05726 0.22892 0.08929 0.50921 0.0957 0.83789l2e-3 0.04883h0.46094v-4.5762h-0.45703l-0.0039 0.04492c-0.04521 0.36171-0.10716 0.65743-0.18359 0.88672-0.07612 0.22836-0.18088 0.40744-0.31055 0.53711-0.12995 0.12995-0.28865 0.21953-0.48242 0.26953h-2e-3c-0.18915 0.05044-0.42096 0.07617-0.69727 0.07617h-2.3574v-5.0957h2.8633c0.42686 0 0.79529 0.02676 1.1035 0.07813h2e-3c0.30551 0.04455 0.56666 0.1418 0.78711 0.29297v2e-3c0.2264 0.15093 0.41563 0.36453 0.56836 0.64453 0.15939 0.28053 0.30631 0.65719 0.43555 1.1289l0.0098 0.03711h0.30274v-3.0059zm0.0996 0.10156h9.7344v2.8047h-0.12891c-0.12754-0.456-0.26946-0.83323-0.42969-1.1152h2e-3c-0.1592-0.29187-0.36007-0.51869-0.60156-0.67969-0.23396-0.16043-0.5106-0.26398-0.82812-0.31055h-2e-3c-0.31528-0.05242-0.68894-0.07813-1.1191-0.07813h-2.9648v5.2969h2.459c0.28257 0 0.52385-0.02654 0.72461-0.08008 0.20914-0.05397 0.38631-0.15388 0.5293-0.29688 0.14327-0.14328 0.25414-0.33468 0.33398-0.57422 0.07575-0.22725 0.13266-0.52042 0.17773-0.86328h0.26953v4.373h-0.26562c-9e-3 -0.30909-0.0375-0.58374-0.09375-0.80859-0.06001-0.24003-0.1569-0.43922-0.29297-0.5957-0.13654-0.15702-0.3212-0.27064-0.54883-0.33789h-2e-3c-0.22161-0.07361-0.49774-0.10938-0.83203-0.10938h-2.459v4.2031c0 0.31263 0.0064 0.56693 0.01953 0.76367 0.01313 0.19704 0.03657 0.35813 0.07031 0.48633v4e-3c0.04074 0.12902 0.10037 0.23591 0.17774 0.32031l2e-3 2e-3c0.07581 0.07581 0.17294 0.14621 0.29297 0.21289 0.28657 0.15994 0.5952 0.24023 0.92188 0.24023h0.42578v0.25977h-5.5723v-0.25977h0.41796c0.56132 0 0.97676-0.16568 1.2285-0.49805 0.0879-0.11352 0.14593-0.29459 0.18555-0.54883 0.0396-0.25424 0.0605-0.58112 0.0605-0.98242v-8.5391c0-0.31263-6e-3 -0.56693-0.0195-0.76367-0.0131-0.19606-0.0398-0.3576-0.0801-0.48633-0.0338-0.13534-0.0892-0.24476-0.16796-0.32422l-2e-3 -2e-3c-0.0699-0.07632-0.16376-0.14653-0.2832-0.21289-0.29272-0.15966-0.60153-0.24023-0.92188-0.24023h-0.41796z" color="#000000"/>
    <path d="m-83.581-46.756h-5.1176l-0.8968 2.086q-0.33142 0.76033-0.33142 1.1502 0 0.15596 0.04874 0.29243 0.05849 0.12672 0.2242 0.2437 0.16571 0.10723 0.4679 0.18521 0.30218 0.06823 0.78957 0.10722v0.36067h-4.1623v-0.36067q0.81882-0.14622 1.0723-0.38016t0.51663-0.70184q0.27294-0.47764 0.58487-1.199l4.6497-10.879h0.34117l4.601 10.996q0.28269 0.68235 0.51663 1.1015 0.2437 0.40941 0.49714 0.64336 0.25344 0.2242 0.54588 0.31193 0.30218 0.08773 0.71159 0.10722v0.36067h-5.2151v-0.36067q0.38991-0.01949 0.6531-0.08773 0.26319-0.06823 0.40941-0.17546 0.15596-0.10723 0.21445-0.2437 0.06824-0.13647 0.06824-0.30218 0.0097-0.21445-0.09748-0.54588-0.09748-0.34117-0.29243-0.80907zm-0.27294-0.72134-2.242-5.3418-2.3005 5.3418z" color="#000000"/>
    <path d="m-85.77-55.9-4.6621 10.908c-0.20743 0.47969-0.4014 0.87724-0.58203 1.1934-0.17383 0.30903-0.34478 0.54092-0.50781 0.69141-0.15289 0.14113-0.5047 0.27037-1.0469 0.36719l-0.04102 0.0059v0.45508h4.2637v-0.45898l-0.04687-0.0039c-0.32263-0.02581-0.58364-0.06097-0.78125-0.10547h-2e-3c-0.19637-0.05083-0.34623-0.11137-0.44922-0.17774-0.10428-0.07361-0.17076-0.14633-0.20508-0.21875v-2e-3c-0.03003-0.08474-0.04687-0.1754-0.04687-0.27344 0-0.24563 0.10844-0.62688 0.32812-1.1309l0.88281-2.0547h5.0508l0.78711 1.8691c0.12944 0.31066 0.22484 0.57993 0.28906 0.80469h2e-3c0.07033 0.21749 0.09978 0.39589 0.09375 0.5293v2e-3c0 0.10354-0.02067 0.19563-0.0625 0.2793v2e-3h-2e-3c-0.03447 0.08044-0.09715 0.15517-0.19531 0.22266h-2e-3v2e-3c-0.08994 0.06596-0.22114 0.12157-0.39258 0.16602-0.17072 0.04427-0.38501 0.07306-0.64258 0.08594l-0.04687 0.0039v0.45898h5.3145v-0.46094l-0.04687-2e-3c-0.2692-0.01282-0.503-0.04868-0.69922-0.10547h-2e-3c-0.18687-0.05632-0.36166-0.15594-0.52539-0.30078-0.16322-0.15089-0.32648-0.3608-0.48633-0.62891l-2e-3 -2e-3c-0.15424-0.2766-0.32415-0.64295-0.51172-1.0957l-4.6152-11.025zm0.06641 0.09961h0.27539l4.5879 10.965c0.18894 0.45607 0.3621 0.82536 0.51953 1.1074 0.16424 0.27592 0.33203 0.4958 0.50586 0.65625h2e-3c0.17374 0.15369 0.362 0.26153 0.56445 0.32227 0.19294 0.05602 0.42203 0.08648 0.67578 0.10156v0.26758h-5.1153v-0.26562c0.23831-0.01434 0.44778-0.04057 0.61523-0.08398 0.1785-0.04627 0.32094-0.10524 0.42578-0.18164l2e-3 -2e-3c0.1076-0.0745 0.18514-0.16198 0.22852-0.26172 0.04887-0.09773 0.07394-0.20562 0.07422-0.32227v-0.001911c0.0066-0.15174-0.02778-0.33789-0.09961-0.56055v-2e-3c-0.06575-0.22982-0.1647-0.49997-0.29492-0.8125l-0.8125-1.9316h-5.1836l-0.91016 2.1172c-0.22221 0.50978-0.33594 0.89566-0.33594 1.1699 0 0.10924 0.01819 0.21187 0.05273 0.30859v2e-3l2e-3 2e-3c0.04412 0.0956 0.12503 0.1843 0.24023 0.26562h2e-3c0.11755 0.07606 0.27771 0.13858 0.48242 0.19141h2e-3c0.19308 0.0436 0.44951 0.07785 0.75 0.10352v0.26562h-4.0605v-0.27539c0.51398-0.09626 0.87691-0.21285 1.0547-0.37695 0.17489-0.16144 0.35025-0.40001 0.52734-0.71484 0.18328-0.32074 0.37747-0.72104 0.58594-1.2031zm-0.39258 2.8535-2.377 5.5215h4.6934l-0.0293-0.07031zm-2e-3 0.25586 2.168 5.1641h-4.3906z" color="#000000"/>
    <path d="m-65.256-44.875-0.92604 2.5442h-7.7982v-0.36067q1.7254-1.5791 2.9341-2.8464 1.2087-1.277 1.9106-2.281 1.4037-1.9886 1.4037-3.6359 0-0.62386-0.21445-1.1502-0.2047-0.53613-0.56537-0.91629-0.35092-0.38016-0.82856-0.59462-0.47764-0.21445-1.004-0.21445-0.48739 0-0.93579 0.14622-0.43865 0.13647-0.81882 0.41916-0.37042 0.28269-0.66285 0.70184-0.29243 0.41916-0.47764 0.97478h-0.36067q0.12672-0.90655 0.4484-1.5986 0.32168-0.69209 0.80907-1.1697t1.121-0.72134 1.3939-0.2437q0.79932 0 1.4914 0.28269t1.1892 0.76033q0.50688 0.47764 0.78957 1.1112 0.29243 0.62386 0.29243 1.316 0 1.004-0.4679 2.008-0.71159 1.5694-2.3395 3.3435-1.2185 1.3354-1.9788 2.1348-0.75058 0.78957-1.0528 1.0625h3.4507q0.6531 0 1.1015-0.02924t0.76033-0.13647q0.31193-0.11697 0.53613-0.32168 0.2242-0.21445 0.43865-0.58487z" color="#000000"/>
    <path d="m-69.828-55.871c-0.51228 0-0.98338 0.0812-1.4121 0.24609-0.42868 0.16488-0.80704 0.40934-1.1367 0.73242-0.32967 0.32308-0.60362 0.71934-0.82031 1.1855-0.21694 0.46674-0.36808 1.0029-0.45312 1.6113l-0.0078 0.05859h0.45508l0.01172-0.03516c0.12215-0.36646 0.27888-0.68599 0.4707-0.96094 0.19228-0.2756 0.40988-0.50637 0.65234-0.69141 0.2491-0.18523 0.5158-0.32089 0.80273-0.41016h2e-3c0.2938-0.0958 0.60005-0.14453 0.91992-0.14453 0.34406 0 0.67032 0.06886 0.98242 0.20898 0.31247 0.14029 0.58309 0.33546 0.8125 0.58398 0.23557 0.2483 0.42228 0.54849 0.55664 0.90039 0.14034 0.34446 0.21094 0.72074 0.21094 1.1309 0 1.0839-0.46253 2.2871-1.3945 3.6074-0.46585 0.66643-1.1016 1.4253-1.9062 2.2754-0.80477 0.84371-1.782 1.7916-2.9316 2.8438l-0.01758 0.01563v0.43359h7.8848l0.96289-2.6465h-0.46094l-0.01563 0.02539c-0.14126 0.244-0.28491 0.43573-0.42969 0.57422-0.14439 0.13183-0.31692 0.23457-0.51953 0.31055-0.20197 0.06923-0.45115 0.11358-0.74609 0.13281-0.29734 0.01939-0.66301 0.0293-1.0977 0.0293h-3.3281c0.20943-0.19484 0.50761-0.49352 0.9668-0.97656 0.50728-0.5333 1.168-1.2443 1.9805-2.1348 1.0878-1.1855 1.8702-2.3045 2.3477-3.3574 0.31465-0.67519 0.47266-1.3521 0.47266-2.0293 0-0.46786-0.09942-0.91405-0.29688-1.3359v-2e-3c-0.19107-0.42774-0.45855-0.80251-0.80078-1.125-0.33628-0.32309-0.73838-0.58086-1.2051-0.77148-0.4677-0.19103-0.97288-0.28516-1.5117-0.28516zm0 0.09961c0.52692 0 1.0176 0.09341 1.4727 0.2793 0.45609 0.18629 0.84726 0.43624 1.1738 0.75 0.33322 0.314 0.59349 0.67925 0.7793 1.0957 0.19191 0.4094 0.28711 0.84064 0.28711 1.2949 0 0.6615-0.15368 1.3228-0.46289 1.9863v2e-3c-0.47137 1.0396-1.2493 2.1501-2.332 3.3301-0.81217 0.89014-1.4701 1.6003-1.9766 2.1328-0.50006 0.52603-0.85187 0.88088-1.0508 1.0605l-0.09766 0.08789h3.582c0.43616 0 0.80495-0.0097 1.1055-0.0293 0.30218-0.01971 0.55978-0.06522 0.77344-0.13867 0.2133-0.07999 0.39819-0.19093 0.55274-0.33203h2e-3v-2e-3c0.14752-0.14111 0.28895-0.33538 0.42773-0.57031h0.26367l-0.88867 2.4434h-7.7129v-0.28906c1.1428-1.0465 2.1174-1.9907 2.9199-2.832 0.80701-0.85256 1.4461-1.6148 1.916-2.2871 0.93958-1.3311 1.4121-2.5534 1.4121-3.666 0-0.4217-0.0712-0.81059-0.2168-1.168-0.13837-0.36239-0.33138-0.67329-0.57617-0.93164-0.23848-0.25836-0.51936-0.46178-0.84375-0.60742-0.32476-0.14581-0.66761-0.21875-1.0254-0.21875-0.32998 0-0.64711 0.04929-0.95117 0.14844-0.29793 0.09269-0.5762 0.23605-0.83398 0.42774-0.25142 0.19187-0.47619 0.42961-0.67383 0.71289-0.19101 0.27378-0.34395 0.59522-0.4668 0.95312h-0.26367c0.08539-0.57307 0.22357-1.0881 0.42773-1.5273 0.21221-0.45658 0.47865-0.84052 0.79883-1.1543 0.32018-0.31377 0.68738-0.55089 1.1035-0.71094 0.41608-0.16003 0.87351-0.24023 1.375-0.24023z" color="#000000"/>
   </g>
  </g>
 </g>
</svg>
