<?xml version="1.0" encoding="UTF-8"?>
<!-- Created with Inkscape (http://www.inkscape.org/) -->
<svg width="668" height="668" version="1.1" viewBox="0 0 176.74 176.74" xmlns="http://www.w3.org/2000/svg">
 <g transform="translate(-37.076 -69.231)" stroke-miterlimit="12.3">
  <path d="m53.909 166.79a70 70 0 0 1 60.215-78.575 70 70 0 0 1 78.575 60.215 70 70 0 0 1-60.215 78.575 70 70 0 0 1-78.575-60.215z" fill-opacity="0" stroke-opacity="0"/>
  <g stroke-linecap="round">
   <text transform="scale(.26458)" fill="#000000" font-family="'Mongolian Baiti'" font-size="74.667px" stroke="#000000" stroke-width="5" style="shape-inside:url(#rect243);white-space:pre" xml:space="preserve"/>
   <g transform="rotate(-42.721 141.09 186.68)" stroke="#fff" style="white-space:pre" aria-label="    An89Tn">
    <path d="m116.16 84.233-6.0859 2.9941 0.15398 3.0054q0.0507 1.0981 0.27883 1.5618 0.0913 0.18548 0.22906 0.31925 0.14369 0.11648 0.40919 0.15863 0.2598 0.03056 0.66478-0.0535 0.39928-0.09565 1.0017-0.33444l0.21102 0.42891-4.9498 2.4352-0.21101-0.42891q0.88819-0.65294 1.0527-1.0794 0.16452-0.42649 0.20376-1.1369 0.0451-0.7277-6e-3 -1.768l-0.83519-15.657 0.40573-0.19961 11.905 10.384q0.73539 0.64606 1.2588 1.0076 0.52933 0.34429 0.9676 0.47422 0.43257 0.11834 0.83166 0.05157 0.41069-0.07247 0.90896-0.28881l0.21102 0.42891-6.2018 3.0512-0.21101-0.42891q0.45228-0.25131 0.72534-0.48644 0.27307-0.23513 0.38422-0.44819 0.12274-0.21876 0.11245-0.41527 1e-3 -0.20221-0.0957-0.39928-0.11387-0.26073-0.43529-0.59213-0.31553-0.34869-0.82112-0.79106zm-0.74661-0.69813-5.7915-5.0408 0.38955 7.6984z"/>
    <path d="m127.13 76.258q1.4483-2.9172 3.284-3.3507 0.64123-0.15142 1.2324-0.06534 0.59112 0.08608 1.1122 0.49401 0.5211 0.40792 0.94338 1.1843 0.42227 0.7764 0.7162 2.0212l1.1609 4.9162q0.17517 0.74183 0.35156 1.1515 0.18896 0.40671 0.44357 0.58553 0.25165 0.16624 0.60597 0.14895 0.35136-0.02987 0.86686-0.1516l0.10689 0.45264-5.6957 1.3449-0.10689-0.45264 0.2389-0.05641q0.5658-0.1336 0.85638-0.30842 0.30315-0.17778 0.41019-0.45527 0.10408-0.29006 0.0438-0.71389-0.0477-0.4268-0.19613-1.0555l-1.1134-4.715q-0.37112-1.5717-0.9523-2.1778-0.57158-0.62167-1.5397-0.39306-1.4962 0.35331-2.5939 2.3382l1.434 6.0729q0.27018 1.1442 0.47974 1.4133 0.13255 0.16782 0.2658 0.28237 0.14581 0.11158 0.34262 0.15803 0.20642 0.03091 0.50451 3.39e-4 0.31067-0.03354 0.78845-0.14636l0.10689 0.45264-5.6957 1.3449-0.10689-0.45264 0.25147-0.05938q0.45264-0.10688 0.71807-0.27576 0.26544-0.16887 0.36951-0.45894 0.11665-0.29303 0.0845-0.71022-0.0351-0.42976-0.18356-1.0584l-1.0094-4.2749q-0.48395-2.0494-0.69735-2.5035-0.1949-0.43186-0.43467-0.5478-0.2272-0.11892-0.5541-0.04172-0.35205 0.08313-0.79788 0.38752l-0.29548-0.4081 3.1377-2.2276 0.54065-0.12767z"/>
    <path d="m142.79 74.574q-2.1663-1.6247-2.8048-2.6182t-0.68786-2.1164q-0.0369-0.83893 0.27872-1.6028 0.31502-0.7768 0.90958-1.3719 0.60691-0.60859 1.4827-0.9833 0.87581-0.37471 1.96-0.42235 1.0454-0.04594 1.9244 0.23873 0.87836 0.27176 1.5211 0.77371 0.6422 0.48904 1.0078 1.1583 0.37854 0.66874 0.4103 1.3915 0.0431 0.9809-0.60905 2.0312-0.65158 1.0632-2.7985 2.5282 1.1749 0.84065 1.9536 1.4918 0.77864 0.65116 1.175 1.1381 1.0382 1.2605 1.1028 2.7318 0.0403 0.91637-0.29829 1.7459-0.32622 0.81609-0.97014 1.4651-0.64449 0.6361-1.5708 1.0389-0.92687 0.38988-2.0626 0.43979-1.0971 0.04821-2.0288-0.26-0.93168-0.30821-1.6284-0.85952-0.68433-0.56478-1.0926-1.3227-0.39598-0.77142-0.43398-1.6362-0.0505-1.1487 0.67344-2.3314 0.37459-0.59838 1.0056-1.2468 0.64335-0.66192 1.5807-1.4014zm1.9656-1.4701q1.4876-1.462 1.8654-2.2803 0.37672-0.84417 0.33248-1.8509-0.0601-1.3681-0.85507-2.0961-0.78205-0.7286-2.1114-0.67018-0.65824 0.02893-1.1912 0.25925-0.533 0.23033-0.91779 0.59639-0.37189 0.36549-0.57088 0.83978-0.199 0.47428-0.17688 0.97764 0.0295 0.67114 0.39456 1.3275 0.3774 0.64292 1.037 1.2347zm-1.3375 1.9338q-0.89525 0.81523-1.383 1.7807-0.31005 0.59554-0.43657 1.2477-0.12709 0.63923-0.0965 1.3362 0.0363 0.82602 0.29867 1.4999 0.27472 0.66037 0.72163 1.1192 0.4469 0.45883 1.0525 0.70378 0.60504 0.23204 1.3149 0.20085 0.69696-0.03063 1.2558-0.26209 0.55826-0.24437 0.94248-0.62334 0.38366-0.39188 0.58152-0.89197 0.19786-0.50009 0.17347-1.0551-0.0403-0.91637-0.56361-1.6434-0.95011-1.3161-3.8613-3.4124z"/>
    <path d="m152.69 83.591 0.0691-0.47299q0.97715 0.1035 1.8142 0.0038 0.84988-0.09786 1.6127-0.40428 0.76469-0.3192 1.4807-0.84135 0.71786-0.53494 1.4419-1.2909 1.6294-1.6813 2.4655-3.831-2.2083 0.99623-3.819 0.76106-0.90763-0.13252-1.6716-0.6227-0.75124-0.48831-1.2531-1.2536-0.50191-0.76525-0.72173-1.7635-0.20516-1.0092-0.0353-2.1725 0.16985-1.1633 0.71574-2.2195 0.56054-1.0671 1.3906-1.8337 0.8428-0.76476 1.9183-1.1561 1.0755-0.39132 2.29-0.21401 1.2272 0.17918 2.1494 0.92746 0.93683 0.73736 1.5199 1.8409 0.58307 1.1035 0.79085 2.4525 0.22056 1.3509 0.0171 2.7443-0.17172 1.1761-0.5935 2.2765-0.40714 1.0895-1.0332 2.0687-0.62605 0.97919-1.4545 1.8244-0.81378 0.83428-1.7879 1.5146-0.75247 0.50377-1.5393 0.88502-0.77402 0.38312-1.5933 0.62907-0.81927 0.24595-1.691 0.31452-0.85893 0.07043-1.7538-0.06022zm9.2267-7.7529q0.47274-1.6283 0.61833-2.6254 0.0803-0.54969 0.0694-1.191 4e-3 -0.65224-0.0965-1.3066-0.0856-0.66531-0.28289-1.2816-0.19725-0.61632-0.50264-1.1179-0.3054-0.50155-0.74106-0.82628-0.4338-0.33751-0.99627-0.41964-0.56248-0.08213-1.1112 0.09889-0.54867 0.18101-1.0196 0.63449-0.46908 0.4407-0.82396 1.1722-0.34209 0.73342-0.48955 1.7433-0.16611 1.1377-0.0906 2.141 0.0755 1.0033 0.38001 1.7789 0.3192 0.76469 0.84752 1.2596t1.2698 0.60319q0.28124 0.04106 0.65038 0.01662 0.38192-0.02257 0.78409-0.09441 0.40404-0.08463 0.80276-0.22225 0.40059-0.15041 0.73194-0.36315z"/>
    <path d="m185 73.725-1.4326 3.8504-0.27848-0.10362q0.19146-0.81096 0.15963-1.4293-0.0152-0.62596-0.25681-1.088-0.2371-0.47418-0.70369-0.8132-0.46208-0.35113-1.1522-0.60792l-2.3126-0.86048-4.6673 12.544q-0.56314 1.5135-0.37588 2.0105 0.25878 0.67523 1.2274 1.0356l0.56908 0.21174-0.16669 0.448-6.9622-2.5905 0.16669-0.448 0.58119 0.21625q1.0413 0.38744 1.7115-0.07999 0.40604-0.27624 0.92413-1.6687l4.6673-12.544-1.9736-0.73434q-0.7507-0.27932-1.3482-0.37758-0.59752-0.09826-1.0976 0.06027-0.50009 0.15854-0.94949 0.62541-0.4494 0.46687-0.89936 1.3057l-0.4601-0.1712 1.4326-3.8504z"/>
    <path d="m188.47 84.735q3.0997-0.99978 4.6917 0.01184 0.5561 0.35338 0.90717 0.83668t0.42284 1.1412q0.0718 0.65788-0.18928 1.5022-0.26104 0.84437-0.947 1.9238l-2.7092 4.2634q-0.40881 0.64332-0.57897 1.0556-0.15925 0.41923-0.10951 0.72636 0.0567 0.29623 0.31642 0.53783 0.26669 0.2307 0.71375 0.51478l-0.24944 0.39254-4.9394-3.1388 0.24944-0.39254 0.20717 0.13165q0.49068 0.3118 0.8187 0.39779 0.33893 0.09292 0.61233-0.02417 0.28033-0.128 0.5417-0.46704 0.27227-0.33211 0.61871-0.8773l2.5984-4.0889q0.86611-1.363 0.89431-2.2022 0.046-0.84324-0.79357-1.3768-1.2976-0.82454-3.485-0.22466l-3.3467 5.2665q-0.63053 0.99225-0.67688 1.3302-0.0276 0.21206-0.0166 0.38743 0.0219 0.1823 0.12607 0.35563 0.12198 0.16936 0.35198 0.36143 0.24091 0.19901 0.65525 0.4623l-0.24944 0.39254-4.9394-3.1388 0.24944-0.39254 0.21807 0.13858q0.39254 0.24944 0.69876 0.32158 0.30622 0.07214 0.58655-0.05586 0.29123-0.12107 0.56747-0.43535 0.28318-0.32518 0.62962-0.87037l2.3558-3.7073q1.1294-1.7773 1.3055-2.2471 0.17311-0.44104 0.0887-0.69365-0.0735-0.24568-0.35698-0.42584-0.30531-0.19401-0.83449-0.30068l0.0859-0.49647 3.7855 0.69116 0.46887 0.29794z"/>
   </g>
   <g transform="rotate(-42.721 141.09 186.68)" fill="#fff" stroke="#000" style="white-space:pre" aria-label="                                    An89Tn">
    <path d="m187.25 218.08 5.6885-3.6938-0.50883-2.966q-0.1804-1.0844-0.46183-1.5178-0.11258-0.17337-0.26525-0.28988-0.15648-0.0986-0.42511-0.10905-0.26159 4.2e-4 -0.65376 0.13185-0.38514 0.14226-0.95504 0.45071l-0.26033-0.4009 4.6266-3.0043 0.26032 0.4009q-0.80461 0.75354-0.91747 1.1965-0.11285 0.44297-0.0677 1.153 0.0414 0.72792 0.21529 1.7549l2.6836 15.448-0.37923 0.24625-13.051-8.9011q-0.80672-0.55442-1.3693-0.85147-0.56638-0.27918-1.017-0.3563-0.44354-0.0663-0.83192 0.0473-0.39921 0.1206-0.86836 0.39443l-0.26032-0.4009 5.7968-3.7642 0.26033 0.4009q-0.41934 0.30311-0.66264 0.56892-0.24329 0.26581-0.32843 0.49054-0.096 0.23176-0.0625 0.42566 0.0227 0.20095 0.14227 0.38514 0.14395 0.24541 0.50235 0.53641 0.35461 0.30888 0.90903 0.68825zm0.82404 0.6048 6.3477 4.3194-1.2985-7.5981z"/>
    <path d="m177.29 227.3q-1.0957 3.0672-2.8677 3.7132-0.61902 0.22569-1.2162 0.20963-0.59715-0.016-1.1626-0.35995-0.56541-0.34389-1.076-1.0653-0.51054-0.72142-0.94863-1.923l-1.7303-4.7458q-0.26109-0.71611-0.48438-1.1022-0.23542-0.3817-0.50927-0.52937-0.26943-0.13554-0.61927-0.0767-0.34542 0.0709-0.84306 0.25236l-0.1593-0.43695 5.4983-2.0046 0.15931 0.43695-0.23061 0.0841q-0.54619 0.19913-0.81423 0.40686-0.28018 0.21216-0.35389 0.5003-0.0693 0.30028 0.0403 0.71409 0.0975 0.41824 0.31874 1.0251l1.6595 4.5516q0.55315 1.5172 1.2015 2.0509 0.64064 0.55024 1.5752 0.2095 1.4444-0.5266 2.3013-2.6267l-2.1374-5.8624q-0.4027-1.1045-0.64242-1.3472-0.15134-0.15108-0.29711-0.2492-0.15792-0.0937-0.35882-0.11669-0.20862-6e-3 -0.50106 0.0589-0.30457 0.0698-0.7658 0.23795l-0.15931-0.43695 5.4983-2.0046 0.1593 0.43696-0.24275 0.0885q-0.43695 0.15931-0.68071 0.35819t-0.31305 0.49916q-0.0814 0.3047-5e-4 0.71523 0.0853 0.42267 0.30661 1.0295l1.5046 4.1268q0.72131 1.9784 0.98657 2.4042 0.24427 0.40598 0.496 0.49296 0.23959 0.0914 0.55517-0.0236 0.33985-0.12391 0.74683-0.47856l0.34138 0.37058-2.8544 2.5808-0.52191 0.19028z"/>
    <path d="m161.93 230.81q2.342 1.3593 3.0926 2.2711 0.75067 0.91176 0.93142 2.0211 0.13504 0.82881-0.0887 1.6245-0.2217 0.8084-0.74234 1.4692-0.53131 0.67559-1.3571 1.1505-0.8258 0.47488-1.8969 0.64939-1.0328 0.16828-1.9391-0.0113-0.90417-0.16683-1.6014-0.5899-0.69515-0.41031-1.1368-1.0321-0.45438-0.61971-0.57072-1.3338-0.15789-0.96907 0.36653-2.0886 0.52235-1.1323 2.4826-2.8391-1.2654-0.69699-2.1151-1.2523-0.84967-0.55531-1.3005-0.99234-1.1789-1.13-1.4157-2.5836-0.1475-0.90532 0.0914-1.7689 0.22822-0.84873 0.79155-1.5688 0.56541-0.70733 1.438-1.216 0.87473-0.49594 1.9968-0.67876 1.0838-0.17659 2.0452 0.0202 0.96141 0.19677 1.718 0.66253 0.74586 0.48059 1.2403 1.1854 0.48376 0.71964 0.62295 1.574 0.1849 1.1348-0.39526 2.3943-0.30179 0.6382-0.85237 1.3562-0.56125 0.73283-1.4054 1.5772zm-1.7796 1.6905q-1.3058 1.6264-1.585 2.4834-0.27507 0.88255-0.11302 1.8771 0.22022 1.3516 1.0951 1.9813 0.86213 0.63181 2.1755 0.41783 0.65029-0.10596 1.1526-0.39723t0.84149-0.69995q0.32643-0.4066 0.46841-0.90095 0.14197-0.49435 0.0609-0.99164-0.10803-0.66305-0.54759-1.2721-0.45023-0.59421-1.1747-1.1045zm1.1014-2.0774q0.79342-0.91464 1.1645-1.9306 0.23804-0.6278 0.28718-1.2903 0.0512-0.64973-0.061-1.3383-0.13296-0.81606-0.47259-1.4545-0.3503-0.62357-0.84795-1.0268t-1.1278-0.57543q-0.62809-0.15945-1.3294-0.0452-0.68856 0.11219-1.2164 0.40761-0.52572 0.30818-0.86283 0.72961-0.33503 0.43418-0.47285 0.95404-0.13782 0.51985-0.0485 1.0681 0.14751 0.90532 0.75254 1.5659 1.098 1.1955 4.235 2.9358z"/>
    <path d="m151.04 223.02-0.0127 0.47784q-0.98254 0.0126-1.802 0.21041-0.83239 0.1975-1.5537 0.59182-0.72166 0.40723-1.371 1.0102-0.64969 0.61593-1.2794 1.4521-1.4196 1.8619-1.9961 4.0953 2.0753-1.2499 3.7025-1.2065 0.91693 0.0245 1.7335 0.42102 0.80362 0.39623 1.3924 1.0969 0.58872 0.70066 0.92484 1.666 0.32285 0.97789 0.29151 2.1531-0.0314 1.1752-0.44875 2.2884-0.43066 1.1258-1.1644 1.985-0.74664 0.8589-1.7684 1.3744-1.0218 0.51554-2.2487 0.48282-1.2398-0.0331-2.2438-0.66726-1.0173-0.62163-1.7266-1.6486-0.70926-1.027-1.0748-2.342-0.37847-1.3154-0.34093-2.7231 0.0317-1.1881 0.32064-2.3306 0.27569-1.1299 0.78177-2.1762 0.50608-1.0462 1.229-1.9833 0.70962-0.92451 1.5966-1.715 0.68774-0.58907 1.424-1.0605 0.72339-0.47181 1.5079-0.81275 0.78451-0.34093 1.642-0.51192 0.84461-0.17133 1.7486-0.14721zm-8.2471 8.7878q-0.27724 1.6727-0.30411 2.68-0.0148 0.55532 0.0716 1.1909 0.0732 0.64813 0.25001 1.2861 0.16358 0.65055 0.4322 1.2393t0.63109 1.0507q0.36246 0.46199 0.83341 0.73303 0.4706 0.28395 1.0388 0.2991 0.56824 0.0152 1.0917-0.22935 0.52346-0.24451 0.93759-0.75042 0.41379-0.49298 0.67983-1.2613 0.25313-0.76867 0.28034-1.7889 0.0307-1.1494-0.16271-2.1368-0.19337-0.98736-0.58734-1.7216-0.40724-0.72167-0.99028-1.1508-0.58305-0.42911-1.3321-0.44908-0.28412-8e-3 -0.64779 0.0603-0.37659 0.0675-0.76747 0.18631-0.39122 0.13172-0.77091 0.31545-0.38003 0.19665-0.68395 0.44701z"/>
    <path d="m120.13 236.64 0.96534-3.9932 0.28882 0.0698q-0.0938 0.82796 0.0112 1.4382 0.0894 0.61972 0.38419 1.0498 0.29172 0.44268 0.79526 0.7239 0.5005 0.29378 1.2163 0.46681l2.3985 0.57981 3.145-13.009q0.37946-1.5697 0.13451-2.0409-0.33712-0.63973-1.3417-0.88258l-0.5902-0.14268 0.11232-0.46462 7.2205 1.7455-0.11232 0.46463-0.60275-0.14572q-1.0799-0.26106-1.6899 0.28264-0.37037 0.32249-0.71947 1.7666l-3.1449 13.009 2.0468 0.49481q0.77856 0.18821 1.3835 0.21484 0.60496 0.0266 1.0827-0.19017 0.47773-0.21679 0.86852-0.73372t0.73797-1.4033l0.47718 0.11536-0.96535 3.9932z"/>
    <path d="m115.37 226.12q-2.9609 1.3568-4.6606 0.53916-0.59374-0.28563-0.99913-0.72437-0.4054-0.43874-0.55392-1.0836t0.0116-1.5141q0.16008-0.86918 0.71454-2.0217l2.1898-4.552q0.33043-0.68688 0.451-1.1163 0.10893-0.43503 0.0235-0.7342-0.0911-0.28752-0.37739-0.49695-0.29194-0.19778-0.76926-0.42741l0.20162-0.41911 5.2738 2.5371-0.20162 0.41911-0.2212-0.10641q-0.52389-0.25203-0.85975-0.29891-0.34749-0.0525-0.60525 0.0959-0.26336 0.16003-0.4831 0.52742-0.23139 0.36178-0.51142 0.94388l-2.1002 4.3658q-0.70008 1.4552-0.62953 2.292 0.0533 0.84281 0.94975 1.2741 1.3854 0.66647 3.4872-0.18611l2.7051-5.6231q0.50966-1.0594 0.51601-1.4004 3e-3 -0.21383-0.029-0.3867-0.0432-0.17846-0.16696-0.33837-0.14102-0.15386-0.39199-0.3176-0.2626-0.16934-0.705-0.38216l0.20162-0.41911 5.2738 2.5371-0.20162 0.41911-0.23284-0.11201q-0.41912-0.20162-0.73169-0.2373-0.31257-0.0357-0.57593 0.12436-0.275 0.15443-0.51243 0.49897-0.24303 0.35618-0.52306 0.93828l-1.9042 3.9583q-0.9129 1.8976-1.0326 2.3848-0.12013 0.45831-7e-3 0.69927 0.10182 0.23535 0.40451 0.38097 0.32598 0.15682 0.86402 0.20061l-0.027 0.50312-3.8405-0.24186-0.5006-0.24083z"/>
   </g>
  </g>
 </g>
</svg>
