<?xml version="1.0" encoding="UTF-8"?>
<!-- Created with Inkscape (http://www.inkscape.org/) -->
<svg width="760.92" height="760.55" version="1.1" viewBox="0 0 201.33 201.23" xmlns="http://www.w3.org/2000/svg">
 <g transform="translate(-262.78 -37.513)" stroke-linecap="round" stroke-miterlimit="12.3">
  <text transform="scale(.26458)" fill="#000000" font-family="'Mongolian Baiti'" font-size="74.667px" stroke="#000000" stroke-width="5" style="shape-inside:url(#rect243);white-space:pre" xml:space="preserve"/>
  <g stroke="#000">
   <path d="m358.13 238a50 50 0 0 0 3.0822 0.0582 100 100 0 0 1-3.0822-0.0582zm3.0822 0.0582a100 100 0 0 0 102.08-94.61 100 100 0 0 0-91.886-104.95 100 100 0 0 0-0.0133-0.0017 50 50 0 0 0-2.6522-0.21346 50 50 0 0 0-5.2337-0.0039 50 50 0 0 0-5.2054 0.54306 50 50 0 0 0-5.1197 1.0843 50 50 0 0 0-4.9787 1.6139 50 50 0 0 0-4.7828 2.1247 50 50 0 0 0-4.5345 2.6135 50 50 0 0 0-4.236 3.0734 50 50 0 0 0-3.8922 3.4989 50 50 0 0 0-3.5046 3.8869 50 50 0 0 0-3.0794 4.2319 50 50 0 0 0-2.6202 4.5301 50 50 0 0 0-2.132 4.7796 50 50 0 0 0-1.6213 4.9765 50 50 0 0 0-1.0917 5.1185 50 50 0 0 0-0.55088 5.2046 50 50 0 0 0-0.0627 1.7836 50 50 0 0 0 8.7e-4 1.7849 50 50 0 0 0 0.0641 1.7836 50 50 0 0 0 0.12841 1.7803 50 50 0 0 0 0.19134 1.7748 50 50 0 0 0 0.25491 1.7663 50 50 0 0 0 0.31754 1.7567 50 50 0 0 0 0.3803 1.744 50 50 0 0 0 0.44215 1.7292 50 50 0 0 0 0.5036 1.7122 50 50 0 0 0 0.56465 1.6932 50 50 0 0 0 0.62476 1.6721 50 50 0 0 0 0.68342 1.6488 50 50 0 0 0 0.74223 1.6235 50 50 0 0 0 0.7996 1.5955 50 50 0 0 0 0.85652 1.5664 50 50 0 0 0 0.91151 1.5347 50 50 0 0 0 0.96557 1.5008 50 50 0 0 0 1.0187 1.4659 50 50 0 0 0 1.0703 1.4282 50 50 0 0 0 1.1205 1.3895 50 50 0 0 0 1.1693 1.3481 50 50 0 0 0 1.2171 1.3062 50 50 0 0 0 1.2624 1.2615 50 50 0 0 0 1.3073 1.2157 50 50 0 0 0 1.3491 1.1683 50 50 0 0 0 1.3905 1.1192 50 50 0 0 0 1.4294 1.069 50 50 0 0 0 1.4663 1.0172 50 50 0 0 0 1.5023 0.96424 50 50 0 0 0 1.5352 0.91009 50 50 0 0 0 1.5671 0.85487 50 50 0 0 0 1.5965 0.79795 50 50 0 0 0 1.6238 0.74093 50 50 0 0 0 1.6492 0.68225 50 50 0 0 0 1.6731 0.62297 50 50 0 0 0 1.6938 0.56302 50 50 0 0 0 1.7126 0.50191 50 50 0 0 0 1.7298 0.44072 50 50 0 0 0 1.744 0.37886 50 50 0 0 0 1.7567 0.31588 50 50 0 0 0 1.7667 0.25329 50 50 0 0 0 1.7747 0.19005 50 50 0 0 0 1.7807 0.12619 50 50 0 0 1 5.2046 0.55088 50 50 0 0 1 5.1184 1.0922 50 50 0 0 1 4.976 1.6208 50 50 0 0 1 4.7796 2.132 50 50 0 0 1 4.5306 2.6202 50 50 0 0 1 4.2319 3.0794 50 50 0 0 1 3.8864 3.505 50 50 0 0 1 3.4995 3.8918 50 50 0 0 1 3.0728 4.2365 50 50 0 0 1 2.6135 4.534 50 50 0 0 1 2.1252 4.7828 50 50 0 0 1 1.6134 4.9786 50 50 0 0 1 1.0842 5.1203 50 50 0 0 1 0.54358 5.2054 50 50 0 0 1-4e-3 5.2332 50 50 0 0 1-0.55088 5.2046 50 50 0 0 1-1.0923 5.1184 50 50 0 0 1-1.6208 4.9765 50 50 0 0 1-2.132 4.7796 50 50 0 0 1-2.6202 4.5301 50 50 0 0 1-3.0794 4.2319 50 50 0 0 1-3.5046 3.8869 50 50 0 0 1-3.8922 3.4989 50 50 0 0 1-4.236 3.0734 50 50 0 0 1-4.5345 2.613 50 50 0 0 1-4.7828 2.1252 50 50 0 0 1-4.9787 1.6139 50 50 0 0 1-5.1197 1.0843 50 50 0 0 1-5.2054 0.54306 50 50 0 0 1-2.1515 0.0544z" fill="#f9f9f9" stroke-width="1.323"/>
   <path d="m358.13 238a50 50 0 0 0 5.2337 4e-3 50 50 0 0 0 5.2054-0.54306 50 50 0 0 0 5.1197-1.0843 50 50 0 0 0 4.9787-1.6139 50 50 0 0 0 4.7828-2.1252 50 50 0 0 0 4.5345-2.613 50 50 0 0 0 4.236-3.0734 50 50 0 0 0 3.8922-3.4989 50 50 0 0 0 3.5046-3.8869 50 50 0 0 0 3.0794-4.2319 50 50 0 0 0 2.6202-4.5301 50 50 0 0 0 2.132-4.7796 50 50 0 0 0 1.6208-4.9765 50 50 0 0 0 1.0922-5.1184 50 50 0 0 0 0.55089-5.2046 50 50 0 0 0 4e-3 -5.2332 50 50 0 0 0-0.54358-5.2054 50 50 0 0 0-1.0842-5.1203 50 50 0 0 0-1.6134-4.9786 50 50 0 0 0-2.1252-4.7828 50 50 0 0 0-2.6135-4.534 50 50 0 0 0-3.0728-4.2365 50 50 0 0 0-3.4995-3.8918 50 50 0 0 0-3.8864-3.505 50 50 0 0 0-4.2319-3.0794 50 50 0 0 0-4.5306-2.6202 50 50 0 0 0-4.7796-2.132 50 50 0 0 0-4.976-1.6208 50 50 0 0 0-5.1184-1.0922 50 50 0 0 0-5.2046-0.55088 50 50 0 0 1-1.7807-0.12619 50 50 0 0 1-1.7747-0.19005 50 50 0 0 1-1.7667-0.25329 50 50 0 0 1-1.7567-0.31588 50 50 0 0 1-1.744-0.37886 50 50 0 0 1-1.7298-0.44072 50 50 0 0 1-1.7126-0.50191 50 50 0 0 1-1.6938-0.56302 50 50 0 0 1-1.6731-0.62297 50 50 0 0 1-1.6492-0.68225 50 50 0 0 1-1.6238-0.74093 50 50 0 0 1-1.5965-0.79795 50 50 0 0 1-1.5671-0.85487 50 50 0 0 1-1.5352-0.91009 50 50 0 0 1-1.5023-0.96424 50 50 0 0 1-1.4663-1.0172 50 50 0 0 1-1.4294-1.069 50 50 0 0 1-1.3905-1.1192 50 50 0 0 1-1.3491-1.1683 50 50 0 0 1-1.3073-1.2157 50 50 0 0 1-1.2624-1.2615 50 50 0 0 1-1.2171-1.3062 50 50 0 0 1-1.1693-1.3481 50 50 0 0 1-1.1205-1.3895 50 50 0 0 1-1.0703-1.4282 50 50 0 0 1-1.0187-1.4659 50 50 0 0 1-0.96557-1.5008 50 50 0 0 1-0.91151-1.5347 50 50 0 0 1-0.85652-1.5664 50 50 0 0 1-0.7996-1.5955 50 50 0 0 1-0.74223-1.6235 50 50 0 0 1-0.68343-1.6488 50 50 0 0 1-0.62476-1.6721 50 50 0 0 1-0.56464-1.6932 50 50 0 0 1-0.5036-1.7122 50 50 0 0 1-0.44215-1.7292 50 50 0 0 1-0.3803-1.744 50 50 0 0 1-0.31754-1.7567 50 50 0 0 1-0.25491-1.7663 50 50 0 0 1-0.19134-1.7748 50 50 0 0 1-0.12842-1.7803 50 50 0 0 1-0.0641-1.7836 50 50 0 0 1-8.7e-4 -1.7849 50 50 0 0 1 0.0627-1.7836 50 50 0 0 1 0.55087-5.2046 50 50 0 0 1 1.0918-5.1185 50 50 0 0 1 1.6213-4.9765 50 50 0 0 1 2.132-4.7796 50 50 0 0 1 2.6202-4.5301 50 50 0 0 1 3.0794-4.2319 50 50 0 0 1 3.5046-3.8869 50 50 0 0 1 3.8922-3.4989 50 50 0 0 1 4.236-3.0734 50 50 0 0 1 4.5345-2.6135 50 50 0 0 1 4.7828-2.1247 50 50 0 0 1 4.9787-1.6139 50 50 0 0 1 5.1198-1.0843 50 50 0 0 1 5.2054-0.54306 50 50 0 0 1 2.5738-0.06503 100 100 0 0 0-102.51 94.62 100 100 0 0 0 94.552 105.17z" stroke-width="1.323"/>
   <circle transform="rotate(183.04)" cx="-370.26" cy="-168.66" r="20" fill="#fff" stroke-width="1.3229"/>
   <circle transform="rotate(183.04)" cx="-370.26" cy="-69.257" r="20" stroke-width="1.3229"/>
  </g>
 </g>
</svg>
